<mxfile host="app.diagrams.net" modified="2023-04-15T12:28:09.933Z" agent="Mozilla/5.0 (Windows NT 10.0; Win64; x64) AppleWebKit/537.36 (KHTML, like Gecko) Chrome/112.0.0.0 Safari/537.36" etag="pUGNWOzMoUHZvaUAO5c4" version="21.1.7" type="device">
  <diagram id="w86tNXmZhJVXljsclgEb" name="Страница 1">
    <mxGraphModel dx="1722" dy="642" grid="1" gridSize="10" guides="1" tooltips="1" connect="1" arrows="1" fold="1" page="0" pageScale="1" pageWidth="827" pageHeight="1169" math="0" shadow="0">
      <root>
        <mxCell id="0" />
        <mxCell id="1" parent="0" />
        <mxCell id="UB7z2SPtO77Pdfwkvhxr-9" style="edgeStyle=orthogonalEdgeStyle;rounded=0;orthogonalLoop=1;jettySize=auto;html=1;exitX=0.5;exitY=1;exitDx=0;exitDy=0;exitPerimeter=0;" parent="1" source="UB7z2SPtO77Pdfwkvhxr-5" target="UB7z2SPtO77Pdfwkvhxr-8" edge="1">
          <mxGeometry relative="1" as="geometry" />
        </mxCell>
        <mxCell id="UB7z2SPtO77Pdfwkvhxr-5" value="Начало" style="strokeWidth=2;html=1;shape=mxgraph.flowchart.terminator;whiteSpace=wrap;" parent="1" vertex="1">
          <mxGeometry x="60" y="40" width="120" height="60" as="geometry" />
        </mxCell>
        <mxCell id="UB7z2SPtO77Pdfwkvhxr-11" style="edgeStyle=orthogonalEdgeStyle;rounded=0;orthogonalLoop=1;jettySize=auto;html=1;exitX=0.5;exitY=1;exitDx=0;exitDy=0;" parent="1" source="UB7z2SPtO77Pdfwkvhxr-8" target="UB7z2SPtO77Pdfwkvhxr-10" edge="1">
          <mxGeometry relative="1" as="geometry" />
        </mxCell>
        <mxCell id="UB7z2SPtO77Pdfwkvhxr-8" value="вызвано событие turnOnUVLamp" style="shape=process;whiteSpace=wrap;html=1;backgroundOutline=1;" parent="1" vertex="1">
          <mxGeometry x="60" y="120" width="120" height="60" as="geometry" />
        </mxCell>
        <mxCell id="UB7z2SPtO77Pdfwkvhxr-13" style="edgeStyle=orthogonalEdgeStyle;rounded=0;orthogonalLoop=1;jettySize=auto;html=1;exitX=0.5;exitY=1;exitDx=0;exitDy=0;" parent="1" source="UB7z2SPtO77Pdfwkvhxr-10" target="UB7z2SPtO77Pdfwkvhxr-12" edge="1">
          <mxGeometry relative="1" as="geometry" />
        </mxCell>
        <mxCell id="UB7z2SPtO77Pdfwkvhxr-10" value="Установить материал компонента UVLamp на uvLampLit" style="rounded=0;whiteSpace=wrap;html=1;" parent="1" vertex="1">
          <mxGeometry x="60" y="200" width="120" height="60" as="geometry" />
        </mxCell>
        <mxCell id="UB7z2SPtO77Pdfwkvhxr-12" value="Конец" style="strokeWidth=2;html=1;shape=mxgraph.flowchart.terminator;whiteSpace=wrap;" parent="1" vertex="1">
          <mxGeometry x="60" y="280" width="120" height="60" as="geometry" />
        </mxCell>
        <mxCell id="UB7z2SPtO77Pdfwkvhxr-14" style="edgeStyle=orthogonalEdgeStyle;rounded=0;orthogonalLoop=1;jettySize=auto;html=1;exitX=0.5;exitY=1;exitDx=0;exitDy=0;exitPerimeter=0;" parent="1" source="UB7z2SPtO77Pdfwkvhxr-15" target="UB7z2SPtO77Pdfwkvhxr-17" edge="1">
          <mxGeometry relative="1" as="geometry" />
        </mxCell>
        <mxCell id="UB7z2SPtO77Pdfwkvhxr-15" value="Начало" style="strokeWidth=2;html=1;shape=mxgraph.flowchart.terminator;whiteSpace=wrap;" parent="1" vertex="1">
          <mxGeometry x="280" y="40" width="120" height="60" as="geometry" />
        </mxCell>
        <mxCell id="UB7z2SPtO77Pdfwkvhxr-16" style="edgeStyle=orthogonalEdgeStyle;rounded=0;orthogonalLoop=1;jettySize=auto;html=1;exitX=0.5;exitY=1;exitDx=0;exitDy=0;" parent="1" source="UB7z2SPtO77Pdfwkvhxr-17" target="UB7z2SPtO77Pdfwkvhxr-19" edge="1">
          <mxGeometry relative="1" as="geometry" />
        </mxCell>
        <mxCell id="UB7z2SPtO77Pdfwkvhxr-17" value="вызвано событие turnOffUVLamp" style="shape=process;whiteSpace=wrap;html=1;backgroundOutline=1;" parent="1" vertex="1">
          <mxGeometry x="280" y="120" width="120" height="60" as="geometry" />
        </mxCell>
        <mxCell id="UB7z2SPtO77Pdfwkvhxr-18" style="edgeStyle=orthogonalEdgeStyle;rounded=0;orthogonalLoop=1;jettySize=auto;html=1;exitX=0.5;exitY=1;exitDx=0;exitDy=0;" parent="1" source="UB7z2SPtO77Pdfwkvhxr-19" target="UB7z2SPtO77Pdfwkvhxr-20" edge="1">
          <mxGeometry relative="1" as="geometry" />
        </mxCell>
        <mxCell id="UB7z2SPtO77Pdfwkvhxr-19" value="Установить материал компонента UVLamp на uvLampUnlit" style="rounded=0;whiteSpace=wrap;html=1;" parent="1" vertex="1">
          <mxGeometry x="280" y="200" width="120" height="60" as="geometry" />
        </mxCell>
        <mxCell id="UB7z2SPtO77Pdfwkvhxr-20" value="Конец" style="strokeWidth=2;html=1;shape=mxgraph.flowchart.terminator;whiteSpace=wrap;" parent="1" vertex="1">
          <mxGeometry x="280" y="280" width="120" height="60" as="geometry" />
        </mxCell>
        <mxCell id="UB7z2SPtO77Pdfwkvhxr-23" style="edgeStyle=orthogonalEdgeStyle;rounded=0;orthogonalLoop=1;jettySize=auto;html=1;exitX=0.5;exitY=1;exitDx=0;exitDy=0;exitPerimeter=0;" parent="1" source="UB7z2SPtO77Pdfwkvhxr-21" target="UB7z2SPtO77Pdfwkvhxr-22" edge="1">
          <mxGeometry relative="1" as="geometry" />
        </mxCell>
        <mxCell id="UB7z2SPtO77Pdfwkvhxr-21" value="Начало" style="strokeWidth=2;html=1;shape=mxgraph.flowchart.terminator;whiteSpace=wrap;" parent="1" vertex="1">
          <mxGeometry x="554" y="40" width="120" height="60" as="geometry" />
        </mxCell>
        <mxCell id="UB7z2SPtO77Pdfwkvhxr-25" style="edgeStyle=orthogonalEdgeStyle;rounded=0;orthogonalLoop=1;jettySize=auto;html=1;exitX=0.5;exitY=1;exitDx=0;exitDy=0;" parent="1" source="UB7z2SPtO77Pdfwkvhxr-22" target="UB7z2SPtO77Pdfwkvhxr-24" edge="1">
          <mxGeometry relative="1" as="geometry" />
        </mxCell>
        <mxCell id="UB7z2SPtO77Pdfwkvhxr-22" value="Вызвано событие Event Interact" style="shape=process;whiteSpace=wrap;html=1;backgroundOutline=1;" parent="1" vertex="1">
          <mxGeometry x="554" y="120" width="120" height="60" as="geometry" />
        </mxCell>
        <mxCell id="UB7z2SPtO77Pdfwkvhxr-29" style="edgeStyle=orthogonalEdgeStyle;rounded=0;orthogonalLoop=1;jettySize=auto;html=1;exitX=0.5;exitY=1;exitDx=0;exitDy=0;" parent="1" source="UB7z2SPtO77Pdfwkvhxr-24" target="UB7z2SPtO77Pdfwkvhxr-28" edge="1">
          <mxGeometry relative="1" as="geometry" />
        </mxCell>
        <mxCell id="UB7z2SPtO77Pdfwkvhxr-24" value="Получить ссылку на объект класса DoorScript2" style="rounded=0;whiteSpace=wrap;html=1;" parent="1" vertex="1">
          <mxGeometry x="554" y="200" width="120" height="60" as="geometry" />
        </mxCell>
        <mxCell id="UB7z2SPtO77Pdfwkvhxr-34" value="да" style="edgeStyle=orthogonalEdgeStyle;rounded=0;orthogonalLoop=1;jettySize=auto;html=1;exitX=0;exitY=0.5;exitDx=0;exitDy=0;" parent="1" source="UB7z2SPtO77Pdfwkvhxr-28" target="UB7z2SPtO77Pdfwkvhxr-31" edge="1">
          <mxGeometry x="-0.1107" y="-10" relative="1" as="geometry">
            <mxPoint as="offset" />
          </mxGeometry>
        </mxCell>
        <mxCell id="UB7z2SPtO77Pdfwkvhxr-46" value="нет" style="edgeStyle=orthogonalEdgeStyle;rounded=0;orthogonalLoop=1;jettySize=auto;html=1;exitX=1;exitY=0.5;exitDx=0;exitDy=0;" parent="1" source="UB7z2SPtO77Pdfwkvhxr-28" target="UB7z2SPtO77Pdfwkvhxr-45" edge="1">
          <mxGeometry x="-0.4667" y="10" relative="1" as="geometry">
            <Array as="points">
              <mxPoint x="944" y="310" />
            </Array>
            <mxPoint as="offset" />
          </mxGeometry>
        </mxCell>
        <mxCell id="UB7z2SPtO77Pdfwkvhxr-28" value="Открыта ли вторая дверь?" style="rhombus;whiteSpace=wrap;html=1;" parent="1" vertex="1">
          <mxGeometry x="554" y="280" width="120" height="60" as="geometry" />
        </mxCell>
        <mxCell id="UB7z2SPtO77Pdfwkvhxr-36" style="edgeStyle=orthogonalEdgeStyle;rounded=0;orthogonalLoop=1;jettySize=auto;html=1;exitX=0.5;exitY=1;exitDx=0;exitDy=0;" parent="1" source="UB7z2SPtO77Pdfwkvhxr-31" target="UB7z2SPtO77Pdfwkvhxr-35" edge="1">
          <mxGeometry relative="1" as="geometry" />
        </mxCell>
        <mxCell id="UB7z2SPtO77Pdfwkvhxr-31" value="Получить ссылку на объекты класса Hud" style="rounded=0;whiteSpace=wrap;html=1;" parent="1" vertex="1">
          <mxGeometry x="434" y="340" width="120" height="60" as="geometry" />
        </mxCell>
        <mxCell id="UB7z2SPtO77Pdfwkvhxr-38" style="edgeStyle=orthogonalEdgeStyle;rounded=0;orthogonalLoop=1;jettySize=auto;html=1;exitX=0.5;exitY=1;exitDx=0;exitDy=0;" parent="1" source="UB7z2SPtO77Pdfwkvhxr-35" target="UB7z2SPtO77Pdfwkvhxr-37" edge="1">
          <mxGeometry relative="1" as="geometry">
            <Array as="points">
              <mxPoint x="494" y="540" />
              <mxPoint x="574" y="540" />
              <mxPoint x="574" y="380" />
            </Array>
          </mxGeometry>
        </mxCell>
        <mxCell id="UB7z2SPtO77Pdfwkvhxr-35" value="Отобразить сообщение &quot;Взаимодействие с УФ-лампой при открытых дверях запрещено&quot;" style="rounded=0;whiteSpace=wrap;html=1;" parent="1" vertex="1">
          <mxGeometry x="434" y="420" width="120" height="100" as="geometry" />
        </mxCell>
        <mxCell id="UB7z2SPtO77Pdfwkvhxr-43" style="edgeStyle=orthogonalEdgeStyle;rounded=0;orthogonalLoop=1;jettySize=auto;html=1;exitX=0.5;exitY=1;exitDx=0;exitDy=0;" parent="1" source="UB7z2SPtO77Pdfwkvhxr-37" target="UB7z2SPtO77Pdfwkvhxr-41" edge="1">
          <mxGeometry relative="1" as="geometry" />
        </mxCell>
        <mxCell id="UB7z2SPtO77Pdfwkvhxr-37" value="Задержка 2 секунды" style="rounded=0;whiteSpace=wrap;html=1;" parent="1" vertex="1">
          <mxGeometry x="604" y="350" width="120" height="60" as="geometry" />
        </mxCell>
        <mxCell id="UB7z2SPtO77Pdfwkvhxr-78" style="edgeStyle=orthogonalEdgeStyle;rounded=0;orthogonalLoop=1;jettySize=auto;html=1;exitX=0.5;exitY=1;exitDx=0;exitDy=0;" parent="1" source="UB7z2SPtO77Pdfwkvhxr-39" target="UB7z2SPtO77Pdfwkvhxr-77" edge="1">
          <mxGeometry relative="1" as="geometry" />
        </mxCell>
        <mxCell id="UB7z2SPtO77Pdfwkvhxr-39" value="Скрыть отображение сообщения на экране" style="rounded=0;whiteSpace=wrap;html=1;" parent="1" vertex="1">
          <mxGeometry x="604" y="510" width="120" height="60" as="geometry" />
        </mxCell>
        <mxCell id="UB7z2SPtO77Pdfwkvhxr-44" style="edgeStyle=orthogonalEdgeStyle;rounded=0;orthogonalLoop=1;jettySize=auto;html=1;exitX=0.5;exitY=1;exitDx=0;exitDy=0;" parent="1" source="UB7z2SPtO77Pdfwkvhxr-41" target="UB7z2SPtO77Pdfwkvhxr-39" edge="1">
          <mxGeometry relative="1" as="geometry" />
        </mxCell>
        <mxCell id="UB7z2SPtO77Pdfwkvhxr-41" value="Получить ссылку на объекты класса Hud" style="rounded=0;whiteSpace=wrap;html=1;" parent="1" vertex="1">
          <mxGeometry x="604" y="430" width="120" height="60" as="geometry" />
        </mxCell>
        <mxCell id="UB7z2SPtO77Pdfwkvhxr-48" style="edgeStyle=orthogonalEdgeStyle;rounded=0;orthogonalLoop=1;jettySize=auto;html=1;exitX=0.5;exitY=1;exitDx=0;exitDy=0;" parent="1" source="UB7z2SPtO77Pdfwkvhxr-45" target="UB7z2SPtO77Pdfwkvhxr-47" edge="1">
          <mxGeometry relative="1" as="geometry" />
        </mxCell>
        <mxCell id="UB7z2SPtO77Pdfwkvhxr-45" value="Получить ссылку на объект класса UVLightBP" style="rounded=0;whiteSpace=wrap;html=1;" parent="1" vertex="1">
          <mxGeometry x="884" y="340" width="120" height="60" as="geometry" />
        </mxCell>
        <mxCell id="UB7z2SPtO77Pdfwkvhxr-50" value="да" style="edgeStyle=orthogonalEdgeStyle;rounded=0;orthogonalLoop=1;jettySize=auto;html=1;exitX=0;exitY=0.5;exitDx=0;exitDy=0;" parent="1" source="UB7z2SPtO77Pdfwkvhxr-47" target="UB7z2SPtO77Pdfwkvhxr-49" edge="1">
          <mxGeometry x="0.1111" y="-10" relative="1" as="geometry">
            <mxPoint as="offset" />
          </mxGeometry>
        </mxCell>
        <mxCell id="UB7z2SPtO77Pdfwkvhxr-52" value="нет" style="edgeStyle=orthogonalEdgeStyle;rounded=0;orthogonalLoop=1;jettySize=auto;html=1;exitX=1;exitY=0.5;exitDx=0;exitDy=0;entryX=0.5;entryY=0;entryDx=0;entryDy=0;" parent="1" source="UB7z2SPtO77Pdfwkvhxr-47" target="UB7z2SPtO77Pdfwkvhxr-51" edge="1">
          <mxGeometry x="0.1111" y="10" relative="1" as="geometry">
            <mxPoint as="offset" />
          </mxGeometry>
        </mxCell>
        <mxCell id="UB7z2SPtO77Pdfwkvhxr-47" value="Включена ли &lt;br&gt;УФ-лампа?" style="rhombus;whiteSpace=wrap;html=1;" parent="1" vertex="1">
          <mxGeometry x="884" y="420" width="120" height="60" as="geometry" />
        </mxCell>
        <mxCell id="UB7z2SPtO77Pdfwkvhxr-55" style="edgeStyle=orthogonalEdgeStyle;rounded=0;orthogonalLoop=1;jettySize=auto;html=1;exitX=0.5;exitY=1;exitDx=0;exitDy=0;" parent="1" source="UB7z2SPtO77Pdfwkvhxr-49" target="UB7z2SPtO77Pdfwkvhxr-53" edge="1">
          <mxGeometry relative="1" as="geometry" />
        </mxCell>
        <mxCell id="UB7z2SPtO77Pdfwkvhxr-49" value="Установить булеву переменную isOn в состояние False" style="rounded=0;whiteSpace=wrap;html=1;" parent="1" vertex="1">
          <mxGeometry x="764" y="480" width="120" height="60" as="geometry" />
        </mxCell>
        <mxCell id="UB7z2SPtO77Pdfwkvhxr-56" style="edgeStyle=orthogonalEdgeStyle;rounded=0;orthogonalLoop=1;jettySize=auto;html=1;exitX=0.5;exitY=1;exitDx=0;exitDy=0;" parent="1" source="UB7z2SPtO77Pdfwkvhxr-51" target="UB7z2SPtO77Pdfwkvhxr-54" edge="1">
          <mxGeometry relative="1" as="geometry" />
        </mxCell>
        <mxCell id="UB7z2SPtO77Pdfwkvhxr-51" value="Установить булеву переменную isOn в состояние True" style="rounded=0;whiteSpace=wrap;html=1;" parent="1" vertex="1">
          <mxGeometry x="1064" y="480" width="120" height="60" as="geometry" />
        </mxCell>
        <mxCell id="UB7z2SPtO77Pdfwkvhxr-66" style="edgeStyle=orthogonalEdgeStyle;rounded=0;orthogonalLoop=1;jettySize=auto;html=1;exitX=0.5;exitY=1;exitDx=0;exitDy=0;" parent="1" source="UB7z2SPtO77Pdfwkvhxr-53" target="UB7z2SPtO77Pdfwkvhxr-58" edge="1">
          <mxGeometry relative="1" as="geometry" />
        </mxCell>
        <mxCell id="UB7z2SPtO77Pdfwkvhxr-53" value="Вызвать событие turnOffUVLamp" style="rounded=0;whiteSpace=wrap;html=1;" parent="1" vertex="1">
          <mxGeometry x="764" y="560" width="120" height="60" as="geometry" />
        </mxCell>
        <mxCell id="UB7z2SPtO77Pdfwkvhxr-76" style="edgeStyle=orthogonalEdgeStyle;rounded=0;orthogonalLoop=1;jettySize=auto;html=1;exitX=0.5;exitY=1;exitDx=0;exitDy=0;" parent="1" source="UB7z2SPtO77Pdfwkvhxr-54" target="UB7z2SPtO77Pdfwkvhxr-68" edge="1">
          <mxGeometry relative="1" as="geometry" />
        </mxCell>
        <mxCell id="UB7z2SPtO77Pdfwkvhxr-54" value="Вызвать событие turnOnUVLamp" style="rounded=0;whiteSpace=wrap;html=1;" parent="1" vertex="1">
          <mxGeometry x="1064" y="560" width="120" height="60" as="geometry" />
        </mxCell>
        <mxCell id="UB7z2SPtO77Pdfwkvhxr-57" style="edgeStyle=orthogonalEdgeStyle;rounded=0;orthogonalLoop=1;jettySize=auto;html=1;exitX=0.5;exitY=1;exitDx=0;exitDy=0;" parent="1" source="UB7z2SPtO77Pdfwkvhxr-58" target="UB7z2SPtO77Pdfwkvhxr-60" edge="1">
          <mxGeometry relative="1" as="geometry">
            <Array as="points">
              <mxPoint x="824" y="720" />
              <mxPoint x="904" y="720" />
              <mxPoint x="904" y="536" />
            </Array>
          </mxGeometry>
        </mxCell>
        <mxCell id="UB7z2SPtO77Pdfwkvhxr-58" value="Получить ссылку на объекты класса Hud" style="rounded=0;whiteSpace=wrap;html=1;" parent="1" vertex="1">
          <mxGeometry x="764" y="640" width="120" height="60" as="geometry" />
        </mxCell>
        <mxCell id="UB7z2SPtO77Pdfwkvhxr-59" style="edgeStyle=orthogonalEdgeStyle;rounded=0;orthogonalLoop=1;jettySize=auto;html=1;exitX=0.5;exitY=1;exitDx=0;exitDy=0;" parent="1" source="UB7z2SPtO77Pdfwkvhxr-60" target="UB7z2SPtO77Pdfwkvhxr-62" edge="1">
          <mxGeometry relative="1" as="geometry" />
        </mxCell>
        <mxCell id="UB7z2SPtO77Pdfwkvhxr-60" value="Отобразить сообщение&lt;br&gt;&amp;nbsp;&quot;УФ-лампа выключена&quot;" style="rounded=0;whiteSpace=wrap;html=1;" parent="1" vertex="1">
          <mxGeometry x="924" y="490" width="120" height="100" as="geometry" />
        </mxCell>
        <mxCell id="UB7z2SPtO77Pdfwkvhxr-61" style="edgeStyle=orthogonalEdgeStyle;rounded=0;orthogonalLoop=1;jettySize=auto;html=1;exitX=0.5;exitY=1;exitDx=0;exitDy=0;" parent="1" source="UB7z2SPtO77Pdfwkvhxr-62" target="UB7z2SPtO77Pdfwkvhxr-65" edge="1">
          <mxGeometry relative="1" as="geometry" />
        </mxCell>
        <mxCell id="UB7z2SPtO77Pdfwkvhxr-62" value="Задержка 2 секунды" style="rounded=0;whiteSpace=wrap;html=1;" parent="1" vertex="1">
          <mxGeometry x="924" y="610" width="120" height="60" as="geometry" />
        </mxCell>
        <mxCell id="UB7z2SPtO77Pdfwkvhxr-82" style="edgeStyle=orthogonalEdgeStyle;rounded=0;orthogonalLoop=1;jettySize=auto;html=1;exitX=0.5;exitY=1;exitDx=0;exitDy=0;" parent="1" source="UB7z2SPtO77Pdfwkvhxr-63" target="UB7z2SPtO77Pdfwkvhxr-80" edge="1">
          <mxGeometry relative="1" as="geometry" />
        </mxCell>
        <mxCell id="UB7z2SPtO77Pdfwkvhxr-63" value="Скрыть отображение сообщения на экране" style="rounded=0;whiteSpace=wrap;html=1;" parent="1" vertex="1">
          <mxGeometry x="924" y="770" width="120" height="60" as="geometry" />
        </mxCell>
        <mxCell id="UB7z2SPtO77Pdfwkvhxr-64" style="edgeStyle=orthogonalEdgeStyle;rounded=0;orthogonalLoop=1;jettySize=auto;html=1;exitX=0.5;exitY=1;exitDx=0;exitDy=0;" parent="1" source="UB7z2SPtO77Pdfwkvhxr-65" target="UB7z2SPtO77Pdfwkvhxr-63" edge="1">
          <mxGeometry relative="1" as="geometry" />
        </mxCell>
        <mxCell id="UB7z2SPtO77Pdfwkvhxr-65" value="Получить ссылку на объекты класса Hud" style="rounded=0;whiteSpace=wrap;html=1;" parent="1" vertex="1">
          <mxGeometry x="924" y="690" width="120" height="60" as="geometry" />
        </mxCell>
        <mxCell id="UB7z2SPtO77Pdfwkvhxr-67" style="edgeStyle=orthogonalEdgeStyle;rounded=0;orthogonalLoop=1;jettySize=auto;html=1;exitX=0.5;exitY=1;exitDx=0;exitDy=0;" parent="1" source="UB7z2SPtO77Pdfwkvhxr-68" target="UB7z2SPtO77Pdfwkvhxr-70" edge="1">
          <mxGeometry relative="1" as="geometry">
            <Array as="points">
              <mxPoint x="1124" y="720" />
              <mxPoint x="1204" y="720" />
              <mxPoint x="1204" y="550" />
            </Array>
          </mxGeometry>
        </mxCell>
        <mxCell id="UB7z2SPtO77Pdfwkvhxr-68" value="Получить ссылку на объекты класса Hud" style="rounded=0;whiteSpace=wrap;html=1;" parent="1" vertex="1">
          <mxGeometry x="1064" y="640" width="120" height="60" as="geometry" />
        </mxCell>
        <mxCell id="UB7z2SPtO77Pdfwkvhxr-69" style="edgeStyle=orthogonalEdgeStyle;rounded=0;orthogonalLoop=1;jettySize=auto;html=1;exitX=0.5;exitY=1;exitDx=0;exitDy=0;" parent="1" source="UB7z2SPtO77Pdfwkvhxr-70" target="UB7z2SPtO77Pdfwkvhxr-72" edge="1">
          <mxGeometry relative="1" as="geometry" />
        </mxCell>
        <mxCell id="UB7z2SPtO77Pdfwkvhxr-70" value="Отобразить сообщение&lt;br&gt;&amp;nbsp;&quot;УФ-лампа включена&quot;" style="rounded=0;whiteSpace=wrap;html=1;" parent="1" vertex="1">
          <mxGeometry x="1224" y="490" width="120" height="100" as="geometry" />
        </mxCell>
        <mxCell id="UB7z2SPtO77Pdfwkvhxr-71" style="edgeStyle=orthogonalEdgeStyle;rounded=0;orthogonalLoop=1;jettySize=auto;html=1;exitX=0.5;exitY=1;exitDx=0;exitDy=0;" parent="1" source="UB7z2SPtO77Pdfwkvhxr-72" target="UB7z2SPtO77Pdfwkvhxr-75" edge="1">
          <mxGeometry relative="1" as="geometry" />
        </mxCell>
        <mxCell id="UB7z2SPtO77Pdfwkvhxr-72" value="Задержка 2 секунды" style="rounded=0;whiteSpace=wrap;html=1;" parent="1" vertex="1">
          <mxGeometry x="1224" y="610" width="120" height="60" as="geometry" />
        </mxCell>
        <mxCell id="UB7z2SPtO77Pdfwkvhxr-84" style="edgeStyle=orthogonalEdgeStyle;rounded=0;orthogonalLoop=1;jettySize=auto;html=1;exitX=0.5;exitY=1;exitDx=0;exitDy=0;" parent="1" source="UB7z2SPtO77Pdfwkvhxr-73" target="UB7z2SPtO77Pdfwkvhxr-80" edge="1">
          <mxGeometry relative="1" as="geometry" />
        </mxCell>
        <mxCell id="UB7z2SPtO77Pdfwkvhxr-73" value="Скрыть отображение сообщения на экране" style="rounded=0;whiteSpace=wrap;html=1;" parent="1" vertex="1">
          <mxGeometry x="1224" y="770" width="120" height="60" as="geometry" />
        </mxCell>
        <mxCell id="UB7z2SPtO77Pdfwkvhxr-74" style="edgeStyle=orthogonalEdgeStyle;rounded=0;orthogonalLoop=1;jettySize=auto;html=1;exitX=0.5;exitY=1;exitDx=0;exitDy=0;" parent="1" source="UB7z2SPtO77Pdfwkvhxr-75" target="UB7z2SPtO77Pdfwkvhxr-73" edge="1">
          <mxGeometry relative="1" as="geometry" />
        </mxCell>
        <mxCell id="UB7z2SPtO77Pdfwkvhxr-75" value="Получить ссылку на объекты класса Hud" style="rounded=0;whiteSpace=wrap;html=1;" parent="1" vertex="1">
          <mxGeometry x="1224" y="690" width="120" height="60" as="geometry" />
        </mxCell>
        <mxCell id="UB7z2SPtO77Pdfwkvhxr-77" value="Конец" style="strokeWidth=2;html=1;shape=mxgraph.flowchart.terminator;whiteSpace=wrap;" parent="1" vertex="1">
          <mxGeometry x="604" y="590" width="120" height="60" as="geometry" />
        </mxCell>
        <mxCell id="UB7z2SPtO77Pdfwkvhxr-80" value="Конец" style="strokeWidth=2;html=1;shape=mxgraph.flowchart.terminator;whiteSpace=wrap;" parent="1" vertex="1">
          <mxGeometry x="1064" y="870" width="120" height="60" as="geometry" />
        </mxCell>
        <mxCell id="UB7z2SPtO77Pdfwkvhxr-87" style="edgeStyle=orthogonalEdgeStyle;rounded=0;orthogonalLoop=1;jettySize=auto;html=1;exitX=0.5;exitY=1;exitDx=0;exitDy=0;exitPerimeter=0;" parent="1" source="UB7z2SPtO77Pdfwkvhxr-85" target="UB7z2SPtO77Pdfwkvhxr-86" edge="1">
          <mxGeometry relative="1" as="geometry" />
        </mxCell>
        <mxCell id="UB7z2SPtO77Pdfwkvhxr-85" value="Начало" style="strokeWidth=2;html=1;shape=mxgraph.flowchart.terminator;whiteSpace=wrap;" parent="1" vertex="1">
          <mxGeometry x="30" y="450" width="120" height="60" as="geometry" />
        </mxCell>
        <mxCell id="UB7z2SPtO77Pdfwkvhxr-94" style="edgeStyle=orthogonalEdgeStyle;rounded=0;orthogonalLoop=1;jettySize=auto;html=1;exitX=0.5;exitY=1;exitDx=0;exitDy=0;entryX=0.5;entryY=0;entryDx=0;entryDy=0;" parent="1" source="UB7z2SPtO77Pdfwkvhxr-86" target="UB7z2SPtO77Pdfwkvhxr-92" edge="1">
          <mxGeometry relative="1" as="geometry" />
        </mxCell>
        <mxCell id="UB7z2SPtO77Pdfwkvhxr-86" value="Вызвано событие Monometr-troggered" style="shape=process;whiteSpace=wrap;html=1;backgroundOutline=1;" parent="1" vertex="1">
          <mxGeometry x="30" y="530" width="120" height="60" as="geometry" />
        </mxCell>
        <mxCell id="UB7z2SPtO77Pdfwkvhxr-96" style="edgeStyle=orthogonalEdgeStyle;rounded=0;orthogonalLoop=1;jettySize=auto;html=1;exitX=0.5;exitY=1;exitDx=0;exitDy=0;" parent="1" source="UB7z2SPtO77Pdfwkvhxr-88" target="UB7z2SPtO77Pdfwkvhxr-90" edge="1">
          <mxGeometry relative="1" as="geometry" />
        </mxCell>
        <mxCell id="UB7z2SPtO77Pdfwkvhxr-88" value="Изменять переменную Arrow Rotation по графику кривой" style="rounded=0;whiteSpace=wrap;html=1;" parent="1" vertex="1">
          <mxGeometry x="30" y="690" width="120" height="60" as="geometry" />
        </mxCell>
        <mxCell id="UB7z2SPtO77Pdfwkvhxr-97" style="edgeStyle=orthogonalEdgeStyle;rounded=0;orthogonalLoop=1;jettySize=auto;html=1;exitX=0.5;exitY=1;exitDx=0;exitDy=0;" parent="1" source="UB7z2SPtO77Pdfwkvhxr-90" target="UB7z2SPtO77Pdfwkvhxr-93" edge="1">
          <mxGeometry relative="1" as="geometry" />
        </mxCell>
        <mxCell id="UB7z2SPtO77Pdfwkvhxr-90" value="Установить относительное вращение компонента Monometr Arrow SM переменной Arrow Rotation" style="rounded=0;whiteSpace=wrap;html=1;" parent="1" vertex="1">
          <mxGeometry x="30" y="770" width="120" height="100" as="geometry" />
        </mxCell>
        <mxCell id="UB7z2SPtO77Pdfwkvhxr-95" style="edgeStyle=orthogonalEdgeStyle;rounded=0;orthogonalLoop=1;jettySize=auto;html=1;exitX=0.5;exitY=1;exitDx=0;exitDy=0;" parent="1" source="UB7z2SPtO77Pdfwkvhxr-92" target="UB7z2SPtO77Pdfwkvhxr-88" edge="1">
          <mxGeometry relative="1" as="geometry" />
        </mxCell>
        <mxCell id="UB7z2SPtO77Pdfwkvhxr-92" value="Пока не будет вызвано событие Monometr-stop" style="shape=loopLimit;whiteSpace=wrap;html=1;" parent="1" vertex="1">
          <mxGeometry x="30" y="610" width="120" height="60" as="geometry" />
        </mxCell>
        <mxCell id="UB7z2SPtO77Pdfwkvhxr-101" style="edgeStyle=orthogonalEdgeStyle;rounded=0;orthogonalLoop=1;jettySize=auto;html=1;exitX=0.5;exitY=0;exitDx=0;exitDy=0;" parent="1" source="UB7z2SPtO77Pdfwkvhxr-93" target="UB7z2SPtO77Pdfwkvhxr-99" edge="1">
          <mxGeometry relative="1" as="geometry" />
        </mxCell>
        <mxCell id="UB7z2SPtO77Pdfwkvhxr-93" value="" style="shape=loopLimit;whiteSpace=wrap;html=1;rotation=-180;" parent="1" vertex="1">
          <mxGeometry x="30" y="890" width="120" height="60" as="geometry" />
        </mxCell>
        <mxCell id="UB7z2SPtO77Pdfwkvhxr-98" value="Вызвано событие &lt;br&gt;Monometr-stop" style="text;html=1;align=center;verticalAlign=middle;resizable=0;points=[];autosize=1;strokeColor=none;fillColor=none;" parent="1" vertex="1">
          <mxGeometry x="30" y="900" width="120" height="40" as="geometry" />
        </mxCell>
        <mxCell id="UB7z2SPtO77Pdfwkvhxr-99" value="Конец" style="strokeWidth=2;html=1;shape=mxgraph.flowchart.terminator;whiteSpace=wrap;" parent="1" vertex="1">
          <mxGeometry x="30" y="970" width="120" height="60" as="geometry" />
        </mxCell>
        <mxCell id="UB7z2SPtO77Pdfwkvhxr-104" style="edgeStyle=orthogonalEdgeStyle;rounded=0;orthogonalLoop=1;jettySize=auto;html=1;exitX=0.5;exitY=1;exitDx=0;exitDy=0;exitPerimeter=0;" parent="1" source="UB7z2SPtO77Pdfwkvhxr-102" target="UB7z2SPtO77Pdfwkvhxr-103" edge="1">
          <mxGeometry relative="1" as="geometry" />
        </mxCell>
        <mxCell id="UB7z2SPtO77Pdfwkvhxr-102" value="Начало" style="strokeWidth=2;html=1;shape=mxgraph.flowchart.terminator;whiteSpace=wrap;" parent="1" vertex="1">
          <mxGeometry x="230" y="450" width="120" height="60" as="geometry" />
        </mxCell>
        <mxCell id="UB7z2SPtO77Pdfwkvhxr-106" style="edgeStyle=orthogonalEdgeStyle;rounded=0;orthogonalLoop=1;jettySize=auto;html=1;exitX=0.5;exitY=1;exitDx=0;exitDy=0;" parent="1" source="UB7z2SPtO77Pdfwkvhxr-103" target="UB7z2SPtO77Pdfwkvhxr-105" edge="1">
          <mxGeometry relative="1" as="geometry" />
        </mxCell>
        <mxCell id="UB7z2SPtO77Pdfwkvhxr-103" value="Вызвано событие Monometr-onClosedDoor" style="shape=process;whiteSpace=wrap;html=1;backgroundOutline=1;" parent="1" vertex="1">
          <mxGeometry x="230" y="530" width="120" height="60" as="geometry" />
        </mxCell>
        <mxCell id="UB7z2SPtO77Pdfwkvhxr-108" style="edgeStyle=orthogonalEdgeStyle;rounded=0;orthogonalLoop=1;jettySize=auto;html=1;exitX=0.5;exitY=1;exitDx=0;exitDy=0;" parent="1" source="UB7z2SPtO77Pdfwkvhxr-105" target="UB7z2SPtO77Pdfwkvhxr-107" edge="1">
          <mxGeometry relative="1" as="geometry" />
        </mxCell>
        <mxCell id="UB7z2SPtO77Pdfwkvhxr-105" value="Пока не закончится график кривой" style="shape=loopLimit;whiteSpace=wrap;html=1;" parent="1" vertex="1">
          <mxGeometry x="230" y="610" width="120" height="60" as="geometry" />
        </mxCell>
        <mxCell id="UB7z2SPtO77Pdfwkvhxr-110" style="edgeStyle=orthogonalEdgeStyle;rounded=0;orthogonalLoop=1;jettySize=auto;html=1;exitX=0.5;exitY=1;exitDx=0;exitDy=0;" parent="1" source="UB7z2SPtO77Pdfwkvhxr-107" target="UB7z2SPtO77Pdfwkvhxr-109" edge="1">
          <mxGeometry relative="1" as="geometry" />
        </mxCell>
        <mxCell id="UB7z2SPtO77Pdfwkvhxr-107" value="Изменять переменную Arrow Rotation по графику кривой" style="rounded=0;whiteSpace=wrap;html=1;" parent="1" vertex="1">
          <mxGeometry x="230" y="690" width="120" height="60" as="geometry" />
        </mxCell>
        <mxCell id="UB7z2SPtO77Pdfwkvhxr-112" style="edgeStyle=orthogonalEdgeStyle;rounded=0;orthogonalLoop=1;jettySize=auto;html=1;exitX=0.5;exitY=1;exitDx=0;exitDy=0;" parent="1" source="UB7z2SPtO77Pdfwkvhxr-109" target="UB7z2SPtO77Pdfwkvhxr-111" edge="1">
          <mxGeometry relative="1" as="geometry" />
        </mxCell>
        <mxCell id="UB7z2SPtO77Pdfwkvhxr-109" value="Установить относительное вращение компонента Monometr Arrow SM переменной Arrow Rotation" style="rounded=0;whiteSpace=wrap;html=1;" parent="1" vertex="1">
          <mxGeometry x="230" y="770" width="120" height="100" as="geometry" />
        </mxCell>
        <mxCell id="UB7z2SPtO77Pdfwkvhxr-114" style="edgeStyle=orthogonalEdgeStyle;rounded=0;orthogonalLoop=1;jettySize=auto;html=1;exitX=0.5;exitY=0;exitDx=0;exitDy=0;" parent="1" source="UB7z2SPtO77Pdfwkvhxr-111" target="UB7z2SPtO77Pdfwkvhxr-113" edge="1">
          <mxGeometry relative="1" as="geometry" />
        </mxCell>
        <mxCell id="UB7z2SPtO77Pdfwkvhxr-111" value="" style="shape=loopLimit;whiteSpace=wrap;html=1;rotation=-180;" parent="1" vertex="1">
          <mxGeometry x="230" y="890" width="120" height="60" as="geometry" />
        </mxCell>
        <mxCell id="UB7z2SPtO77Pdfwkvhxr-113" value="Конец" style="strokeWidth=2;html=1;shape=mxgraph.flowchart.terminator;whiteSpace=wrap;" parent="1" vertex="1">
          <mxGeometry x="230" y="970" width="120" height="60" as="geometry" />
        </mxCell>
        <mxCell id="OJ1lECs8hUQre6vc5IYj-3" style="edgeStyle=orthogonalEdgeStyle;rounded=0;orthogonalLoop=1;jettySize=auto;html=1;exitX=0.5;exitY=1;exitDx=0;exitDy=0;exitPerimeter=0;" edge="1" parent="1" source="OJ1lECs8hUQre6vc5IYj-1" target="OJ1lECs8hUQre6vc5IYj-2">
          <mxGeometry relative="1" as="geometry" />
        </mxCell>
        <mxCell id="OJ1lECs8hUQre6vc5IYj-1" value="Начало" style="strokeWidth=2;html=1;shape=mxgraph.flowchart.terminator;whiteSpace=wrap;" vertex="1" parent="1">
          <mxGeometry x="1571" y="1084" width="120" height="60" as="geometry" />
        </mxCell>
        <mxCell id="OJ1lECs8hUQre6vc5IYj-5" style="edgeStyle=orthogonalEdgeStyle;rounded=0;orthogonalLoop=1;jettySize=auto;html=1;exitX=0.5;exitY=1;exitDx=0;exitDy=0;" edge="1" parent="1" source="OJ1lECs8hUQre6vc5IYj-2" target="OJ1lECs8hUQre6vc5IYj-4">
          <mxGeometry relative="1" as="geometry" />
        </mxCell>
        <mxCell id="OJ1lECs8hUQre6vc5IYj-2" value="Вызвано событие Event Interact" style="shape=process;whiteSpace=wrap;html=1;backgroundOutline=1;" vertex="1" parent="1">
          <mxGeometry x="1571" y="1164" width="120" height="60" as="geometry" />
        </mxCell>
        <mxCell id="OJ1lECs8hUQre6vc5IYj-7" style="edgeStyle=orthogonalEdgeStyle;rounded=0;orthogonalLoop=1;jettySize=auto;html=1;exitX=0.5;exitY=1;exitDx=0;exitDy=0;entryX=0.5;entryY=0;entryDx=0;entryDy=0;" edge="1" parent="1" source="OJ1lECs8hUQre6vc5IYj-4" target="OJ1lECs8hUQre6vc5IYj-6">
          <mxGeometry relative="1" as="geometry" />
        </mxCell>
        <mxCell id="OJ1lECs8hUQre6vc5IYj-4" value="Получить ссылку на объект класса DoorScript" style="rounded=0;whiteSpace=wrap;html=1;" vertex="1" parent="1">
          <mxGeometry x="1571" y="1244" width="120" height="60" as="geometry" />
        </mxCell>
        <mxCell id="OJ1lECs8hUQre6vc5IYj-9" value="да" style="edgeStyle=orthogonalEdgeStyle;rounded=0;orthogonalLoop=1;jettySize=auto;html=1;exitX=0;exitY=0.5;exitDx=0;exitDy=0;entryX=0.5;entryY=0;entryDx=0;entryDy=0;" edge="1" parent="1" source="OJ1lECs8hUQre6vc5IYj-6" target="OJ1lECs8hUQre6vc5IYj-11">
          <mxGeometry x="-0.0222" y="-10" relative="1" as="geometry">
            <mxPoint x="1511" y="1384" as="targetPoint" />
            <mxPoint as="offset" />
          </mxGeometry>
        </mxCell>
        <mxCell id="OJ1lECs8hUQre6vc5IYj-22" value="нет" style="edgeStyle=orthogonalEdgeStyle;rounded=0;orthogonalLoop=1;jettySize=auto;html=1;exitX=1;exitY=0.5;exitDx=0;exitDy=0;" edge="1" parent="1" source="OJ1lECs8hUQre6vc5IYj-6" target="OJ1lECs8hUQre6vc5IYj-21">
          <mxGeometry x="-0.1628" y="10" relative="1" as="geometry">
            <mxPoint as="offset" />
          </mxGeometry>
        </mxCell>
        <mxCell id="OJ1lECs8hUQre6vc5IYj-6" value="Открыта ли первая дверь?" style="rhombus;whiteSpace=wrap;html=1;" vertex="1" parent="1">
          <mxGeometry x="1571" y="1324" width="120" height="60" as="geometry" />
        </mxCell>
        <mxCell id="OJ1lECs8hUQre6vc5IYj-10" style="edgeStyle=orthogonalEdgeStyle;rounded=0;orthogonalLoop=1;jettySize=auto;html=1;exitX=0.5;exitY=1;exitDx=0;exitDy=0;" edge="1" parent="1" source="OJ1lECs8hUQre6vc5IYj-11" target="OJ1lECs8hUQre6vc5IYj-13">
          <mxGeometry relative="1" as="geometry" />
        </mxCell>
        <mxCell id="OJ1lECs8hUQre6vc5IYj-11" value="Получить ссылку на объекты класса Hud" style="rounded=0;whiteSpace=wrap;html=1;" vertex="1" parent="1">
          <mxGeometry x="1401" y="1384" width="120" height="60" as="geometry" />
        </mxCell>
        <mxCell id="OJ1lECs8hUQre6vc5IYj-12" style="edgeStyle=orthogonalEdgeStyle;rounded=0;orthogonalLoop=1;jettySize=auto;html=1;exitX=0.5;exitY=1;exitDx=0;exitDy=0;" edge="1" parent="1" source="OJ1lECs8hUQre6vc5IYj-13" target="OJ1lECs8hUQre6vc5IYj-15">
          <mxGeometry relative="1" as="geometry">
            <Array as="points">
              <mxPoint x="1461" y="1594" />
              <mxPoint x="1541" y="1594" />
              <mxPoint x="1541" y="1434" />
            </Array>
          </mxGeometry>
        </mxCell>
        <mxCell id="OJ1lECs8hUQre6vc5IYj-13" value="Отобразить сообщение &quot;Закройте первую дверь&quot;" style="rounded=0;whiteSpace=wrap;html=1;" vertex="1" parent="1">
          <mxGeometry x="1401" y="1464" width="120" height="100" as="geometry" />
        </mxCell>
        <mxCell id="OJ1lECs8hUQre6vc5IYj-14" style="edgeStyle=orthogonalEdgeStyle;rounded=0;orthogonalLoop=1;jettySize=auto;html=1;exitX=0.5;exitY=1;exitDx=0;exitDy=0;" edge="1" parent="1" source="OJ1lECs8hUQre6vc5IYj-15" target="OJ1lECs8hUQre6vc5IYj-19">
          <mxGeometry relative="1" as="geometry" />
        </mxCell>
        <mxCell id="OJ1lECs8hUQre6vc5IYj-15" value="Задержка 2 секунды" style="rounded=0;whiteSpace=wrap;html=1;" vertex="1" parent="1">
          <mxGeometry x="1571" y="1404" width="120" height="60" as="geometry" />
        </mxCell>
        <mxCell id="OJ1lECs8hUQre6vc5IYj-16" style="edgeStyle=orthogonalEdgeStyle;rounded=0;orthogonalLoop=1;jettySize=auto;html=1;exitX=0.5;exitY=1;exitDx=0;exitDy=0;" edge="1" parent="1" source="OJ1lECs8hUQre6vc5IYj-17" target="OJ1lECs8hUQre6vc5IYj-20">
          <mxGeometry relative="1" as="geometry" />
        </mxCell>
        <mxCell id="OJ1lECs8hUQre6vc5IYj-17" value="Скрыть отображение сообщения на экране" style="rounded=0;whiteSpace=wrap;html=1;" vertex="1" parent="1">
          <mxGeometry x="1571" y="1564" width="120" height="60" as="geometry" />
        </mxCell>
        <mxCell id="OJ1lECs8hUQre6vc5IYj-18" style="edgeStyle=orthogonalEdgeStyle;rounded=0;orthogonalLoop=1;jettySize=auto;html=1;exitX=0.5;exitY=1;exitDx=0;exitDy=0;" edge="1" parent="1" source="OJ1lECs8hUQre6vc5IYj-19" target="OJ1lECs8hUQre6vc5IYj-17">
          <mxGeometry relative="1" as="geometry" />
        </mxCell>
        <mxCell id="OJ1lECs8hUQre6vc5IYj-19" value="Получить ссылку на объекты класса Hud" style="rounded=0;whiteSpace=wrap;html=1;" vertex="1" parent="1">
          <mxGeometry x="1571" y="1484" width="120" height="60" as="geometry" />
        </mxCell>
        <mxCell id="OJ1lECs8hUQre6vc5IYj-20" value="Конец" style="strokeWidth=2;html=1;shape=mxgraph.flowchart.terminator;whiteSpace=wrap;" vertex="1" parent="1">
          <mxGeometry x="1571" y="1644" width="120" height="60" as="geometry" />
        </mxCell>
        <mxCell id="OJ1lECs8hUQre6vc5IYj-24" style="edgeStyle=orthogonalEdgeStyle;rounded=0;orthogonalLoop=1;jettySize=auto;html=1;exitX=0.5;exitY=1;exitDx=0;exitDy=0;" edge="1" parent="1" source="OJ1lECs8hUQre6vc5IYj-21" target="OJ1lECs8hUQre6vc5IYj-23">
          <mxGeometry relative="1" as="geometry" />
        </mxCell>
        <mxCell id="OJ1lECs8hUQre6vc5IYj-21" value="Получить ссылку на объект класса DoorScript3" style="rounded=0;whiteSpace=wrap;html=1;" vertex="1" parent="1">
          <mxGeometry x="1891.5" y="1324" width="120" height="60" as="geometry" />
        </mxCell>
        <mxCell id="OJ1lECs8hUQre6vc5IYj-36" value="да" style="edgeStyle=orthogonalEdgeStyle;rounded=0;orthogonalLoop=1;jettySize=auto;html=1;exitX=0;exitY=0.5;exitDx=0;exitDy=0;entryX=0.5;entryY=0;entryDx=0;entryDy=0;" edge="1" parent="1" source="OJ1lECs8hUQre6vc5IYj-23" target="OJ1lECs8hUQre6vc5IYj-26">
          <mxGeometry x="-0.1065" y="-10" relative="1" as="geometry">
            <mxPoint as="offset" />
          </mxGeometry>
        </mxCell>
        <mxCell id="OJ1lECs8hUQre6vc5IYj-38" value="нет" style="edgeStyle=orthogonalEdgeStyle;rounded=0;orthogonalLoop=1;jettySize=auto;html=1;exitX=1;exitY=0.5;exitDx=0;exitDy=0;" edge="1" parent="1" source="OJ1lECs8hUQre6vc5IYj-23" target="OJ1lECs8hUQre6vc5IYj-37">
          <mxGeometry x="-0.5888" y="12" relative="1" as="geometry">
            <mxPoint as="offset" />
          </mxGeometry>
        </mxCell>
        <mxCell id="OJ1lECs8hUQre6vc5IYj-23" value="Открыта ли третья дверь?" style="rhombus;whiteSpace=wrap;html=1;" vertex="1" parent="1">
          <mxGeometry x="1891.5" y="1404" width="120" height="60" as="geometry" />
        </mxCell>
        <mxCell id="OJ1lECs8hUQre6vc5IYj-25" style="edgeStyle=orthogonalEdgeStyle;rounded=0;orthogonalLoop=1;jettySize=auto;html=1;exitX=0.5;exitY=1;exitDx=0;exitDy=0;" edge="1" parent="1" source="OJ1lECs8hUQre6vc5IYj-26" target="OJ1lECs8hUQre6vc5IYj-28">
          <mxGeometry relative="1" as="geometry" />
        </mxCell>
        <mxCell id="OJ1lECs8hUQre6vc5IYj-26" value="Получить ссылку на объекты класса Hud" style="rounded=0;whiteSpace=wrap;html=1;" vertex="1" parent="1">
          <mxGeometry x="1721.5" y="1464" width="120" height="60" as="geometry" />
        </mxCell>
        <mxCell id="OJ1lECs8hUQre6vc5IYj-189" style="edgeStyle=orthogonalEdgeStyle;rounded=0;orthogonalLoop=1;jettySize=auto;html=1;exitX=0.5;exitY=1;exitDx=0;exitDy=0;" edge="1" parent="1" source="OJ1lECs8hUQre6vc5IYj-28" target="OJ1lECs8hUQre6vc5IYj-30">
          <mxGeometry relative="1" as="geometry" />
        </mxCell>
        <mxCell id="OJ1lECs8hUQre6vc5IYj-28" value="Отобразить сообщение &quot;Закройте третью дверь&quot;" style="rounded=0;whiteSpace=wrap;html=1;" vertex="1" parent="1">
          <mxGeometry x="1721.5" y="1544" width="120" height="100" as="geometry" />
        </mxCell>
        <mxCell id="OJ1lECs8hUQre6vc5IYj-29" style="edgeStyle=orthogonalEdgeStyle;rounded=0;orthogonalLoop=1;jettySize=auto;html=1;exitX=0.5;exitY=1;exitDx=0;exitDy=0;" edge="1" parent="1" source="OJ1lECs8hUQre6vc5IYj-30" target="OJ1lECs8hUQre6vc5IYj-34">
          <mxGeometry relative="1" as="geometry" />
        </mxCell>
        <mxCell id="OJ1lECs8hUQre6vc5IYj-30" value="Задержка 2 секунды" style="rounded=0;whiteSpace=wrap;html=1;" vertex="1" parent="1">
          <mxGeometry x="1891.5" y="1484" width="120" height="60" as="geometry" />
        </mxCell>
        <mxCell id="OJ1lECs8hUQre6vc5IYj-31" style="edgeStyle=orthogonalEdgeStyle;rounded=0;orthogonalLoop=1;jettySize=auto;html=1;exitX=0.5;exitY=1;exitDx=0;exitDy=0;" edge="1" parent="1" source="OJ1lECs8hUQre6vc5IYj-32" target="OJ1lECs8hUQre6vc5IYj-35">
          <mxGeometry relative="1" as="geometry" />
        </mxCell>
        <mxCell id="OJ1lECs8hUQre6vc5IYj-32" value="Скрыть отображение сообщения на экране" style="rounded=0;whiteSpace=wrap;html=1;" vertex="1" parent="1">
          <mxGeometry x="1891.5" y="1644" width="120" height="60" as="geometry" />
        </mxCell>
        <mxCell id="OJ1lECs8hUQre6vc5IYj-33" style="edgeStyle=orthogonalEdgeStyle;rounded=0;orthogonalLoop=1;jettySize=auto;html=1;exitX=0.5;exitY=1;exitDx=0;exitDy=0;" edge="1" parent="1" source="OJ1lECs8hUQre6vc5IYj-34" target="OJ1lECs8hUQre6vc5IYj-32">
          <mxGeometry relative="1" as="geometry" />
        </mxCell>
        <mxCell id="OJ1lECs8hUQre6vc5IYj-34" value="Получить ссылку на объекты класса Hud" style="rounded=0;whiteSpace=wrap;html=1;" vertex="1" parent="1">
          <mxGeometry x="1891.5" y="1564" width="120" height="60" as="geometry" />
        </mxCell>
        <mxCell id="OJ1lECs8hUQre6vc5IYj-35" value="Конец" style="strokeWidth=2;html=1;shape=mxgraph.flowchart.terminator;whiteSpace=wrap;" vertex="1" parent="1">
          <mxGeometry x="1891.5" y="1724" width="120" height="60" as="geometry" />
        </mxCell>
        <mxCell id="OJ1lECs8hUQre6vc5IYj-40" style="edgeStyle=orthogonalEdgeStyle;rounded=0;orthogonalLoop=1;jettySize=auto;html=1;exitX=0.5;exitY=1;exitDx=0;exitDy=0;" edge="1" parent="1" source="OJ1lECs8hUQre6vc5IYj-37" target="OJ1lECs8hUQre6vc5IYj-39">
          <mxGeometry relative="1" as="geometry" />
        </mxCell>
        <mxCell id="OJ1lECs8hUQre6vc5IYj-37" value="Получить ссылку на объект класса WallSwitchBP" style="rounded=0;whiteSpace=wrap;html=1;" vertex="1" parent="1">
          <mxGeometry x="2208.5" y="1404" width="120" height="60" as="geometry" />
        </mxCell>
        <mxCell id="OJ1lECs8hUQre6vc5IYj-52" value="да" style="edgeStyle=orthogonalEdgeStyle;rounded=0;orthogonalLoop=1;jettySize=auto;html=1;exitX=0;exitY=0.5;exitDx=0;exitDy=0;entryX=0.5;entryY=0;entryDx=0;entryDy=0;" edge="1" parent="1" source="OJ1lECs8hUQre6vc5IYj-39" target="OJ1lECs8hUQre6vc5IYj-42">
          <mxGeometry x="-0.1429" y="-10" relative="1" as="geometry">
            <mxPoint as="offset" />
          </mxGeometry>
        </mxCell>
        <mxCell id="OJ1lECs8hUQre6vc5IYj-54" value="нет" style="edgeStyle=orthogonalEdgeStyle;rounded=0;orthogonalLoop=1;jettySize=auto;html=1;exitX=1;exitY=0.5;exitDx=0;exitDy=0;entryX=0.5;entryY=0;entryDx=0;entryDy=0;" edge="1" parent="1" source="OJ1lECs8hUQre6vc5IYj-39" target="OJ1lECs8hUQre6vc5IYj-53">
          <mxGeometry x="0.1111" y="10" relative="1" as="geometry">
            <mxPoint as="offset" />
          </mxGeometry>
        </mxCell>
        <mxCell id="OJ1lECs8hUQre6vc5IYj-39" value="Включена ли&amp;nbsp;&lt;br&gt;УФ-лампа?" style="rhombus;whiteSpace=wrap;html=1;" vertex="1" parent="1">
          <mxGeometry x="2208.5" y="1484" width="120" height="60" as="geometry" />
        </mxCell>
        <mxCell id="OJ1lECs8hUQre6vc5IYj-41" style="edgeStyle=orthogonalEdgeStyle;rounded=0;orthogonalLoop=1;jettySize=auto;html=1;exitX=0.5;exitY=1;exitDx=0;exitDy=0;" edge="1" parent="1" source="OJ1lECs8hUQre6vc5IYj-42" target="OJ1lECs8hUQre6vc5IYj-44">
          <mxGeometry relative="1" as="geometry" />
        </mxCell>
        <mxCell id="OJ1lECs8hUQre6vc5IYj-42" value="Получить ссылку на объекты класса Hud" style="rounded=0;whiteSpace=wrap;html=1;" vertex="1" parent="1">
          <mxGeometry x="2038.5" y="1544" width="120" height="60" as="geometry" />
        </mxCell>
        <mxCell id="OJ1lECs8hUQre6vc5IYj-43" style="edgeStyle=orthogonalEdgeStyle;rounded=0;orthogonalLoop=1;jettySize=auto;html=1;exitX=0.5;exitY=1;exitDx=0;exitDy=0;" edge="1" parent="1" source="OJ1lECs8hUQre6vc5IYj-44" target="OJ1lECs8hUQre6vc5IYj-46">
          <mxGeometry relative="1" as="geometry">
            <Array as="points">
              <mxPoint x="2098.5" y="1754" />
              <mxPoint x="2181.5" y="1754" />
              <mxPoint x="2181.5" y="1594" />
            </Array>
          </mxGeometry>
        </mxCell>
        <mxCell id="OJ1lECs8hUQre6vc5IYj-44" value="Отобразить сообщение &quot;Вход в помещение при включенной &lt;br&gt;УФ-лампе запрещен&quot;" style="rounded=0;whiteSpace=wrap;html=1;" vertex="1" parent="1">
          <mxGeometry x="2038.5" y="1624" width="120" height="100" as="geometry" />
        </mxCell>
        <mxCell id="OJ1lECs8hUQre6vc5IYj-45" style="edgeStyle=orthogonalEdgeStyle;rounded=0;orthogonalLoop=1;jettySize=auto;html=1;exitX=0.5;exitY=1;exitDx=0;exitDy=0;" edge="1" parent="1" source="OJ1lECs8hUQre6vc5IYj-46" target="OJ1lECs8hUQre6vc5IYj-50">
          <mxGeometry relative="1" as="geometry" />
        </mxCell>
        <mxCell id="OJ1lECs8hUQre6vc5IYj-46" value="Задержка 2 секунды" style="rounded=0;whiteSpace=wrap;html=1;" vertex="1" parent="1">
          <mxGeometry x="2208.5" y="1564" width="120" height="60" as="geometry" />
        </mxCell>
        <mxCell id="OJ1lECs8hUQre6vc5IYj-47" style="edgeStyle=orthogonalEdgeStyle;rounded=0;orthogonalLoop=1;jettySize=auto;html=1;exitX=0.5;exitY=1;exitDx=0;exitDy=0;" edge="1" parent="1" source="OJ1lECs8hUQre6vc5IYj-48" target="OJ1lECs8hUQre6vc5IYj-51">
          <mxGeometry relative="1" as="geometry" />
        </mxCell>
        <mxCell id="OJ1lECs8hUQre6vc5IYj-48" value="Скрыть отображение сообщения на экране" style="rounded=0;whiteSpace=wrap;html=1;" vertex="1" parent="1">
          <mxGeometry x="2208.5" y="1724" width="120" height="60" as="geometry" />
        </mxCell>
        <mxCell id="OJ1lECs8hUQre6vc5IYj-49" style="edgeStyle=orthogonalEdgeStyle;rounded=0;orthogonalLoop=1;jettySize=auto;html=1;exitX=0.5;exitY=1;exitDx=0;exitDy=0;" edge="1" parent="1" source="OJ1lECs8hUQre6vc5IYj-50" target="OJ1lECs8hUQre6vc5IYj-48">
          <mxGeometry relative="1" as="geometry" />
        </mxCell>
        <mxCell id="OJ1lECs8hUQre6vc5IYj-50" value="Получить ссылку на объекты класса Hud" style="rounded=0;whiteSpace=wrap;html=1;" vertex="1" parent="1">
          <mxGeometry x="2208.5" y="1644" width="120" height="60" as="geometry" />
        </mxCell>
        <mxCell id="OJ1lECs8hUQre6vc5IYj-51" value="Конец" style="strokeWidth=2;html=1;shape=mxgraph.flowchart.terminator;whiteSpace=wrap;" vertex="1" parent="1">
          <mxGeometry x="2208.5" y="1804" width="120" height="60" as="geometry" />
        </mxCell>
        <mxCell id="OJ1lECs8hUQre6vc5IYj-58" value="да" style="edgeStyle=orthogonalEdgeStyle;rounded=0;orthogonalLoop=1;jettySize=auto;html=1;exitX=0;exitY=0.5;exitDx=0;exitDy=0;entryX=0.5;entryY=0;entryDx=0;entryDy=0;" edge="1" parent="1" source="OJ1lECs8hUQre6vc5IYj-53" target="OJ1lECs8hUQre6vc5IYj-57">
          <mxGeometry x="-0.1111" y="-10" relative="1" as="geometry">
            <mxPoint as="offset" />
          </mxGeometry>
        </mxCell>
        <mxCell id="OJ1lECs8hUQre6vc5IYj-78" value="нет" style="edgeStyle=orthogonalEdgeStyle;rounded=0;orthogonalLoop=1;jettySize=auto;html=1;exitX=1;exitY=0.5;exitDx=0;exitDy=0;entryX=0.5;entryY=0;entryDx=0;entryDy=0;" edge="1" parent="1" source="OJ1lECs8hUQre6vc5IYj-53" target="OJ1lECs8hUQre6vc5IYj-77">
          <mxGeometry y="10" relative="1" as="geometry">
            <mxPoint as="offset" />
          </mxGeometry>
        </mxCell>
        <mxCell id="OJ1lECs8hUQre6vc5IYj-53" value="Закрыта ли дверь?" style="rhombus;whiteSpace=wrap;html=1;" vertex="1" parent="1">
          <mxGeometry x="2531" y="1534" width="120" height="60" as="geometry" />
        </mxCell>
        <mxCell id="OJ1lECs8hUQre6vc5IYj-60" style="edgeStyle=orthogonalEdgeStyle;rounded=0;orthogonalLoop=1;jettySize=auto;html=1;exitX=0.5;exitY=1;exitDx=0;exitDy=0;" edge="1" parent="1" source="OJ1lECs8hUQre6vc5IYj-57" target="OJ1lECs8hUQre6vc5IYj-59">
          <mxGeometry relative="1" as="geometry" />
        </mxCell>
        <mxCell id="OJ1lECs8hUQre6vc5IYj-57" value="Получить ссылку на все объекты класса MonometrBP" style="rounded=0;whiteSpace=wrap;html=1;" vertex="1" parent="1">
          <mxGeometry x="2358.5" y="1594" width="120" height="60" as="geometry" />
        </mxCell>
        <mxCell id="OJ1lECs8hUQre6vc5IYj-62" style="edgeStyle=orthogonalEdgeStyle;rounded=0;orthogonalLoop=1;jettySize=auto;html=1;exitX=0.5;exitY=1;exitDx=0;exitDy=0;" edge="1" parent="1" source="OJ1lECs8hUQre6vc5IYj-59" target="OJ1lECs8hUQre6vc5IYj-61">
          <mxGeometry relative="1" as="geometry" />
        </mxCell>
        <mxCell id="OJ1lECs8hUQre6vc5IYj-59" value="Вызвать событие Monometr-troggered" style="rounded=0;whiteSpace=wrap;html=1;" vertex="1" parent="1">
          <mxGeometry x="2358.5" y="1674" width="120" height="60" as="geometry" />
        </mxCell>
        <mxCell id="OJ1lECs8hUQre6vc5IYj-64" style="edgeStyle=orthogonalEdgeStyle;rounded=0;orthogonalLoop=1;jettySize=auto;html=1;exitX=0.5;exitY=1;exitDx=0;exitDy=0;" edge="1" parent="1" source="OJ1lECs8hUQre6vc5IYj-61" target="OJ1lECs8hUQre6vc5IYj-63">
          <mxGeometry relative="1" as="geometry" />
        </mxCell>
        <mxCell id="OJ1lECs8hUQre6vc5IYj-61" value="Проиграть звуковую дорожку door_open_cue" style="rounded=0;whiteSpace=wrap;html=1;" vertex="1" parent="1">
          <mxGeometry x="2358.5" y="1754" width="120" height="60" as="geometry" />
        </mxCell>
        <mxCell id="OJ1lECs8hUQre6vc5IYj-72" style="edgeStyle=orthogonalEdgeStyle;rounded=0;orthogonalLoop=1;jettySize=auto;html=1;exitX=0.5;exitY=1;exitDx=0;exitDy=0;entryX=0;entryY=0.5;entryDx=0;entryDy=0;" edge="1" parent="1" source="OJ1lECs8hUQre6vc5IYj-63" target="OJ1lECs8hUQre6vc5IYj-66">
          <mxGeometry relative="1" as="geometry" />
        </mxCell>
        <mxCell id="OJ1lECs8hUQre6vc5IYj-63" value="Установить тип коллизии двери на &quot;BlockDoors&quot;" style="rounded=0;whiteSpace=wrap;html=1;" vertex="1" parent="1">
          <mxGeometry x="2358.5" y="1834" width="120" height="60" as="geometry" />
        </mxCell>
        <mxCell id="OJ1lECs8hUQre6vc5IYj-65" style="edgeStyle=orthogonalEdgeStyle;rounded=0;orthogonalLoop=1;jettySize=auto;html=1;exitX=0.5;exitY=1;exitDx=0;exitDy=0;" edge="1" parent="1" source="OJ1lECs8hUQre6vc5IYj-66" target="OJ1lECs8hUQre6vc5IYj-68">
          <mxGeometry relative="1" as="geometry" />
        </mxCell>
        <mxCell id="OJ1lECs8hUQre6vc5IYj-66" value="Пока не закончится график кривой" style="shape=loopLimit;whiteSpace=wrap;html=1;" vertex="1" parent="1">
          <mxGeometry x="2531" y="1614" width="120" height="60" as="geometry" />
        </mxCell>
        <mxCell id="OJ1lECs8hUQre6vc5IYj-67" style="edgeStyle=orthogonalEdgeStyle;rounded=0;orthogonalLoop=1;jettySize=auto;html=1;exitX=0.5;exitY=1;exitDx=0;exitDy=0;" edge="1" parent="1" source="OJ1lECs8hUQre6vc5IYj-68" target="OJ1lECs8hUQre6vc5IYj-70">
          <mxGeometry relative="1" as="geometry" />
        </mxCell>
        <mxCell id="OJ1lECs8hUQre6vc5IYj-68" value="Изменять переменную Door Rotation по графику кривой" style="rounded=0;whiteSpace=wrap;html=1;" vertex="1" parent="1">
          <mxGeometry x="2531" y="1694" width="120" height="60" as="geometry" />
        </mxCell>
        <mxCell id="OJ1lECs8hUQre6vc5IYj-69" style="edgeStyle=orthogonalEdgeStyle;rounded=0;orthogonalLoop=1;jettySize=auto;html=1;exitX=0.5;exitY=1;exitDx=0;exitDy=0;" edge="1" parent="1" source="OJ1lECs8hUQre6vc5IYj-70" target="OJ1lECs8hUQre6vc5IYj-71">
          <mxGeometry relative="1" as="geometry" />
        </mxCell>
        <mxCell id="OJ1lECs8hUQre6vc5IYj-70" value="Установить относительное вращение компонента Door переменной Door Rotation" style="rounded=0;whiteSpace=wrap;html=1;" vertex="1" parent="1">
          <mxGeometry x="2531" y="1774" width="120" height="100" as="geometry" />
        </mxCell>
        <mxCell id="OJ1lECs8hUQre6vc5IYj-91" style="edgeStyle=orthogonalEdgeStyle;rounded=0;orthogonalLoop=1;jettySize=auto;html=1;exitX=0.5;exitY=0;exitDx=0;exitDy=0;entryX=0;entryY=0.5;entryDx=0;entryDy=0;" edge="1" parent="1" source="OJ1lECs8hUQre6vc5IYj-71" target="OJ1lECs8hUQre6vc5IYj-89">
          <mxGeometry relative="1" as="geometry" />
        </mxCell>
        <mxCell id="OJ1lECs8hUQre6vc5IYj-71" value="" style="shape=loopLimit;whiteSpace=wrap;html=1;rotation=-180;" vertex="1" parent="1">
          <mxGeometry x="2531" y="1894" width="120" height="60" as="geometry" />
        </mxCell>
        <mxCell id="OJ1lECs8hUQre6vc5IYj-80" style="edgeStyle=orthogonalEdgeStyle;rounded=0;orthogonalLoop=1;jettySize=auto;html=1;exitX=0.5;exitY=1;exitDx=0;exitDy=0;" edge="1" parent="1" source="OJ1lECs8hUQre6vc5IYj-77" target="OJ1lECs8hUQre6vc5IYj-79">
          <mxGeometry relative="1" as="geometry" />
        </mxCell>
        <mxCell id="OJ1lECs8hUQre6vc5IYj-77" value="Проиграть звуковую дорожку door_close_cue" style="rounded=0;whiteSpace=wrap;html=1;" vertex="1" parent="1">
          <mxGeometry x="2681" y="1594" width="120" height="60" as="geometry" />
        </mxCell>
        <mxCell id="OJ1lECs8hUQre6vc5IYj-90" style="edgeStyle=orthogonalEdgeStyle;rounded=0;orthogonalLoop=1;jettySize=auto;html=1;exitX=0.5;exitY=1;exitDx=0;exitDy=0;" edge="1" parent="1" source="OJ1lECs8hUQre6vc5IYj-79" target="OJ1lECs8hUQre6vc5IYj-82">
          <mxGeometry relative="1" as="geometry" />
        </mxCell>
        <mxCell id="OJ1lECs8hUQre6vc5IYj-79" value="Установить тип коллизии двери на &quot;BlockDoors&quot;" style="rounded=0;whiteSpace=wrap;html=1;" vertex="1" parent="1">
          <mxGeometry x="2681" y="1674" width="120" height="60" as="geometry" />
        </mxCell>
        <mxCell id="OJ1lECs8hUQre6vc5IYj-81" style="edgeStyle=orthogonalEdgeStyle;rounded=0;orthogonalLoop=1;jettySize=auto;html=1;exitX=0.5;exitY=1;exitDx=0;exitDy=0;" edge="1" parent="1" source="OJ1lECs8hUQre6vc5IYj-82" target="OJ1lECs8hUQre6vc5IYj-84">
          <mxGeometry relative="1" as="geometry" />
        </mxCell>
        <mxCell id="OJ1lECs8hUQre6vc5IYj-82" value="Пока не закончится график кривой в обратном направлении" style="shape=loopLimit;whiteSpace=wrap;html=1;" vertex="1" parent="1">
          <mxGeometry x="2681" y="1754" width="120" height="60" as="geometry" />
        </mxCell>
        <mxCell id="OJ1lECs8hUQre6vc5IYj-83" style="edgeStyle=orthogonalEdgeStyle;rounded=0;orthogonalLoop=1;jettySize=auto;html=1;exitX=0.5;exitY=1;exitDx=0;exitDy=0;" edge="1" parent="1" source="OJ1lECs8hUQre6vc5IYj-84" target="OJ1lECs8hUQre6vc5IYj-86">
          <mxGeometry relative="1" as="geometry" />
        </mxCell>
        <mxCell id="OJ1lECs8hUQre6vc5IYj-84" value="Изменять переменную Door Rotation по графику кривой" style="rounded=0;whiteSpace=wrap;html=1;" vertex="1" parent="1">
          <mxGeometry x="2681" y="1834" width="120" height="60" as="geometry" />
        </mxCell>
        <mxCell id="OJ1lECs8hUQre6vc5IYj-85" style="edgeStyle=orthogonalEdgeStyle;rounded=0;orthogonalLoop=1;jettySize=auto;html=1;exitX=0.5;exitY=1;exitDx=0;exitDy=0;" edge="1" parent="1" source="OJ1lECs8hUQre6vc5IYj-86" target="OJ1lECs8hUQre6vc5IYj-88">
          <mxGeometry relative="1" as="geometry" />
        </mxCell>
        <mxCell id="OJ1lECs8hUQre6vc5IYj-86" value="Установить относительное вращение компонента Door переменной Door Rotation" style="rounded=0;whiteSpace=wrap;html=1;" vertex="1" parent="1">
          <mxGeometry x="2681" y="1914" width="120" height="100" as="geometry" />
        </mxCell>
        <mxCell id="OJ1lECs8hUQre6vc5IYj-87" style="edgeStyle=orthogonalEdgeStyle;rounded=0;orthogonalLoop=1;jettySize=auto;html=1;exitX=0.5;exitY=0;exitDx=0;exitDy=0;" edge="1" parent="1" source="OJ1lECs8hUQre6vc5IYj-88" target="OJ1lECs8hUQre6vc5IYj-89">
          <mxGeometry relative="1" as="geometry" />
        </mxCell>
        <mxCell id="OJ1lECs8hUQre6vc5IYj-88" value="" style="shape=loopLimit;whiteSpace=wrap;html=1;rotation=-180;" vertex="1" parent="1">
          <mxGeometry x="2681" y="2034" width="120" height="60" as="geometry" />
        </mxCell>
        <mxCell id="OJ1lECs8hUQre6vc5IYj-93" style="edgeStyle=orthogonalEdgeStyle;rounded=0;orthogonalLoop=1;jettySize=auto;html=1;exitX=0.5;exitY=1;exitDx=0;exitDy=0;" edge="1" parent="1" source="OJ1lECs8hUQre6vc5IYj-89" target="OJ1lECs8hUQre6vc5IYj-92">
          <mxGeometry relative="1" as="geometry" />
        </mxCell>
        <mxCell id="OJ1lECs8hUQre6vc5IYj-89" value="Установить тип коллизии двери на &quot;BlockAllDynamic&quot;" style="rounded=0;whiteSpace=wrap;html=1;" vertex="1" parent="1">
          <mxGeometry x="2681" y="2114" width="120" height="60" as="geometry" />
        </mxCell>
        <mxCell id="OJ1lECs8hUQre6vc5IYj-95" value="да" style="edgeStyle=orthogonalEdgeStyle;rounded=0;orthogonalLoop=1;jettySize=auto;html=1;exitX=0;exitY=0.5;exitDx=0;exitDy=0;entryX=0;entryY=0.5;entryDx=0;entryDy=0;entryPerimeter=0;" edge="1" parent="1" source="OJ1lECs8hUQre6vc5IYj-92" target="OJ1lECs8hUQre6vc5IYj-100">
          <mxGeometry x="-0.913" y="-10" relative="1" as="geometry">
            <mxPoint x="2621" y="2254" as="targetPoint" />
            <mxPoint x="10" y="-10" as="offset" />
          </mxGeometry>
        </mxCell>
        <mxCell id="OJ1lECs8hUQre6vc5IYj-97" value="нет" style="edgeStyle=orthogonalEdgeStyle;rounded=0;orthogonalLoop=1;jettySize=auto;html=1;exitX=1;exitY=0.5;exitDx=0;exitDy=0;" edge="1" parent="1" source="OJ1lECs8hUQre6vc5IYj-92" target="OJ1lECs8hUQre6vc5IYj-96">
          <mxGeometry x="-0.1111" y="10" relative="1" as="geometry">
            <mxPoint as="offset" />
          </mxGeometry>
        </mxCell>
        <mxCell id="OJ1lECs8hUQre6vc5IYj-92" value="Закрыта ли дверь?" style="rhombus;whiteSpace=wrap;html=1;" vertex="1" parent="1">
          <mxGeometry x="2681" y="2194" width="120" height="60" as="geometry" />
        </mxCell>
        <mxCell id="OJ1lECs8hUQre6vc5IYj-101" style="edgeStyle=orthogonalEdgeStyle;rounded=0;orthogonalLoop=1;jettySize=auto;html=1;exitX=0.5;exitY=1;exitDx=0;exitDy=0;" edge="1" parent="1" source="OJ1lECs8hUQre6vc5IYj-96" target="OJ1lECs8hUQre6vc5IYj-98">
          <mxGeometry relative="1" as="geometry" />
        </mxCell>
        <mxCell id="OJ1lECs8hUQre6vc5IYj-96" value="Получить ссылку на все объекты класса MonometrBP" style="rounded=0;whiteSpace=wrap;html=1;" vertex="1" parent="1">
          <mxGeometry x="2801" y="2254" width="120" height="60" as="geometry" />
        </mxCell>
        <mxCell id="OJ1lECs8hUQre6vc5IYj-102" style="edgeStyle=orthogonalEdgeStyle;rounded=0;orthogonalLoop=1;jettySize=auto;html=1;exitX=0.5;exitY=1;exitDx=0;exitDy=0;" edge="1" parent="1" source="OJ1lECs8hUQre6vc5IYj-98" target="OJ1lECs8hUQre6vc5IYj-99">
          <mxGeometry relative="1" as="geometry" />
        </mxCell>
        <mxCell id="OJ1lECs8hUQre6vc5IYj-98" value="Вызвать событие Monometr-stop" style="rounded=0;whiteSpace=wrap;html=1;" vertex="1" parent="1">
          <mxGeometry x="2801" y="2334" width="120" height="60" as="geometry" />
        </mxCell>
        <mxCell id="OJ1lECs8hUQre6vc5IYj-103" style="edgeStyle=orthogonalEdgeStyle;rounded=0;orthogonalLoop=1;jettySize=auto;html=1;exitX=0.5;exitY=1;exitDx=0;exitDy=0;" edge="1" parent="1" source="OJ1lECs8hUQre6vc5IYj-99" target="OJ1lECs8hUQre6vc5IYj-100">
          <mxGeometry relative="1" as="geometry" />
        </mxCell>
        <mxCell id="OJ1lECs8hUQre6vc5IYj-99" value="Вызвать событие Monometr-onClosedDoor" style="rounded=0;whiteSpace=wrap;html=1;" vertex="1" parent="1">
          <mxGeometry x="2801" y="2414" width="120" height="60" as="geometry" />
        </mxCell>
        <mxCell id="OJ1lECs8hUQre6vc5IYj-100" value="Конец" style="strokeWidth=2;html=1;shape=mxgraph.flowchart.terminator;whiteSpace=wrap;" vertex="1" parent="1">
          <mxGeometry x="2801" y="2494" width="120" height="60" as="geometry" />
        </mxCell>
        <mxCell id="OJ1lECs8hUQre6vc5IYj-104" style="edgeStyle=orthogonalEdgeStyle;rounded=0;orthogonalLoop=1;jettySize=auto;html=1;exitX=0.5;exitY=1;exitDx=0;exitDy=0;exitPerimeter=0;" edge="1" parent="1" source="OJ1lECs8hUQre6vc5IYj-105" target="OJ1lECs8hUQre6vc5IYj-107">
          <mxGeometry relative="1" as="geometry" />
        </mxCell>
        <mxCell id="OJ1lECs8hUQre6vc5IYj-105" value="Начало" style="strokeWidth=2;html=1;shape=mxgraph.flowchart.terminator;whiteSpace=wrap;" vertex="1" parent="1">
          <mxGeometry x="130" y="1099" width="120" height="60" as="geometry" />
        </mxCell>
        <mxCell id="OJ1lECs8hUQre6vc5IYj-106" style="edgeStyle=orthogonalEdgeStyle;rounded=0;orthogonalLoop=1;jettySize=auto;html=1;exitX=0.5;exitY=1;exitDx=0;exitDy=0;" edge="1" parent="1" source="OJ1lECs8hUQre6vc5IYj-107" target="OJ1lECs8hUQre6vc5IYj-109">
          <mxGeometry relative="1" as="geometry" />
        </mxCell>
        <mxCell id="OJ1lECs8hUQre6vc5IYj-107" value="Вызвано событие Event Interact" style="shape=process;whiteSpace=wrap;html=1;backgroundOutline=1;" vertex="1" parent="1">
          <mxGeometry x="130" y="1179" width="120" height="60" as="geometry" />
        </mxCell>
        <mxCell id="OJ1lECs8hUQre6vc5IYj-108" style="edgeStyle=orthogonalEdgeStyle;rounded=0;orthogonalLoop=1;jettySize=auto;html=1;exitX=0.5;exitY=1;exitDx=0;exitDy=0;entryX=0.5;entryY=0;entryDx=0;entryDy=0;" edge="1" parent="1" source="OJ1lECs8hUQre6vc5IYj-109" target="OJ1lECs8hUQre6vc5IYj-112">
          <mxGeometry relative="1" as="geometry" />
        </mxCell>
        <mxCell id="OJ1lECs8hUQre6vc5IYj-109" value="Получить ссылку на объект класса DoorScript4" style="rounded=0;whiteSpace=wrap;html=1;" vertex="1" parent="1">
          <mxGeometry x="130" y="1259" width="120" height="60" as="geometry" />
        </mxCell>
        <mxCell id="OJ1lECs8hUQre6vc5IYj-110" value="да" style="edgeStyle=orthogonalEdgeStyle;rounded=0;orthogonalLoop=1;jettySize=auto;html=1;exitX=0;exitY=0.5;exitDx=0;exitDy=0;entryX=0.5;entryY=0;entryDx=0;entryDy=0;" edge="1" parent="1" source="OJ1lECs8hUQre6vc5IYj-112" target="OJ1lECs8hUQre6vc5IYj-114">
          <mxGeometry x="-0.0222" y="-10" relative="1" as="geometry">
            <mxPoint x="70" y="1399" as="targetPoint" />
            <mxPoint as="offset" />
          </mxGeometry>
        </mxCell>
        <mxCell id="OJ1lECs8hUQre6vc5IYj-111" value="нет" style="edgeStyle=orthogonalEdgeStyle;rounded=0;orthogonalLoop=1;jettySize=auto;html=1;exitX=1;exitY=0.5;exitDx=0;exitDy=0;" edge="1" parent="1" source="OJ1lECs8hUQre6vc5IYj-112" target="OJ1lECs8hUQre6vc5IYj-125">
          <mxGeometry x="-0.1628" y="10" relative="1" as="geometry">
            <mxPoint as="offset" />
          </mxGeometry>
        </mxCell>
        <mxCell id="OJ1lECs8hUQre6vc5IYj-112" value="Открыта ли четвертая дверь?" style="rhombus;whiteSpace=wrap;html=1;" vertex="1" parent="1">
          <mxGeometry x="130" y="1339" width="120" height="60" as="geometry" />
        </mxCell>
        <mxCell id="OJ1lECs8hUQre6vc5IYj-113" style="edgeStyle=orthogonalEdgeStyle;rounded=0;orthogonalLoop=1;jettySize=auto;html=1;exitX=0.5;exitY=1;exitDx=0;exitDy=0;" edge="1" parent="1" source="OJ1lECs8hUQre6vc5IYj-114" target="OJ1lECs8hUQre6vc5IYj-116">
          <mxGeometry relative="1" as="geometry" />
        </mxCell>
        <mxCell id="OJ1lECs8hUQre6vc5IYj-114" value="Получить ссылку на объекты класса Hud" style="rounded=0;whiteSpace=wrap;html=1;" vertex="1" parent="1">
          <mxGeometry x="-40" y="1399" width="120" height="60" as="geometry" />
        </mxCell>
        <mxCell id="OJ1lECs8hUQre6vc5IYj-115" style="edgeStyle=orthogonalEdgeStyle;rounded=0;orthogonalLoop=1;jettySize=auto;html=1;exitX=0.5;exitY=1;exitDx=0;exitDy=0;" edge="1" parent="1" source="OJ1lECs8hUQre6vc5IYj-116" target="OJ1lECs8hUQre6vc5IYj-118">
          <mxGeometry relative="1" as="geometry">
            <Array as="points">
              <mxPoint x="20" y="1609" />
              <mxPoint x="100" y="1609" />
              <mxPoint x="100" y="1449" />
            </Array>
          </mxGeometry>
        </mxCell>
        <mxCell id="OJ1lECs8hUQre6vc5IYj-116" value="Отобразить сообщение &quot;Закройте четвертую дверь&quot;" style="rounded=0;whiteSpace=wrap;html=1;" vertex="1" parent="1">
          <mxGeometry x="-40" y="1479" width="120" height="100" as="geometry" />
        </mxCell>
        <mxCell id="OJ1lECs8hUQre6vc5IYj-117" style="edgeStyle=orthogonalEdgeStyle;rounded=0;orthogonalLoop=1;jettySize=auto;html=1;exitX=0.5;exitY=1;exitDx=0;exitDy=0;" edge="1" parent="1" source="OJ1lECs8hUQre6vc5IYj-118" target="OJ1lECs8hUQre6vc5IYj-122">
          <mxGeometry relative="1" as="geometry" />
        </mxCell>
        <mxCell id="OJ1lECs8hUQre6vc5IYj-118" value="Задержка 2 секунды" style="rounded=0;whiteSpace=wrap;html=1;" vertex="1" parent="1">
          <mxGeometry x="130" y="1419" width="120" height="60" as="geometry" />
        </mxCell>
        <mxCell id="OJ1lECs8hUQre6vc5IYj-119" style="edgeStyle=orthogonalEdgeStyle;rounded=0;orthogonalLoop=1;jettySize=auto;html=1;exitX=0.5;exitY=1;exitDx=0;exitDy=0;" edge="1" parent="1" source="OJ1lECs8hUQre6vc5IYj-120" target="OJ1lECs8hUQre6vc5IYj-123">
          <mxGeometry relative="1" as="geometry" />
        </mxCell>
        <mxCell id="OJ1lECs8hUQre6vc5IYj-120" value="Скрыть отображение сообщения на экране" style="rounded=0;whiteSpace=wrap;html=1;" vertex="1" parent="1">
          <mxGeometry x="130" y="1579" width="120" height="60" as="geometry" />
        </mxCell>
        <mxCell id="OJ1lECs8hUQre6vc5IYj-121" style="edgeStyle=orthogonalEdgeStyle;rounded=0;orthogonalLoop=1;jettySize=auto;html=1;exitX=0.5;exitY=1;exitDx=0;exitDy=0;" edge="1" parent="1" source="OJ1lECs8hUQre6vc5IYj-122" target="OJ1lECs8hUQre6vc5IYj-120">
          <mxGeometry relative="1" as="geometry" />
        </mxCell>
        <mxCell id="OJ1lECs8hUQre6vc5IYj-122" value="Получить ссылку на объекты класса Hud" style="rounded=0;whiteSpace=wrap;html=1;" vertex="1" parent="1">
          <mxGeometry x="130" y="1499" width="120" height="60" as="geometry" />
        </mxCell>
        <mxCell id="OJ1lECs8hUQre6vc5IYj-123" value="Конец" style="strokeWidth=2;html=1;shape=mxgraph.flowchart.terminator;whiteSpace=wrap;" vertex="1" parent="1">
          <mxGeometry x="130" y="1659" width="120" height="60" as="geometry" />
        </mxCell>
        <mxCell id="OJ1lECs8hUQre6vc5IYj-124" style="edgeStyle=orthogonalEdgeStyle;rounded=0;orthogonalLoop=1;jettySize=auto;html=1;exitX=0.5;exitY=1;exitDx=0;exitDy=0;" edge="1" parent="1" source="OJ1lECs8hUQre6vc5IYj-125" target="OJ1lECs8hUQre6vc5IYj-127">
          <mxGeometry relative="1" as="geometry" />
        </mxCell>
        <mxCell id="OJ1lECs8hUQre6vc5IYj-125" value="Получить ссылку на объект класса DoorScript2" style="rounded=0;whiteSpace=wrap;html=1;" vertex="1" parent="1">
          <mxGeometry x="450.5" y="1339" width="120" height="60" as="geometry" />
        </mxCell>
        <mxCell id="OJ1lECs8hUQre6vc5IYj-126" value="да" style="edgeStyle=orthogonalEdgeStyle;rounded=0;orthogonalLoop=1;jettySize=auto;html=1;exitX=0;exitY=0.5;exitDx=0;exitDy=0;entryX=0.5;entryY=0;entryDx=0;entryDy=0;" edge="1" parent="1" source="OJ1lECs8hUQre6vc5IYj-127" target="OJ1lECs8hUQre6vc5IYj-129">
          <mxGeometry x="-0.1065" y="-10" relative="1" as="geometry">
            <mxPoint as="offset" />
          </mxGeometry>
        </mxCell>
        <mxCell id="OJ1lECs8hUQre6vc5IYj-140" value="нет" style="edgeStyle=orthogonalEdgeStyle;rounded=0;orthogonalLoop=1;jettySize=auto;html=1;exitX=1;exitY=0.5;exitDx=0;exitDy=0;entryX=0.5;entryY=0;entryDx=0;entryDy=0;" edge="1" parent="1" source="OJ1lECs8hUQre6vc5IYj-127" target="OJ1lECs8hUQre6vc5IYj-139">
          <mxGeometry x="-0.6498" y="9" relative="1" as="geometry">
            <mxPoint as="offset" />
          </mxGeometry>
        </mxCell>
        <mxCell id="OJ1lECs8hUQre6vc5IYj-127" value="Открыта ли вторая дверь?" style="rhombus;whiteSpace=wrap;html=1;" vertex="1" parent="1">
          <mxGeometry x="450.5" y="1419" width="120" height="60" as="geometry" />
        </mxCell>
        <mxCell id="OJ1lECs8hUQre6vc5IYj-128" style="edgeStyle=orthogonalEdgeStyle;rounded=0;orthogonalLoop=1;jettySize=auto;html=1;exitX=0.5;exitY=1;exitDx=0;exitDy=0;" edge="1" parent="1" source="OJ1lECs8hUQre6vc5IYj-129" target="OJ1lECs8hUQre6vc5IYj-131">
          <mxGeometry relative="1" as="geometry" />
        </mxCell>
        <mxCell id="OJ1lECs8hUQre6vc5IYj-129" value="Получить ссылку на объекты класса Hud" style="rounded=0;whiteSpace=wrap;html=1;" vertex="1" parent="1">
          <mxGeometry x="280.5" y="1479" width="120" height="60" as="geometry" />
        </mxCell>
        <mxCell id="OJ1lECs8hUQre6vc5IYj-130" style="edgeStyle=orthogonalEdgeStyle;rounded=0;orthogonalLoop=1;jettySize=auto;html=1;exitX=0.5;exitY=1;exitDx=0;exitDy=0;" edge="1" parent="1" source="OJ1lECs8hUQre6vc5IYj-131" target="OJ1lECs8hUQre6vc5IYj-133">
          <mxGeometry relative="1" as="geometry">
            <Array as="points">
              <mxPoint x="340.5" y="1689" />
              <mxPoint x="423.5" y="1689" />
              <mxPoint x="423.5" y="1529" />
            </Array>
          </mxGeometry>
        </mxCell>
        <mxCell id="OJ1lECs8hUQre6vc5IYj-131" value="Отобразить сообщение &quot;Закройте вторую дверь&quot;" style="rounded=0;whiteSpace=wrap;html=1;" vertex="1" parent="1">
          <mxGeometry x="280.5" y="1559" width="120" height="100" as="geometry" />
        </mxCell>
        <mxCell id="OJ1lECs8hUQre6vc5IYj-132" style="edgeStyle=orthogonalEdgeStyle;rounded=0;orthogonalLoop=1;jettySize=auto;html=1;exitX=0.5;exitY=1;exitDx=0;exitDy=0;" edge="1" parent="1" source="OJ1lECs8hUQre6vc5IYj-133" target="OJ1lECs8hUQre6vc5IYj-137">
          <mxGeometry relative="1" as="geometry" />
        </mxCell>
        <mxCell id="OJ1lECs8hUQre6vc5IYj-133" value="Задержка 2 секунды" style="rounded=0;whiteSpace=wrap;html=1;" vertex="1" parent="1">
          <mxGeometry x="450.5" y="1499" width="120" height="60" as="geometry" />
        </mxCell>
        <mxCell id="OJ1lECs8hUQre6vc5IYj-134" style="edgeStyle=orthogonalEdgeStyle;rounded=0;orthogonalLoop=1;jettySize=auto;html=1;exitX=0.5;exitY=1;exitDx=0;exitDy=0;" edge="1" parent="1" source="OJ1lECs8hUQre6vc5IYj-135" target="OJ1lECs8hUQre6vc5IYj-138">
          <mxGeometry relative="1" as="geometry" />
        </mxCell>
        <mxCell id="OJ1lECs8hUQre6vc5IYj-135" value="Скрыть отображение сообщения на экране" style="rounded=0;whiteSpace=wrap;html=1;" vertex="1" parent="1">
          <mxGeometry x="450.5" y="1659" width="120" height="60" as="geometry" />
        </mxCell>
        <mxCell id="OJ1lECs8hUQre6vc5IYj-136" style="edgeStyle=orthogonalEdgeStyle;rounded=0;orthogonalLoop=1;jettySize=auto;html=1;exitX=0.5;exitY=1;exitDx=0;exitDy=0;" edge="1" parent="1" source="OJ1lECs8hUQre6vc5IYj-137" target="OJ1lECs8hUQre6vc5IYj-135">
          <mxGeometry relative="1" as="geometry" />
        </mxCell>
        <mxCell id="OJ1lECs8hUQre6vc5IYj-137" value="Получить ссылку на объекты класса Hud" style="rounded=0;whiteSpace=wrap;html=1;" vertex="1" parent="1">
          <mxGeometry x="450.5" y="1579" width="120" height="60" as="geometry" />
        </mxCell>
        <mxCell id="OJ1lECs8hUQre6vc5IYj-138" value="Конец" style="strokeWidth=2;html=1;shape=mxgraph.flowchart.terminator;whiteSpace=wrap;" vertex="1" parent="1">
          <mxGeometry x="450.5" y="1739" width="120" height="60" as="geometry" />
        </mxCell>
        <mxCell id="OJ1lECs8hUQre6vc5IYj-142" value="да" style="edgeStyle=orthogonalEdgeStyle;rounded=0;orthogonalLoop=1;jettySize=auto;html=1;exitX=0;exitY=0.5;exitDx=0;exitDy=0;" edge="1" parent="1" source="OJ1lECs8hUQre6vc5IYj-139" target="OJ1lECs8hUQre6vc5IYj-141">
          <mxGeometry x="-0.1668" y="-10" relative="1" as="geometry">
            <mxPoint as="offset" />
          </mxGeometry>
        </mxCell>
        <mxCell id="OJ1lECs8hUQre6vc5IYj-188" value="нет" style="edgeStyle=orthogonalEdgeStyle;rounded=0;orthogonalLoop=1;jettySize=auto;html=1;exitX=1;exitY=0.5;exitDx=0;exitDy=0;entryX=0.5;entryY=0;entryDx=0;entryDy=0;" edge="1" parent="1" source="OJ1lECs8hUQre6vc5IYj-139" target="OJ1lECs8hUQre6vc5IYj-147">
          <mxGeometry x="-0.1901" y="10" relative="1" as="geometry">
            <mxPoint as="offset" />
          </mxGeometry>
        </mxCell>
        <mxCell id="OJ1lECs8hUQre6vc5IYj-139" value="Заблокирована&lt;br&gt;ли дверь?" style="rhombus;whiteSpace=wrap;html=1;" vertex="1" parent="1">
          <mxGeometry x="717.5" y="1479" width="120" height="60" as="geometry" />
        </mxCell>
        <mxCell id="OJ1lECs8hUQre6vc5IYj-144" style="edgeStyle=orthogonalEdgeStyle;rounded=0;orthogonalLoop=1;jettySize=auto;html=1;exitX=0.5;exitY=1;exitDx=0;exitDy=0;" edge="1" parent="1" source="OJ1lECs8hUQre6vc5IYj-141" target="OJ1lECs8hUQre6vc5IYj-143">
          <mxGeometry relative="1" as="geometry" />
        </mxCell>
        <mxCell id="OJ1lECs8hUQre6vc5IYj-141" value="Вывести консольное сообщение &quot;Step further&quot;" style="rounded=0;whiteSpace=wrap;html=1;" vertex="1" parent="1">
          <mxGeometry x="597.5" y="1539" width="120" height="60" as="geometry" />
        </mxCell>
        <mxCell id="OJ1lECs8hUQre6vc5IYj-143" value="Конец" style="strokeWidth=2;html=1;shape=mxgraph.flowchart.terminator;whiteSpace=wrap;" vertex="1" parent="1">
          <mxGeometry x="597.5" y="1619" width="120" height="60" as="geometry" />
        </mxCell>
        <mxCell id="OJ1lECs8hUQre6vc5IYj-145" value="да" style="edgeStyle=orthogonalEdgeStyle;rounded=0;orthogonalLoop=1;jettySize=auto;html=1;exitX=0;exitY=0.5;exitDx=0;exitDy=0;entryX=0.5;entryY=0;entryDx=0;entryDy=0;" edge="1" parent="1" source="OJ1lECs8hUQre6vc5IYj-147" target="OJ1lECs8hUQre6vc5IYj-149">
          <mxGeometry x="-0.1111" y="-10" relative="1" as="geometry">
            <mxPoint as="offset" />
          </mxGeometry>
        </mxCell>
        <mxCell id="OJ1lECs8hUQre6vc5IYj-146" value="нет" style="edgeStyle=orthogonalEdgeStyle;rounded=0;orthogonalLoop=1;jettySize=auto;html=1;exitX=1;exitY=0.5;exitDx=0;exitDy=0;entryX=0.5;entryY=0;entryDx=0;entryDy=0;" edge="1" parent="1" source="OJ1lECs8hUQre6vc5IYj-147" target="OJ1lECs8hUQre6vc5IYj-165">
          <mxGeometry y="10" relative="1" as="geometry">
            <mxPoint as="offset" />
          </mxGeometry>
        </mxCell>
        <mxCell id="OJ1lECs8hUQre6vc5IYj-147" value="Закрыта ли дверь?" style="rhombus;whiteSpace=wrap;html=1;" vertex="1" parent="1">
          <mxGeometry x="926.5" y="1539" width="120" height="60" as="geometry" />
        </mxCell>
        <mxCell id="OJ1lECs8hUQre6vc5IYj-148" style="edgeStyle=orthogonalEdgeStyle;rounded=0;orthogonalLoop=1;jettySize=auto;html=1;exitX=0.5;exitY=1;exitDx=0;exitDy=0;" edge="1" parent="1" source="OJ1lECs8hUQre6vc5IYj-149" target="OJ1lECs8hUQre6vc5IYj-151">
          <mxGeometry relative="1" as="geometry" />
        </mxCell>
        <mxCell id="OJ1lECs8hUQre6vc5IYj-149" value="Получить ссылку на все объекты класса MonometrBP" style="rounded=0;whiteSpace=wrap;html=1;" vertex="1" parent="1">
          <mxGeometry x="754" y="1599" width="120" height="60" as="geometry" />
        </mxCell>
        <mxCell id="OJ1lECs8hUQre6vc5IYj-150" style="edgeStyle=orthogonalEdgeStyle;rounded=0;orthogonalLoop=1;jettySize=auto;html=1;exitX=0.5;exitY=1;exitDx=0;exitDy=0;" edge="1" parent="1" source="OJ1lECs8hUQre6vc5IYj-151" target="OJ1lECs8hUQre6vc5IYj-153">
          <mxGeometry relative="1" as="geometry" />
        </mxCell>
        <mxCell id="OJ1lECs8hUQre6vc5IYj-151" value="Вызвать событие Monometr-troggered" style="rounded=0;whiteSpace=wrap;html=1;" vertex="1" parent="1">
          <mxGeometry x="754" y="1679" width="120" height="60" as="geometry" />
        </mxCell>
        <mxCell id="OJ1lECs8hUQre6vc5IYj-152" style="edgeStyle=orthogonalEdgeStyle;rounded=0;orthogonalLoop=1;jettySize=auto;html=1;exitX=0.5;exitY=1;exitDx=0;exitDy=0;" edge="1" parent="1" source="OJ1lECs8hUQre6vc5IYj-153" target="OJ1lECs8hUQre6vc5IYj-155">
          <mxGeometry relative="1" as="geometry" />
        </mxCell>
        <mxCell id="OJ1lECs8hUQre6vc5IYj-153" value="Проиграть звуковую дорожку door_open_cue" style="rounded=0;whiteSpace=wrap;html=1;" vertex="1" parent="1">
          <mxGeometry x="754" y="1759" width="120" height="60" as="geometry" />
        </mxCell>
        <mxCell id="OJ1lECs8hUQre6vc5IYj-154" style="edgeStyle=orthogonalEdgeStyle;rounded=0;orthogonalLoop=1;jettySize=auto;html=1;exitX=0.5;exitY=1;exitDx=0;exitDy=0;entryX=0;entryY=0.5;entryDx=0;entryDy=0;" edge="1" parent="1" source="OJ1lECs8hUQre6vc5IYj-155" target="OJ1lECs8hUQre6vc5IYj-157">
          <mxGeometry relative="1" as="geometry" />
        </mxCell>
        <mxCell id="OJ1lECs8hUQre6vc5IYj-155" value="Установить тип коллизии двери на &quot;BlockDoors&quot;" style="rounded=0;whiteSpace=wrap;html=1;" vertex="1" parent="1">
          <mxGeometry x="754" y="1839" width="120" height="60" as="geometry" />
        </mxCell>
        <mxCell id="OJ1lECs8hUQre6vc5IYj-156" style="edgeStyle=orthogonalEdgeStyle;rounded=0;orthogonalLoop=1;jettySize=auto;html=1;exitX=0.5;exitY=1;exitDx=0;exitDy=0;" edge="1" parent="1" source="OJ1lECs8hUQre6vc5IYj-157" target="OJ1lECs8hUQre6vc5IYj-159">
          <mxGeometry relative="1" as="geometry" />
        </mxCell>
        <mxCell id="OJ1lECs8hUQre6vc5IYj-157" value="Пока не закончится график кривой" style="shape=loopLimit;whiteSpace=wrap;html=1;" vertex="1" parent="1">
          <mxGeometry x="926.5" y="1619" width="120" height="60" as="geometry" />
        </mxCell>
        <mxCell id="OJ1lECs8hUQre6vc5IYj-158" style="edgeStyle=orthogonalEdgeStyle;rounded=0;orthogonalLoop=1;jettySize=auto;html=1;exitX=0.5;exitY=1;exitDx=0;exitDy=0;" edge="1" parent="1" source="OJ1lECs8hUQre6vc5IYj-159" target="OJ1lECs8hUQre6vc5IYj-161">
          <mxGeometry relative="1" as="geometry" />
        </mxCell>
        <mxCell id="OJ1lECs8hUQre6vc5IYj-159" value="Изменять переменную Door Rotation по графику кривой" style="rounded=0;whiteSpace=wrap;html=1;" vertex="1" parent="1">
          <mxGeometry x="926.5" y="1699" width="120" height="60" as="geometry" />
        </mxCell>
        <mxCell id="OJ1lECs8hUQre6vc5IYj-160" style="edgeStyle=orthogonalEdgeStyle;rounded=0;orthogonalLoop=1;jettySize=auto;html=1;exitX=0.5;exitY=1;exitDx=0;exitDy=0;" edge="1" parent="1" source="OJ1lECs8hUQre6vc5IYj-161" target="OJ1lECs8hUQre6vc5IYj-163">
          <mxGeometry relative="1" as="geometry" />
        </mxCell>
        <mxCell id="OJ1lECs8hUQre6vc5IYj-161" value="Установить относительное вращение компонента Door переменной Door Rotation" style="rounded=0;whiteSpace=wrap;html=1;" vertex="1" parent="1">
          <mxGeometry x="926.5" y="1779" width="120" height="100" as="geometry" />
        </mxCell>
        <mxCell id="OJ1lECs8hUQre6vc5IYj-162" style="edgeStyle=orthogonalEdgeStyle;rounded=0;orthogonalLoop=1;jettySize=auto;html=1;exitX=0.5;exitY=0;exitDx=0;exitDy=0;entryX=0;entryY=0.5;entryDx=0;entryDy=0;" edge="1" parent="1" source="OJ1lECs8hUQre6vc5IYj-163" target="OJ1lECs8hUQre6vc5IYj-177">
          <mxGeometry relative="1" as="geometry" />
        </mxCell>
        <mxCell id="OJ1lECs8hUQre6vc5IYj-163" value="" style="shape=loopLimit;whiteSpace=wrap;html=1;rotation=-180;" vertex="1" parent="1">
          <mxGeometry x="926.5" y="1899" width="120" height="60" as="geometry" />
        </mxCell>
        <mxCell id="OJ1lECs8hUQre6vc5IYj-164" style="edgeStyle=orthogonalEdgeStyle;rounded=0;orthogonalLoop=1;jettySize=auto;html=1;exitX=0.5;exitY=1;exitDx=0;exitDy=0;" edge="1" parent="1" source="OJ1lECs8hUQre6vc5IYj-165" target="OJ1lECs8hUQre6vc5IYj-167">
          <mxGeometry relative="1" as="geometry" />
        </mxCell>
        <mxCell id="OJ1lECs8hUQre6vc5IYj-165" value="Проиграть звуковую дорожку door_close_cue" style="rounded=0;whiteSpace=wrap;html=1;" vertex="1" parent="1">
          <mxGeometry x="1076.5" y="1599" width="120" height="60" as="geometry" />
        </mxCell>
        <mxCell id="OJ1lECs8hUQre6vc5IYj-166" style="edgeStyle=orthogonalEdgeStyle;rounded=0;orthogonalLoop=1;jettySize=auto;html=1;exitX=0.5;exitY=1;exitDx=0;exitDy=0;" edge="1" parent="1" source="OJ1lECs8hUQre6vc5IYj-167" target="OJ1lECs8hUQre6vc5IYj-169">
          <mxGeometry relative="1" as="geometry" />
        </mxCell>
        <mxCell id="OJ1lECs8hUQre6vc5IYj-167" value="Установить тип коллизии двери на &quot;BlockDoors&quot;" style="rounded=0;whiteSpace=wrap;html=1;" vertex="1" parent="1">
          <mxGeometry x="1076.5" y="1679" width="120" height="60" as="geometry" />
        </mxCell>
        <mxCell id="OJ1lECs8hUQre6vc5IYj-168" style="edgeStyle=orthogonalEdgeStyle;rounded=0;orthogonalLoop=1;jettySize=auto;html=1;exitX=0.5;exitY=1;exitDx=0;exitDy=0;" edge="1" parent="1" source="OJ1lECs8hUQre6vc5IYj-169" target="OJ1lECs8hUQre6vc5IYj-171">
          <mxGeometry relative="1" as="geometry" />
        </mxCell>
        <mxCell id="OJ1lECs8hUQre6vc5IYj-169" value="Пока не закончится график кривой в обратном направлении" style="shape=loopLimit;whiteSpace=wrap;html=1;" vertex="1" parent="1">
          <mxGeometry x="1076.5" y="1759" width="120" height="60" as="geometry" />
        </mxCell>
        <mxCell id="OJ1lECs8hUQre6vc5IYj-170" style="edgeStyle=orthogonalEdgeStyle;rounded=0;orthogonalLoop=1;jettySize=auto;html=1;exitX=0.5;exitY=1;exitDx=0;exitDy=0;" edge="1" parent="1" source="OJ1lECs8hUQre6vc5IYj-171" target="OJ1lECs8hUQre6vc5IYj-173">
          <mxGeometry relative="1" as="geometry" />
        </mxCell>
        <mxCell id="OJ1lECs8hUQre6vc5IYj-171" value="Изменять переменную Door Rotation по графику кривой" style="rounded=0;whiteSpace=wrap;html=1;" vertex="1" parent="1">
          <mxGeometry x="1076.5" y="1839" width="120" height="60" as="geometry" />
        </mxCell>
        <mxCell id="OJ1lECs8hUQre6vc5IYj-172" style="edgeStyle=orthogonalEdgeStyle;rounded=0;orthogonalLoop=1;jettySize=auto;html=1;exitX=0.5;exitY=1;exitDx=0;exitDy=0;" edge="1" parent="1" source="OJ1lECs8hUQre6vc5IYj-173" target="OJ1lECs8hUQre6vc5IYj-175">
          <mxGeometry relative="1" as="geometry" />
        </mxCell>
        <mxCell id="OJ1lECs8hUQre6vc5IYj-173" value="Установить относительное вращение компонента Door переменной Door Rotation" style="rounded=0;whiteSpace=wrap;html=1;" vertex="1" parent="1">
          <mxGeometry x="1076.5" y="1919" width="120" height="100" as="geometry" />
        </mxCell>
        <mxCell id="OJ1lECs8hUQre6vc5IYj-174" style="edgeStyle=orthogonalEdgeStyle;rounded=0;orthogonalLoop=1;jettySize=auto;html=1;exitX=0.5;exitY=0;exitDx=0;exitDy=0;" edge="1" parent="1" source="OJ1lECs8hUQre6vc5IYj-175" target="OJ1lECs8hUQre6vc5IYj-177">
          <mxGeometry relative="1" as="geometry" />
        </mxCell>
        <mxCell id="OJ1lECs8hUQre6vc5IYj-175" value="" style="shape=loopLimit;whiteSpace=wrap;html=1;rotation=-180;" vertex="1" parent="1">
          <mxGeometry x="1076.5" y="2039" width="120" height="60" as="geometry" />
        </mxCell>
        <mxCell id="OJ1lECs8hUQre6vc5IYj-176" style="edgeStyle=orthogonalEdgeStyle;rounded=0;orthogonalLoop=1;jettySize=auto;html=1;exitX=0.5;exitY=1;exitDx=0;exitDy=0;" edge="1" parent="1" source="OJ1lECs8hUQre6vc5IYj-177" target="OJ1lECs8hUQre6vc5IYj-180">
          <mxGeometry relative="1" as="geometry" />
        </mxCell>
        <mxCell id="OJ1lECs8hUQre6vc5IYj-177" value="Установить тип коллизии двери на &quot;BlockAllDynamic&quot;" style="rounded=0;whiteSpace=wrap;html=1;" vertex="1" parent="1">
          <mxGeometry x="1076.5" y="2119" width="120" height="60" as="geometry" />
        </mxCell>
        <mxCell id="OJ1lECs8hUQre6vc5IYj-178" value="да" style="edgeStyle=orthogonalEdgeStyle;rounded=0;orthogonalLoop=1;jettySize=auto;html=1;exitX=0;exitY=0.5;exitDx=0;exitDy=0;entryX=0;entryY=0.5;entryDx=0;entryDy=0;entryPerimeter=0;" edge="1" parent="1" source="OJ1lECs8hUQre6vc5IYj-180" target="OJ1lECs8hUQre6vc5IYj-187">
          <mxGeometry x="-0.913" y="-10" relative="1" as="geometry">
            <mxPoint x="1016.5" y="2259" as="targetPoint" />
            <mxPoint x="10" y="-10" as="offset" />
          </mxGeometry>
        </mxCell>
        <mxCell id="OJ1lECs8hUQre6vc5IYj-179" value="нет" style="edgeStyle=orthogonalEdgeStyle;rounded=0;orthogonalLoop=1;jettySize=auto;html=1;exitX=1;exitY=0.5;exitDx=0;exitDy=0;" edge="1" parent="1" source="OJ1lECs8hUQre6vc5IYj-180" target="OJ1lECs8hUQre6vc5IYj-182">
          <mxGeometry x="-0.1111" y="10" relative="1" as="geometry">
            <mxPoint as="offset" />
          </mxGeometry>
        </mxCell>
        <mxCell id="OJ1lECs8hUQre6vc5IYj-180" value="Закрыта ли дверь?" style="rhombus;whiteSpace=wrap;html=1;" vertex="1" parent="1">
          <mxGeometry x="1076.5" y="2199" width="120" height="60" as="geometry" />
        </mxCell>
        <mxCell id="OJ1lECs8hUQre6vc5IYj-181" style="edgeStyle=orthogonalEdgeStyle;rounded=0;orthogonalLoop=1;jettySize=auto;html=1;exitX=0.5;exitY=1;exitDx=0;exitDy=0;" edge="1" parent="1" source="OJ1lECs8hUQre6vc5IYj-182" target="OJ1lECs8hUQre6vc5IYj-184">
          <mxGeometry relative="1" as="geometry" />
        </mxCell>
        <mxCell id="OJ1lECs8hUQre6vc5IYj-182" value="Получить ссылку на все объекты класса MonometrBP" style="rounded=0;whiteSpace=wrap;html=1;" vertex="1" parent="1">
          <mxGeometry x="1196.5" y="2259" width="120" height="60" as="geometry" />
        </mxCell>
        <mxCell id="OJ1lECs8hUQre6vc5IYj-183" style="edgeStyle=orthogonalEdgeStyle;rounded=0;orthogonalLoop=1;jettySize=auto;html=1;exitX=0.5;exitY=1;exitDx=0;exitDy=0;" edge="1" parent="1" source="OJ1lECs8hUQre6vc5IYj-184" target="OJ1lECs8hUQre6vc5IYj-186">
          <mxGeometry relative="1" as="geometry" />
        </mxCell>
        <mxCell id="OJ1lECs8hUQre6vc5IYj-184" value="Вызвать событие Monometr-stop" style="rounded=0;whiteSpace=wrap;html=1;" vertex="1" parent="1">
          <mxGeometry x="1196.5" y="2339" width="120" height="60" as="geometry" />
        </mxCell>
        <mxCell id="OJ1lECs8hUQre6vc5IYj-185" style="edgeStyle=orthogonalEdgeStyle;rounded=0;orthogonalLoop=1;jettySize=auto;html=1;exitX=0.5;exitY=1;exitDx=0;exitDy=0;" edge="1" parent="1" source="OJ1lECs8hUQre6vc5IYj-186" target="OJ1lECs8hUQre6vc5IYj-187">
          <mxGeometry relative="1" as="geometry" />
        </mxCell>
        <mxCell id="OJ1lECs8hUQre6vc5IYj-186" value="Вызвать событие Monometr-onClosedDoor" style="rounded=0;whiteSpace=wrap;html=1;" vertex="1" parent="1">
          <mxGeometry x="1196.5" y="2419" width="120" height="60" as="geometry" />
        </mxCell>
        <mxCell id="OJ1lECs8hUQre6vc5IYj-187" value="Конец" style="strokeWidth=2;html=1;shape=mxgraph.flowchart.terminator;whiteSpace=wrap;" vertex="1" parent="1">
          <mxGeometry x="1196.5" y="2499" width="120" height="60" as="geometry" />
        </mxCell>
        <mxCell id="OJ1lECs8hUQre6vc5IYj-192" style="edgeStyle=orthogonalEdgeStyle;rounded=0;orthogonalLoop=1;jettySize=auto;html=1;exitX=0.5;exitY=1;exitDx=0;exitDy=0;exitPerimeter=0;" edge="1" parent="1" source="OJ1lECs8hUQre6vc5IYj-190" target="OJ1lECs8hUQre6vc5IYj-191">
          <mxGeometry relative="1" as="geometry" />
        </mxCell>
        <mxCell id="OJ1lECs8hUQre6vc5IYj-190" value="Начало" style="strokeWidth=2;html=1;shape=mxgraph.flowchart.terminator;whiteSpace=wrap;" vertex="1" parent="1">
          <mxGeometry x="4131.5" y="20" width="120" height="60" as="geometry" />
        </mxCell>
        <mxCell id="OJ1lECs8hUQre6vc5IYj-195" style="edgeStyle=orthogonalEdgeStyle;rounded=0;orthogonalLoop=1;jettySize=auto;html=1;exitX=0.5;exitY=1;exitDx=0;exitDy=0;" edge="1" parent="1" source="OJ1lECs8hUQre6vc5IYj-191" target="OJ1lECs8hUQre6vc5IYj-193">
          <mxGeometry relative="1" as="geometry" />
        </mxCell>
        <mxCell id="OJ1lECs8hUQre6vc5IYj-191" value="Вызвано событие Event Interact" style="shape=process;whiteSpace=wrap;html=1;backgroundOutline=1;" vertex="1" parent="1">
          <mxGeometry x="4131.5" y="100" width="120" height="60" as="geometry" />
        </mxCell>
        <mxCell id="OJ1lECs8hUQre6vc5IYj-197" style="edgeStyle=orthogonalEdgeStyle;rounded=0;orthogonalLoop=1;jettySize=auto;html=1;exitX=0.5;exitY=1;exitDx=0;exitDy=0;entryX=0.5;entryY=0;entryDx=0;entryDy=0;" edge="1" parent="1" source="OJ1lECs8hUQre6vc5IYj-193" target="OJ1lECs8hUQre6vc5IYj-196">
          <mxGeometry relative="1" as="geometry" />
        </mxCell>
        <mxCell id="OJ1lECs8hUQre6vc5IYj-193" value="Установить переменную ссылки на компонент Component Ref ссылкой на объект взаимодействия" style="rounded=0;whiteSpace=wrap;html=1;" vertex="1" parent="1">
          <mxGeometry x="4131.5" y="180" width="120" height="90" as="geometry" />
        </mxCell>
        <mxCell id="OJ1lECs8hUQre6vc5IYj-202" value="с внутренней &lt;br&gt;дверью" style="edgeStyle=orthogonalEdgeStyle;rounded=0;orthogonalLoop=1;jettySize=auto;html=1;exitX=0;exitY=0.5;exitDx=0;exitDy=0;entryX=0.5;entryY=0;entryDx=0;entryDy=0;" edge="1" parent="1" source="OJ1lECs8hUQre6vc5IYj-196" target="OJ1lECs8hUQre6vc5IYj-199">
          <mxGeometry x="0.6923" y="38" relative="1" as="geometry">
            <mxPoint as="offset" />
          </mxGeometry>
        </mxCell>
        <mxCell id="OJ1lECs8hUQre6vc5IYj-203" value="с внешней &lt;br&gt;дверью" style="edgeStyle=orthogonalEdgeStyle;rounded=0;orthogonalLoop=1;jettySize=auto;html=1;exitX=0;exitY=0.5;exitDx=0;exitDy=0;" edge="1" parent="1" source="OJ1lECs8hUQre6vc5IYj-196" target="OJ1lECs8hUQre6vc5IYj-198">
          <mxGeometry x="0.847" y="30" relative="1" as="geometry">
            <mxPoint as="offset" />
          </mxGeometry>
        </mxCell>
        <mxCell id="OJ1lECs8hUQre6vc5IYj-204" value="с внутренней&amp;nbsp;&lt;br&gt;кнопкой" style="edgeStyle=orthogonalEdgeStyle;rounded=0;orthogonalLoop=1;jettySize=auto;html=1;exitX=1;exitY=0.5;exitDx=0;exitDy=0;" edge="1" parent="1" source="OJ1lECs8hUQre6vc5IYj-196" target="OJ1lECs8hUQre6vc5IYj-200">
          <mxGeometry x="0.8453" y="40" relative="1" as="geometry">
            <mxPoint as="offset" />
          </mxGeometry>
        </mxCell>
        <mxCell id="OJ1lECs8hUQre6vc5IYj-207" value="с внешней&lt;br&gt;кнопкой" style="edgeStyle=orthogonalEdgeStyle;rounded=0;orthogonalLoop=1;jettySize=auto;html=1;exitX=1;exitY=0.5;exitDx=0;exitDy=0;" edge="1" parent="1" source="OJ1lECs8hUQre6vc5IYj-196" target="OJ1lECs8hUQre6vc5IYj-206">
          <mxGeometry x="0.6667" y="39" relative="1" as="geometry">
            <mxPoint as="offset" />
          </mxGeometry>
        </mxCell>
        <mxCell id="OJ1lECs8hUQre6vc5IYj-196" value="С каким объектом произведено взаимодействие?" style="rhombus;whiteSpace=wrap;html=1;" vertex="1" parent="1">
          <mxGeometry x="4131.5" y="290" width="120" height="60" as="geometry" />
        </mxCell>
        <mxCell id="OJ1lECs8hUQre6vc5IYj-209" style="edgeStyle=orthogonalEdgeStyle;rounded=0;orthogonalLoop=1;jettySize=auto;html=1;exitX=0.5;exitY=1;exitDx=0;exitDy=0;" edge="1" parent="1" source="OJ1lECs8hUQre6vc5IYj-198" target="OJ1lECs8hUQre6vc5IYj-208">
          <mxGeometry relative="1" as="geometry" />
        </mxCell>
        <mxCell id="OJ1lECs8hUQre6vc5IYj-198" value="Установить целочисленную переменную switch в состояние 0" style="rounded=0;whiteSpace=wrap;html=1;" vertex="1" parent="1">
          <mxGeometry x="3870" y="380" width="120" height="60" as="geometry" />
        </mxCell>
        <mxCell id="OJ1lECs8hUQre6vc5IYj-211" style="edgeStyle=orthogonalEdgeStyle;rounded=0;orthogonalLoop=1;jettySize=auto;html=1;exitX=0.5;exitY=1;exitDx=0;exitDy=0;" edge="1" parent="1" source="OJ1lECs8hUQre6vc5IYj-199" target="OJ1lECs8hUQre6vc5IYj-208">
          <mxGeometry relative="1" as="geometry" />
        </mxCell>
        <mxCell id="OJ1lECs8hUQre6vc5IYj-199" value="Установить целочисленную переменную switch в состояние 1" style="rounded=0;whiteSpace=wrap;html=1;" vertex="1" parent="1">
          <mxGeometry x="4011.5" y="380" width="120" height="60" as="geometry" />
        </mxCell>
        <mxCell id="OJ1lECs8hUQre6vc5IYj-210" style="edgeStyle=orthogonalEdgeStyle;rounded=0;orthogonalLoop=1;jettySize=auto;html=1;exitX=0.5;exitY=1;exitDx=0;exitDy=0;" edge="1" parent="1" source="OJ1lECs8hUQre6vc5IYj-200" target="OJ1lECs8hUQre6vc5IYj-208">
          <mxGeometry relative="1" as="geometry" />
        </mxCell>
        <mxCell id="OJ1lECs8hUQre6vc5IYj-200" value="Установить целочисленную переменную switch в состояние 3" style="rounded=0;whiteSpace=wrap;html=1;" vertex="1" parent="1">
          <mxGeometry x="4390" y="380" width="120" height="60" as="geometry" />
        </mxCell>
        <mxCell id="OJ1lECs8hUQre6vc5IYj-212" style="edgeStyle=orthogonalEdgeStyle;rounded=0;orthogonalLoop=1;jettySize=auto;html=1;exitX=0.5;exitY=1;exitDx=0;exitDy=0;" edge="1" parent="1" source="OJ1lECs8hUQre6vc5IYj-206" target="OJ1lECs8hUQre6vc5IYj-208">
          <mxGeometry relative="1" as="geometry" />
        </mxCell>
        <mxCell id="OJ1lECs8hUQre6vc5IYj-206" value="Установить целочисленную переменную switch в состояние 2" style="rounded=0;whiteSpace=wrap;html=1;" vertex="1" parent="1">
          <mxGeometry x="4251.5" y="380" width="120" height="60" as="geometry" />
        </mxCell>
        <mxCell id="OJ1lECs8hUQre6vc5IYj-214" value="0" style="edgeStyle=orthogonalEdgeStyle;rounded=0;orthogonalLoop=1;jettySize=auto;html=1;exitX=0;exitY=0.5;exitDx=0;exitDy=0;entryX=0.5;entryY=0;entryDx=0;entryDy=0;" edge="1" parent="1" source="OJ1lECs8hUQre6vc5IYj-208" target="OJ1lECs8hUQre6vc5IYj-213">
          <mxGeometry x="0.9608" y="10" relative="1" as="geometry">
            <mxPoint as="offset" />
          </mxGeometry>
        </mxCell>
        <mxCell id="OJ1lECs8hUQre6vc5IYj-226" value="1" style="edgeStyle=orthogonalEdgeStyle;rounded=0;orthogonalLoop=1;jettySize=auto;html=1;exitX=0;exitY=0.5;exitDx=0;exitDy=0;entryX=0.5;entryY=0;entryDx=0;entryDy=0;" edge="1" parent="1" source="OJ1lECs8hUQre6vc5IYj-208" target="OJ1lECs8hUQre6vc5IYj-225">
          <mxGeometry x="0.9259" y="10" relative="1" as="geometry">
            <mxPoint as="offset" />
          </mxGeometry>
        </mxCell>
        <mxCell id="OJ1lECs8hUQre6vc5IYj-341" value="2" style="edgeStyle=orthogonalEdgeStyle;rounded=0;orthogonalLoop=1;jettySize=auto;html=1;exitX=1;exitY=0.5;exitDx=0;exitDy=0;entryX=0.5;entryY=0;entryDx=0;entryDy=0;" edge="1" parent="1" source="OJ1lECs8hUQre6vc5IYj-208" target="OJ1lECs8hUQre6vc5IYj-340">
          <mxGeometry x="0.9535" y="10" relative="1" as="geometry">
            <mxPoint as="offset" />
          </mxGeometry>
        </mxCell>
        <mxCell id="OJ1lECs8hUQre6vc5IYj-345" value="3" style="edgeStyle=orthogonalEdgeStyle;rounded=0;orthogonalLoop=1;jettySize=auto;html=1;exitX=1;exitY=0.5;exitDx=0;exitDy=0;entryX=0.5;entryY=0;entryDx=0;entryDy=0;" edge="1" parent="1" source="OJ1lECs8hUQre6vc5IYj-208" target="OJ1lECs8hUQre6vc5IYj-344">
          <mxGeometry x="0.9688" y="10" relative="1" as="geometry">
            <mxPoint as="offset" />
          </mxGeometry>
        </mxCell>
        <mxCell id="OJ1lECs8hUQre6vc5IYj-208" value="switch ==&amp;nbsp;" style="rhombus;whiteSpace=wrap;html=1;" vertex="1" parent="1">
          <mxGeometry x="4120" y="480" width="120" height="60" as="geometry" />
        </mxCell>
        <mxCell id="OJ1lECs8hUQre6vc5IYj-223" value="да" style="edgeStyle=orthogonalEdgeStyle;rounded=0;orthogonalLoop=1;jettySize=auto;html=1;exitX=1;exitY=0.5;exitDx=0;exitDy=0;entryX=0.5;entryY=0;entryDx=0;entryDy=0;" edge="1" parent="1" source="OJ1lECs8hUQre6vc5IYj-213" target="OJ1lECs8hUQre6vc5IYj-215">
          <mxGeometry x="-0.7445" y="10" relative="1" as="geometry">
            <mxPoint as="offset" />
          </mxGeometry>
        </mxCell>
        <mxCell id="OJ1lECs8hUQre6vc5IYj-233" value="нет" style="edgeStyle=orthogonalEdgeStyle;rounded=0;orthogonalLoop=1;jettySize=auto;html=1;exitX=0;exitY=0.5;exitDx=0;exitDy=0;entryX=0.5;entryY=0;entryDx=0;entryDy=0;" edge="1" parent="1" source="OJ1lECs8hUQre6vc5IYj-213" target="OJ1lECs8hUQre6vc5IYj-232">
          <mxGeometry x="-0.779" y="-10" relative="1" as="geometry">
            <mxPoint as="offset" />
          </mxGeometry>
        </mxCell>
        <mxCell id="OJ1lECs8hUQre6vc5IYj-213" value="Включена ли&amp;nbsp;&lt;br&gt;УФ-лампа?" style="rhombus;whiteSpace=wrap;html=1;" vertex="1" parent="1">
          <mxGeometry x="3580" y="540" width="120" height="60" as="geometry" />
        </mxCell>
        <mxCell id="OJ1lECs8hUQre6vc5IYj-224" style="edgeStyle=orthogonalEdgeStyle;rounded=0;orthogonalLoop=1;jettySize=auto;html=1;exitX=0.5;exitY=1;exitDx=0;exitDy=0;entryX=0.5;entryY=0;entryDx=0;entryDy=0;" edge="1" parent="1" source="OJ1lECs8hUQre6vc5IYj-215" target="OJ1lECs8hUQre6vc5IYj-217">
          <mxGeometry relative="1" as="geometry" />
        </mxCell>
        <mxCell id="OJ1lECs8hUQre6vc5IYj-215" value="Получить ссылку на объекты класса Hud" style="rounded=0;whiteSpace=wrap;html=1;" vertex="1" parent="1">
          <mxGeometry x="3700" y="599" width="120" height="60" as="geometry" />
        </mxCell>
        <mxCell id="OJ1lECs8hUQre6vc5IYj-216" style="edgeStyle=orthogonalEdgeStyle;rounded=0;orthogonalLoop=1;jettySize=auto;html=1;exitX=0.5;exitY=1;exitDx=0;exitDy=0;" edge="1" parent="1" source="OJ1lECs8hUQre6vc5IYj-217" target="OJ1lECs8hUQre6vc5IYj-219">
          <mxGeometry relative="1" as="geometry" />
        </mxCell>
        <mxCell id="OJ1lECs8hUQre6vc5IYj-217" value="Отобразить сообщение&lt;br&gt;&amp;nbsp;&quot;Во время работы УФ-лампы открытие шлюза запрещено&quot;" style="rounded=0;whiteSpace=wrap;html=1;" vertex="1" parent="1">
          <mxGeometry x="3700" y="679" width="120" height="70" as="geometry" />
        </mxCell>
        <mxCell id="OJ1lECs8hUQre6vc5IYj-218" style="edgeStyle=orthogonalEdgeStyle;rounded=0;orthogonalLoop=1;jettySize=auto;html=1;exitX=0.5;exitY=1;exitDx=0;exitDy=0;" edge="1" parent="1" source="OJ1lECs8hUQre6vc5IYj-219" target="OJ1lECs8hUQre6vc5IYj-222">
          <mxGeometry relative="1" as="geometry" />
        </mxCell>
        <mxCell id="OJ1lECs8hUQre6vc5IYj-219" value="Задержка 2 секунды" style="rounded=0;whiteSpace=wrap;html=1;" vertex="1" parent="1">
          <mxGeometry x="3700" y="769" width="120" height="60" as="geometry" />
        </mxCell>
        <mxCell id="OJ1lECs8hUQre6vc5IYj-230" style="edgeStyle=orthogonalEdgeStyle;rounded=0;orthogonalLoop=1;jettySize=auto;html=1;exitX=0.5;exitY=1;exitDx=0;exitDy=0;entryX=0.5;entryY=0;entryDx=0;entryDy=0;entryPerimeter=0;" edge="1" parent="1" source="OJ1lECs8hUQre6vc5IYj-220" target="OJ1lECs8hUQre6vc5IYj-228">
          <mxGeometry relative="1" as="geometry" />
        </mxCell>
        <mxCell id="OJ1lECs8hUQre6vc5IYj-220" value="Скрыть отображение сообщения на экране" style="rounded=0;whiteSpace=wrap;html=1;" vertex="1" parent="1">
          <mxGeometry x="3700" y="929" width="120" height="60" as="geometry" />
        </mxCell>
        <mxCell id="OJ1lECs8hUQre6vc5IYj-221" style="edgeStyle=orthogonalEdgeStyle;rounded=0;orthogonalLoop=1;jettySize=auto;html=1;exitX=0.5;exitY=1;exitDx=0;exitDy=0;" edge="1" parent="1" source="OJ1lECs8hUQre6vc5IYj-222" target="OJ1lECs8hUQre6vc5IYj-220">
          <mxGeometry relative="1" as="geometry" />
        </mxCell>
        <mxCell id="OJ1lECs8hUQre6vc5IYj-222" value="Получить ссылку на объекты класса Hud" style="rounded=0;whiteSpace=wrap;html=1;" vertex="1" parent="1">
          <mxGeometry x="3700" y="849" width="120" height="60" as="geometry" />
        </mxCell>
        <mxCell id="OJ1lECs8hUQre6vc5IYj-227" value="да" style="edgeStyle=orthogonalEdgeStyle;rounded=0;orthogonalLoop=1;jettySize=auto;html=1;exitX=0;exitY=0.5;exitDx=0;exitDy=0;entryX=0.5;entryY=0;entryDx=0;entryDy=0;" edge="1" parent="1" source="OJ1lECs8hUQre6vc5IYj-225" target="OJ1lECs8hUQre6vc5IYj-215">
          <mxGeometry x="-0.7814" y="-10" relative="1" as="geometry">
            <mxPoint as="offset" />
          </mxGeometry>
        </mxCell>
        <mxCell id="OJ1lECs8hUQre6vc5IYj-259" value="нет" style="edgeStyle=orthogonalEdgeStyle;rounded=0;orthogonalLoop=1;jettySize=auto;html=1;exitX=1;exitY=0.5;exitDx=0;exitDy=0;entryX=0.5;entryY=0;entryDx=0;entryDy=0;" edge="1" parent="1" source="OJ1lECs8hUQre6vc5IYj-225" target="OJ1lECs8hUQre6vc5IYj-247">
          <mxGeometry x="-0.6899" y="10" relative="1" as="geometry">
            <mxPoint as="offset" />
          </mxGeometry>
        </mxCell>
        <mxCell id="OJ1lECs8hUQre6vc5IYj-225" value="Включена ли&amp;nbsp;&lt;br&gt;УФ-лампа?" style="rhombus;whiteSpace=wrap;html=1;" vertex="1" parent="1">
          <mxGeometry x="3820" y="540" width="120" height="60" as="geometry" />
        </mxCell>
        <mxCell id="OJ1lECs8hUQre6vc5IYj-228" value="Конец" style="strokeWidth=2;html=1;shape=mxgraph.flowchart.terminator;whiteSpace=wrap;" vertex="1" parent="1">
          <mxGeometry x="3701.5" y="1008" width="120" height="60" as="geometry" />
        </mxCell>
        <mxCell id="OJ1lECs8hUQre6vc5IYj-245" value="да" style="edgeStyle=orthogonalEdgeStyle;rounded=0;orthogonalLoop=1;jettySize=auto;html=1;exitX=1;exitY=0.5;exitDx=0;exitDy=0;" edge="1" parent="1" source="OJ1lECs8hUQre6vc5IYj-232" target="OJ1lECs8hUQre6vc5IYj-235">
          <mxGeometry x="-0.3388" y="9" relative="1" as="geometry">
            <mxPoint as="offset" />
          </mxGeometry>
        </mxCell>
        <mxCell id="OJ1lECs8hUQre6vc5IYj-261" value="нет" style="edgeStyle=orthogonalEdgeStyle;rounded=0;orthogonalLoop=1;jettySize=auto;html=1;exitX=0;exitY=0.5;exitDx=0;exitDy=0;entryX=0.5;entryY=0;entryDx=0;entryDy=0;" edge="1" parent="1" source="OJ1lECs8hUQre6vc5IYj-232" target="OJ1lECs8hUQre6vc5IYj-260">
          <mxGeometry x="-0.5554" y="-9" relative="1" as="geometry">
            <mxPoint as="offset" />
          </mxGeometry>
        </mxCell>
        <mxCell id="OJ1lECs8hUQre6vc5IYj-232" value="Открыта ли внутренняя дверь?" style="rhombus;whiteSpace=wrap;html=1;" vertex="1" parent="1">
          <mxGeometry x="3430" y="599" width="120" height="60" as="geometry" />
        </mxCell>
        <mxCell id="OJ1lECs8hUQre6vc5IYj-234" style="edgeStyle=orthogonalEdgeStyle;rounded=0;orthogonalLoop=1;jettySize=auto;html=1;exitX=0.5;exitY=1;exitDx=0;exitDy=0;entryX=0.5;entryY=0;entryDx=0;entryDy=0;" edge="1" parent="1" source="OJ1lECs8hUQre6vc5IYj-235" target="OJ1lECs8hUQre6vc5IYj-237">
          <mxGeometry relative="1" as="geometry" />
        </mxCell>
        <mxCell id="OJ1lECs8hUQre6vc5IYj-235" value="Получить ссылку на объекты класса Hud" style="rounded=0;whiteSpace=wrap;html=1;" vertex="1" parent="1">
          <mxGeometry x="3550" y="660" width="120" height="60" as="geometry" />
        </mxCell>
        <mxCell id="OJ1lECs8hUQre6vc5IYj-236" style="edgeStyle=orthogonalEdgeStyle;rounded=0;orthogonalLoop=1;jettySize=auto;html=1;exitX=0.5;exitY=1;exitDx=0;exitDy=0;" edge="1" parent="1" source="OJ1lECs8hUQre6vc5IYj-237" target="OJ1lECs8hUQre6vc5IYj-239">
          <mxGeometry relative="1" as="geometry" />
        </mxCell>
        <mxCell id="OJ1lECs8hUQre6vc5IYj-237" value="Отобразить сообщение&lt;br&gt;&amp;nbsp;&quot;Закройте &lt;br&gt;обратный шлюз&quot;" style="rounded=0;whiteSpace=wrap;html=1;" vertex="1" parent="1">
          <mxGeometry x="3550" y="740" width="120" height="70" as="geometry" />
        </mxCell>
        <mxCell id="OJ1lECs8hUQre6vc5IYj-238" style="edgeStyle=orthogonalEdgeStyle;rounded=0;orthogonalLoop=1;jettySize=auto;html=1;exitX=0.5;exitY=1;exitDx=0;exitDy=0;" edge="1" parent="1" source="OJ1lECs8hUQre6vc5IYj-239" target="OJ1lECs8hUQre6vc5IYj-243">
          <mxGeometry relative="1" as="geometry" />
        </mxCell>
        <mxCell id="OJ1lECs8hUQre6vc5IYj-239" value="Задержка 2 секунды" style="rounded=0;whiteSpace=wrap;html=1;" vertex="1" parent="1">
          <mxGeometry x="3550" y="830" width="120" height="60" as="geometry" />
        </mxCell>
        <mxCell id="OJ1lECs8hUQre6vc5IYj-240" style="edgeStyle=orthogonalEdgeStyle;rounded=0;orthogonalLoop=1;jettySize=auto;html=1;exitX=0.5;exitY=1;exitDx=0;exitDy=0;entryX=0.5;entryY=0;entryDx=0;entryDy=0;entryPerimeter=0;" edge="1" parent="1" source="OJ1lECs8hUQre6vc5IYj-241" target="OJ1lECs8hUQre6vc5IYj-244">
          <mxGeometry relative="1" as="geometry" />
        </mxCell>
        <mxCell id="OJ1lECs8hUQre6vc5IYj-241" value="Скрыть отображение сообщения на экране" style="rounded=0;whiteSpace=wrap;html=1;" vertex="1" parent="1">
          <mxGeometry x="3550" y="990" width="120" height="60" as="geometry" />
        </mxCell>
        <mxCell id="OJ1lECs8hUQre6vc5IYj-242" style="edgeStyle=orthogonalEdgeStyle;rounded=0;orthogonalLoop=1;jettySize=auto;html=1;exitX=0.5;exitY=1;exitDx=0;exitDy=0;" edge="1" parent="1" source="OJ1lECs8hUQre6vc5IYj-243" target="OJ1lECs8hUQre6vc5IYj-241">
          <mxGeometry relative="1" as="geometry" />
        </mxCell>
        <mxCell id="OJ1lECs8hUQre6vc5IYj-243" value="Получить ссылку на объекты класса Hud" style="rounded=0;whiteSpace=wrap;html=1;" vertex="1" parent="1">
          <mxGeometry x="3550" y="910" width="120" height="60" as="geometry" />
        </mxCell>
        <mxCell id="OJ1lECs8hUQre6vc5IYj-244" value="Конец" style="strokeWidth=2;html=1;shape=mxgraph.flowchart.terminator;whiteSpace=wrap;" vertex="1" parent="1">
          <mxGeometry x="3551.5" y="1069" width="120" height="60" as="geometry" />
        </mxCell>
        <mxCell id="OJ1lECs8hUQre6vc5IYj-246" value="да" style="edgeStyle=orthogonalEdgeStyle;rounded=0;orthogonalLoop=1;jettySize=auto;html=1;exitX=0;exitY=0.5;exitDx=0;exitDy=0;" edge="1" parent="1" source="OJ1lECs8hUQre6vc5IYj-247" target="OJ1lECs8hUQre6vc5IYj-249">
          <mxGeometry x="-0.5605" y="-9" relative="1" as="geometry">
            <mxPoint as="offset" />
          </mxGeometry>
        </mxCell>
        <mxCell id="OJ1lECs8hUQre6vc5IYj-339" value="нет" style="edgeStyle=orthogonalEdgeStyle;rounded=0;orthogonalLoop=1;jettySize=auto;html=1;exitX=1;exitY=0.5;exitDx=0;exitDy=0;" edge="1" parent="1" source="OJ1lECs8hUQre6vc5IYj-247" target="OJ1lECs8hUQre6vc5IYj-302">
          <mxGeometry x="-0.6694" y="9" relative="1" as="geometry">
            <mxPoint as="offset" />
          </mxGeometry>
        </mxCell>
        <mxCell id="OJ1lECs8hUQre6vc5IYj-247" value="Открыта ли внешняя дверь?" style="rhombus;whiteSpace=wrap;html=1;" vertex="1" parent="1">
          <mxGeometry x="3970" y="599" width="120" height="60" as="geometry" />
        </mxCell>
        <mxCell id="OJ1lECs8hUQre6vc5IYj-248" style="edgeStyle=orthogonalEdgeStyle;rounded=0;orthogonalLoop=1;jettySize=auto;html=1;exitX=0.5;exitY=1;exitDx=0;exitDy=0;entryX=0.5;entryY=0;entryDx=0;entryDy=0;" edge="1" parent="1" source="OJ1lECs8hUQre6vc5IYj-249" target="OJ1lECs8hUQre6vc5IYj-251">
          <mxGeometry relative="1" as="geometry" />
        </mxCell>
        <mxCell id="OJ1lECs8hUQre6vc5IYj-249" value="Получить ссылку на объекты класса Hud" style="rounded=0;whiteSpace=wrap;html=1;" vertex="1" parent="1">
          <mxGeometry x="3850" y="660" width="120" height="60" as="geometry" />
        </mxCell>
        <mxCell id="OJ1lECs8hUQre6vc5IYj-250" style="edgeStyle=orthogonalEdgeStyle;rounded=0;orthogonalLoop=1;jettySize=auto;html=1;exitX=0.5;exitY=1;exitDx=0;exitDy=0;" edge="1" parent="1" source="OJ1lECs8hUQre6vc5IYj-251" target="OJ1lECs8hUQre6vc5IYj-253">
          <mxGeometry relative="1" as="geometry" />
        </mxCell>
        <mxCell id="OJ1lECs8hUQre6vc5IYj-251" value="Отобразить сообщение&lt;br&gt;&amp;nbsp;&quot;Закройте &lt;br&gt;обратный шлюз&quot;" style="rounded=0;whiteSpace=wrap;html=1;" vertex="1" parent="1">
          <mxGeometry x="3850" y="740" width="120" height="70" as="geometry" />
        </mxCell>
        <mxCell id="OJ1lECs8hUQre6vc5IYj-252" style="edgeStyle=orthogonalEdgeStyle;rounded=0;orthogonalLoop=1;jettySize=auto;html=1;exitX=0.5;exitY=1;exitDx=0;exitDy=0;" edge="1" parent="1" source="OJ1lECs8hUQre6vc5IYj-253" target="OJ1lECs8hUQre6vc5IYj-257">
          <mxGeometry relative="1" as="geometry" />
        </mxCell>
        <mxCell id="OJ1lECs8hUQre6vc5IYj-253" value="Задержка 2 секунды" style="rounded=0;whiteSpace=wrap;html=1;" vertex="1" parent="1">
          <mxGeometry x="3850" y="830" width="120" height="60" as="geometry" />
        </mxCell>
        <mxCell id="OJ1lECs8hUQre6vc5IYj-254" style="edgeStyle=orthogonalEdgeStyle;rounded=0;orthogonalLoop=1;jettySize=auto;html=1;exitX=0.5;exitY=1;exitDx=0;exitDy=0;entryX=0.5;entryY=0;entryDx=0;entryDy=0;entryPerimeter=0;" edge="1" parent="1" source="OJ1lECs8hUQre6vc5IYj-255" target="OJ1lECs8hUQre6vc5IYj-258">
          <mxGeometry relative="1" as="geometry" />
        </mxCell>
        <mxCell id="OJ1lECs8hUQre6vc5IYj-255" value="Скрыть отображение сообщения на экране" style="rounded=0;whiteSpace=wrap;html=1;" vertex="1" parent="1">
          <mxGeometry x="3850" y="990" width="120" height="60" as="geometry" />
        </mxCell>
        <mxCell id="OJ1lECs8hUQre6vc5IYj-256" style="edgeStyle=orthogonalEdgeStyle;rounded=0;orthogonalLoop=1;jettySize=auto;html=1;exitX=0.5;exitY=1;exitDx=0;exitDy=0;" edge="1" parent="1" source="OJ1lECs8hUQre6vc5IYj-257" target="OJ1lECs8hUQre6vc5IYj-255">
          <mxGeometry relative="1" as="geometry" />
        </mxCell>
        <mxCell id="OJ1lECs8hUQre6vc5IYj-257" value="Получить ссылку на объекты класса Hud" style="rounded=0;whiteSpace=wrap;html=1;" vertex="1" parent="1">
          <mxGeometry x="3850" y="910" width="120" height="60" as="geometry" />
        </mxCell>
        <mxCell id="OJ1lECs8hUQre6vc5IYj-258" value="Конец" style="strokeWidth=2;html=1;shape=mxgraph.flowchart.terminator;whiteSpace=wrap;" vertex="1" parent="1">
          <mxGeometry x="3850" y="1069" width="120" height="60" as="geometry" />
        </mxCell>
        <mxCell id="OJ1lECs8hUQre6vc5IYj-263" style="edgeStyle=orthogonalEdgeStyle;rounded=0;orthogonalLoop=1;jettySize=auto;html=1;exitX=0.5;exitY=1;exitDx=0;exitDy=0;entryX=0.5;entryY=0;entryDx=0;entryDy=0;" edge="1" parent="1" source="OJ1lECs8hUQre6vc5IYj-260" target="OJ1lECs8hUQre6vc5IYj-262">
          <mxGeometry relative="1" as="geometry" />
        </mxCell>
        <mxCell id="OJ1lECs8hUQre6vc5IYj-260" value="Установить булеву переменную outDoorIsOpen в обратное состояние" style="rounded=0;whiteSpace=wrap;html=1;" vertex="1" parent="1">
          <mxGeometry x="3280" y="659" width="120" height="60" as="geometry" />
        </mxCell>
        <mxCell id="OJ1lECs8hUQre6vc5IYj-265" value="нет" style="edgeStyle=orthogonalEdgeStyle;rounded=0;orthogonalLoop=1;jettySize=auto;html=1;exitX=1;exitY=0.5;exitDx=0;exitDy=0;" edge="1" parent="1" source="OJ1lECs8hUQre6vc5IYj-262" target="OJ1lECs8hUQre6vc5IYj-264">
          <mxGeometry x="-0.1111" y="10" relative="1" as="geometry">
            <mxPoint as="offset" />
          </mxGeometry>
        </mxCell>
        <mxCell id="OJ1lECs8hUQre6vc5IYj-268" value="да" style="edgeStyle=orthogonalEdgeStyle;rounded=0;orthogonalLoop=1;jettySize=auto;html=1;exitX=0;exitY=0.5;exitDx=0;exitDy=0;" edge="1" parent="1" source="OJ1lECs8hUQre6vc5IYj-262" target="OJ1lECs8hUQre6vc5IYj-267">
          <mxGeometry x="-0.1111" y="-10" relative="1" as="geometry">
            <mxPoint as="offset" />
          </mxGeometry>
        </mxCell>
        <mxCell id="OJ1lECs8hUQre6vc5IYj-262" value="Открыта ли внешняя дверь?" style="rhombus;whiteSpace=wrap;html=1;" vertex="1" parent="1">
          <mxGeometry x="3280" y="740" width="120" height="60" as="geometry" />
        </mxCell>
        <mxCell id="OJ1lECs8hUQre6vc5IYj-272" style="edgeStyle=orthogonalEdgeStyle;rounded=0;orthogonalLoop=1;jettySize=auto;html=1;exitX=0.5;exitY=1;exitDx=0;exitDy=0;entryX=0.5;entryY=0;entryDx=0;entryDy=0;" edge="1" parent="1" source="OJ1lECs8hUQre6vc5IYj-264" target="OJ1lECs8hUQre6vc5IYj-271">
          <mxGeometry relative="1" as="geometry" />
        </mxCell>
        <mxCell id="OJ1lECs8hUQre6vc5IYj-264" value="Установить цвет индикатора открытого шлюза на зеленый" style="rounded=0;whiteSpace=wrap;html=1;" vertex="1" parent="1">
          <mxGeometry x="3400" y="800" width="120" height="60" as="geometry" />
        </mxCell>
        <mxCell id="OJ1lECs8hUQre6vc5IYj-270" style="edgeStyle=orthogonalEdgeStyle;rounded=0;orthogonalLoop=1;jettySize=auto;html=1;exitX=0.5;exitY=1;exitDx=0;exitDy=0;" edge="1" parent="1" source="OJ1lECs8hUQre6vc5IYj-267" target="OJ1lECs8hUQre6vc5IYj-269">
          <mxGeometry relative="1" as="geometry" />
        </mxCell>
        <mxCell id="OJ1lECs8hUQre6vc5IYj-267" value="Установить цвет индикатора открытого шлюза на красный" style="rounded=0;whiteSpace=wrap;html=1;" vertex="1" parent="1">
          <mxGeometry x="3160" y="800" width="120" height="60" as="geometry" />
        </mxCell>
        <mxCell id="OJ1lECs8hUQre6vc5IYj-275" style="edgeStyle=orthogonalEdgeStyle;rounded=0;orthogonalLoop=1;jettySize=auto;html=1;exitX=0.5;exitY=1;exitDx=0;exitDy=0;" edge="1" parent="1" source="OJ1lECs8hUQre6vc5IYj-269" target="OJ1lECs8hUQre6vc5IYj-273">
          <mxGeometry relative="1" as="geometry" />
        </mxCell>
        <mxCell id="OJ1lECs8hUQre6vc5IYj-269" value="Изменить тип коллизии объекта SM-door-out на &quot;BlockDoors&quot;" style="rounded=0;whiteSpace=wrap;html=1;" vertex="1" parent="1">
          <mxGeometry x="3160" y="880" width="120" height="60" as="geometry" />
        </mxCell>
        <mxCell id="OJ1lECs8hUQre6vc5IYj-276" style="edgeStyle=orthogonalEdgeStyle;rounded=0;orthogonalLoop=1;jettySize=auto;html=1;exitX=0.5;exitY=1;exitDx=0;exitDy=0;" edge="1" parent="1" source="OJ1lECs8hUQre6vc5IYj-271" target="OJ1lECs8hUQre6vc5IYj-274">
          <mxGeometry relative="1" as="geometry" />
        </mxCell>
        <mxCell id="OJ1lECs8hUQre6vc5IYj-271" value="Изменить тип коллизии объекта SM-door-out на &quot;BlockDoors&quot;" style="rounded=0;whiteSpace=wrap;html=1;" vertex="1" parent="1">
          <mxGeometry x="3400" y="880" width="120" height="60" as="geometry" />
        </mxCell>
        <mxCell id="OJ1lECs8hUQre6vc5IYj-284" style="edgeStyle=orthogonalEdgeStyle;rounded=0;orthogonalLoop=1;jettySize=auto;html=1;exitX=0.5;exitY=1;exitDx=0;exitDy=0;entryX=0.5;entryY=0;entryDx=0;entryDy=0;" edge="1" parent="1" source="OJ1lECs8hUQre6vc5IYj-273" target="OJ1lECs8hUQre6vc5IYj-278">
          <mxGeometry relative="1" as="geometry" />
        </mxCell>
        <mxCell id="OJ1lECs8hUQre6vc5IYj-273" value="Изменить тип коллизии объекта SM-button-out на &quot;BlockDoors&quot;" style="rounded=0;whiteSpace=wrap;html=1;" vertex="1" parent="1">
          <mxGeometry x="3160" y="960" width="120" height="60" as="geometry" />
        </mxCell>
        <mxCell id="OJ1lECs8hUQre6vc5IYj-292" style="edgeStyle=orthogonalEdgeStyle;rounded=0;orthogonalLoop=1;jettySize=auto;html=1;exitX=0.5;exitY=1;exitDx=0;exitDy=0;" edge="1" parent="1" source="OJ1lECs8hUQre6vc5IYj-274" target="OJ1lECs8hUQre6vc5IYj-286">
          <mxGeometry relative="1" as="geometry" />
        </mxCell>
        <mxCell id="OJ1lECs8hUQre6vc5IYj-274" value="Изменить тип коллизии объекта SM-button-out на &quot;BlockDoors&quot;" style="rounded=0;whiteSpace=wrap;html=1;" vertex="1" parent="1">
          <mxGeometry x="3400" y="960" width="120" height="60" as="geometry" />
        </mxCell>
        <mxCell id="OJ1lECs8hUQre6vc5IYj-277" style="edgeStyle=orthogonalEdgeStyle;rounded=0;orthogonalLoop=1;jettySize=auto;html=1;exitX=0.5;exitY=1;exitDx=0;exitDy=0;" edge="1" parent="1" source="OJ1lECs8hUQre6vc5IYj-278" target="OJ1lECs8hUQre6vc5IYj-280">
          <mxGeometry relative="1" as="geometry" />
        </mxCell>
        <mxCell id="OJ1lECs8hUQre6vc5IYj-278" value="Пока не закончится график кривой" style="shape=loopLimit;whiteSpace=wrap;html=1;" vertex="1" parent="1">
          <mxGeometry x="3160" y="1039" width="120" height="60" as="geometry" />
        </mxCell>
        <mxCell id="OJ1lECs8hUQre6vc5IYj-279" style="edgeStyle=orthogonalEdgeStyle;rounded=0;orthogonalLoop=1;jettySize=auto;html=1;exitX=0.5;exitY=1;exitDx=0;exitDy=0;" edge="1" parent="1" source="OJ1lECs8hUQre6vc5IYj-280" target="OJ1lECs8hUQre6vc5IYj-282">
          <mxGeometry relative="1" as="geometry" />
        </mxCell>
        <mxCell id="OJ1lECs8hUQre6vc5IYj-280" value="Изменять переменную Rotation Track по графику кривой" style="rounded=0;whiteSpace=wrap;html=1;" vertex="1" parent="1">
          <mxGeometry x="3160" y="1119" width="120" height="60" as="geometry" />
        </mxCell>
        <mxCell id="OJ1lECs8hUQre6vc5IYj-281" style="edgeStyle=orthogonalEdgeStyle;rounded=0;orthogonalLoop=1;jettySize=auto;html=1;exitX=0.5;exitY=1;exitDx=0;exitDy=0;" edge="1" parent="1" source="OJ1lECs8hUQre6vc5IYj-282" target="OJ1lECs8hUQre6vc5IYj-283">
          <mxGeometry relative="1" as="geometry" />
        </mxCell>
        <mxCell id="OJ1lECs8hUQre6vc5IYj-282" value="Установить относительное вращение компонента SM-door-out переменной Rotation Track" style="rounded=0;whiteSpace=wrap;html=1;" vertex="1" parent="1">
          <mxGeometry x="3160" y="1199" width="120" height="100" as="geometry" />
        </mxCell>
        <mxCell id="OJ1lECs8hUQre6vc5IYj-294" style="edgeStyle=orthogonalEdgeStyle;rounded=0;orthogonalLoop=1;jettySize=auto;html=1;exitX=0.5;exitY=0;exitDx=0;exitDy=0;entryX=0.5;entryY=0;entryDx=0;entryDy=0;" edge="1" parent="1" source="OJ1lECs8hUQre6vc5IYj-283" target="OJ1lECs8hUQre6vc5IYj-293">
          <mxGeometry relative="1" as="geometry" />
        </mxCell>
        <mxCell id="OJ1lECs8hUQre6vc5IYj-283" value="" style="shape=loopLimit;whiteSpace=wrap;html=1;rotation=-180;" vertex="1" parent="1">
          <mxGeometry x="3160" y="1319" width="120" height="60" as="geometry" />
        </mxCell>
        <mxCell id="OJ1lECs8hUQre6vc5IYj-285" style="edgeStyle=orthogonalEdgeStyle;rounded=0;orthogonalLoop=1;jettySize=auto;html=1;exitX=0.5;exitY=1;exitDx=0;exitDy=0;" edge="1" parent="1" source="OJ1lECs8hUQre6vc5IYj-286" target="OJ1lECs8hUQre6vc5IYj-288">
          <mxGeometry relative="1" as="geometry" />
        </mxCell>
        <mxCell id="OJ1lECs8hUQre6vc5IYj-286" value="Пока не закончится график кривой в обратном направлении" style="shape=loopLimit;whiteSpace=wrap;html=1;" vertex="1" parent="1">
          <mxGeometry x="3400" y="1039" width="120" height="60" as="geometry" />
        </mxCell>
        <mxCell id="OJ1lECs8hUQre6vc5IYj-287" style="edgeStyle=orthogonalEdgeStyle;rounded=0;orthogonalLoop=1;jettySize=auto;html=1;exitX=0.5;exitY=1;exitDx=0;exitDy=0;" edge="1" parent="1" source="OJ1lECs8hUQre6vc5IYj-288" target="OJ1lECs8hUQre6vc5IYj-290">
          <mxGeometry relative="1" as="geometry" />
        </mxCell>
        <mxCell id="OJ1lECs8hUQre6vc5IYj-288" value="Изменять переменную Rotation Track по графику кривой" style="rounded=0;whiteSpace=wrap;html=1;" vertex="1" parent="1">
          <mxGeometry x="3400" y="1119" width="120" height="60" as="geometry" />
        </mxCell>
        <mxCell id="OJ1lECs8hUQre6vc5IYj-289" style="edgeStyle=orthogonalEdgeStyle;rounded=0;orthogonalLoop=1;jettySize=auto;html=1;exitX=0.5;exitY=1;exitDx=0;exitDy=0;" edge="1" parent="1" source="OJ1lECs8hUQre6vc5IYj-290" target="OJ1lECs8hUQre6vc5IYj-291">
          <mxGeometry relative="1" as="geometry" />
        </mxCell>
        <mxCell id="OJ1lECs8hUQre6vc5IYj-290" value="Установить относительное вращение компонента SM-door-out переменной Rotation Track" style="rounded=0;whiteSpace=wrap;html=1;" vertex="1" parent="1">
          <mxGeometry x="3400" y="1199" width="120" height="100" as="geometry" />
        </mxCell>
        <mxCell id="OJ1lECs8hUQre6vc5IYj-296" style="edgeStyle=orthogonalEdgeStyle;rounded=0;orthogonalLoop=1;jettySize=auto;html=1;exitX=0.5;exitY=0;exitDx=0;exitDy=0;" edge="1" parent="1" source="OJ1lECs8hUQre6vc5IYj-291" target="OJ1lECs8hUQre6vc5IYj-293">
          <mxGeometry relative="1" as="geometry" />
        </mxCell>
        <mxCell id="OJ1lECs8hUQre6vc5IYj-291" value="" style="shape=loopLimit;whiteSpace=wrap;html=1;rotation=-180;" vertex="1" parent="1">
          <mxGeometry x="3400" y="1319" width="120" height="60" as="geometry" />
        </mxCell>
        <mxCell id="OJ1lECs8hUQre6vc5IYj-298" style="edgeStyle=orthogonalEdgeStyle;rounded=0;orthogonalLoop=1;jettySize=auto;html=1;exitX=0.5;exitY=1;exitDx=0;exitDy=0;" edge="1" parent="1" source="OJ1lECs8hUQre6vc5IYj-293" target="OJ1lECs8hUQre6vc5IYj-297">
          <mxGeometry relative="1" as="geometry" />
        </mxCell>
        <mxCell id="OJ1lECs8hUQre6vc5IYj-293" value="Изменить тип коллизии объекта SM-door-out на &quot;BlockAllDynamic&quot;" style="rounded=0;whiteSpace=wrap;html=1;" vertex="1" parent="1">
          <mxGeometry x="3280" y="1419" width="120" height="60" as="geometry" />
        </mxCell>
        <mxCell id="OJ1lECs8hUQre6vc5IYj-300" style="edgeStyle=orthogonalEdgeStyle;rounded=0;orthogonalLoop=1;jettySize=auto;html=1;exitX=0.5;exitY=1;exitDx=0;exitDy=0;" edge="1" parent="1" source="OJ1lECs8hUQre6vc5IYj-297" target="OJ1lECs8hUQre6vc5IYj-299">
          <mxGeometry relative="1" as="geometry" />
        </mxCell>
        <mxCell id="OJ1lECs8hUQre6vc5IYj-297" value="Изменить тип коллизии объекта SM-button-out на &quot;BlockAllDynamic&quot;" style="rounded=0;whiteSpace=wrap;html=1;" vertex="1" parent="1">
          <mxGeometry x="3280" y="1499" width="120" height="60" as="geometry" />
        </mxCell>
        <mxCell id="OJ1lECs8hUQre6vc5IYj-299" value="Конец" style="strokeWidth=2;html=1;shape=mxgraph.flowchart.terminator;whiteSpace=wrap;" vertex="1" parent="1">
          <mxGeometry x="3280" y="1579" width="120" height="60" as="geometry" />
        </mxCell>
        <mxCell id="OJ1lECs8hUQre6vc5IYj-301" style="edgeStyle=orthogonalEdgeStyle;rounded=0;orthogonalLoop=1;jettySize=auto;html=1;exitX=0.5;exitY=1;exitDx=0;exitDy=0;entryX=0.5;entryY=0;entryDx=0;entryDy=0;" edge="1" parent="1" source="OJ1lECs8hUQre6vc5IYj-302" target="OJ1lECs8hUQre6vc5IYj-305">
          <mxGeometry relative="1" as="geometry" />
        </mxCell>
        <mxCell id="OJ1lECs8hUQre6vc5IYj-302" value="Установить булеву переменную inDoorIsOpen в обратное состояние" style="rounded=0;whiteSpace=wrap;html=1;" vertex="1" parent="1">
          <mxGeometry x="4120" y="660" width="120" height="60" as="geometry" />
        </mxCell>
        <mxCell id="OJ1lECs8hUQre6vc5IYj-303" value="нет" style="edgeStyle=orthogonalEdgeStyle;rounded=0;orthogonalLoop=1;jettySize=auto;html=1;exitX=1;exitY=0.5;exitDx=0;exitDy=0;" edge="1" parent="1" source="OJ1lECs8hUQre6vc5IYj-305" target="OJ1lECs8hUQre6vc5IYj-307">
          <mxGeometry x="-0.1111" y="10" relative="1" as="geometry">
            <mxPoint as="offset" />
          </mxGeometry>
        </mxCell>
        <mxCell id="OJ1lECs8hUQre6vc5IYj-304" value="да" style="edgeStyle=orthogonalEdgeStyle;rounded=0;orthogonalLoop=1;jettySize=auto;html=1;exitX=0;exitY=0.5;exitDx=0;exitDy=0;" edge="1" parent="1" source="OJ1lECs8hUQre6vc5IYj-305" target="OJ1lECs8hUQre6vc5IYj-309">
          <mxGeometry x="-0.1111" y="-10" relative="1" as="geometry">
            <mxPoint as="offset" />
          </mxGeometry>
        </mxCell>
        <mxCell id="OJ1lECs8hUQre6vc5IYj-305" value="Открыта ли внутренняя дверь?" style="rhombus;whiteSpace=wrap;html=1;" vertex="1" parent="1">
          <mxGeometry x="4120" y="741" width="120" height="60" as="geometry" />
        </mxCell>
        <mxCell id="OJ1lECs8hUQre6vc5IYj-306" style="edgeStyle=orthogonalEdgeStyle;rounded=0;orthogonalLoop=1;jettySize=auto;html=1;exitX=0.5;exitY=1;exitDx=0;exitDy=0;entryX=0.5;entryY=0;entryDx=0;entryDy=0;" edge="1" parent="1" source="OJ1lECs8hUQre6vc5IYj-307" target="OJ1lECs8hUQre6vc5IYj-313">
          <mxGeometry relative="1" as="geometry" />
        </mxCell>
        <mxCell id="OJ1lECs8hUQre6vc5IYj-307" value="Установить цвет индикатора открытого шлюза на зеленый" style="rounded=0;whiteSpace=wrap;html=1;" vertex="1" parent="1">
          <mxGeometry x="4240" y="801" width="120" height="60" as="geometry" />
        </mxCell>
        <mxCell id="OJ1lECs8hUQre6vc5IYj-308" style="edgeStyle=orthogonalEdgeStyle;rounded=0;orthogonalLoop=1;jettySize=auto;html=1;exitX=0.5;exitY=1;exitDx=0;exitDy=0;" edge="1" parent="1" source="OJ1lECs8hUQre6vc5IYj-309" target="OJ1lECs8hUQre6vc5IYj-311">
          <mxGeometry relative="1" as="geometry" />
        </mxCell>
        <mxCell id="OJ1lECs8hUQre6vc5IYj-309" value="Установить цвет индикатора открытого шлюза на красный" style="rounded=0;whiteSpace=wrap;html=1;" vertex="1" parent="1">
          <mxGeometry x="4000" y="801" width="120" height="60" as="geometry" />
        </mxCell>
        <mxCell id="OJ1lECs8hUQre6vc5IYj-310" style="edgeStyle=orthogonalEdgeStyle;rounded=0;orthogonalLoop=1;jettySize=auto;html=1;exitX=0.5;exitY=1;exitDx=0;exitDy=0;" edge="1" parent="1" source="OJ1lECs8hUQre6vc5IYj-311" target="OJ1lECs8hUQre6vc5IYj-315">
          <mxGeometry relative="1" as="geometry" />
        </mxCell>
        <mxCell id="OJ1lECs8hUQre6vc5IYj-311" value="Изменить тип коллизии объекта SM-door-in на &quot;BlockDoors&quot;" style="rounded=0;whiteSpace=wrap;html=1;" vertex="1" parent="1">
          <mxGeometry x="4000" y="881" width="120" height="60" as="geometry" />
        </mxCell>
        <mxCell id="OJ1lECs8hUQre6vc5IYj-312" style="edgeStyle=orthogonalEdgeStyle;rounded=0;orthogonalLoop=1;jettySize=auto;html=1;exitX=0.5;exitY=1;exitDx=0;exitDy=0;" edge="1" parent="1" source="OJ1lECs8hUQre6vc5IYj-313" target="OJ1lECs8hUQre6vc5IYj-317">
          <mxGeometry relative="1" as="geometry" />
        </mxCell>
        <mxCell id="OJ1lECs8hUQre6vc5IYj-313" value="Изменить тип коллизии объекта SM-door-in на &quot;BlockDoors&quot;" style="rounded=0;whiteSpace=wrap;html=1;" vertex="1" parent="1">
          <mxGeometry x="4240" y="881" width="120" height="60" as="geometry" />
        </mxCell>
        <mxCell id="OJ1lECs8hUQre6vc5IYj-314" style="edgeStyle=orthogonalEdgeStyle;rounded=0;orthogonalLoop=1;jettySize=auto;html=1;exitX=0.5;exitY=1;exitDx=0;exitDy=0;entryX=0.5;entryY=0;entryDx=0;entryDy=0;" edge="1" parent="1" source="OJ1lECs8hUQre6vc5IYj-315" target="OJ1lECs8hUQre6vc5IYj-319">
          <mxGeometry relative="1" as="geometry" />
        </mxCell>
        <mxCell id="OJ1lECs8hUQre6vc5IYj-315" value="Изменить тип коллизии объекта SM-button-in на &quot;BlockDoors&quot;" style="rounded=0;whiteSpace=wrap;html=1;" vertex="1" parent="1">
          <mxGeometry x="4000" y="961" width="120" height="60" as="geometry" />
        </mxCell>
        <mxCell id="OJ1lECs8hUQre6vc5IYj-316" style="edgeStyle=orthogonalEdgeStyle;rounded=0;orthogonalLoop=1;jettySize=auto;html=1;exitX=0.5;exitY=1;exitDx=0;exitDy=0;" edge="1" parent="1" source="OJ1lECs8hUQre6vc5IYj-317" target="OJ1lECs8hUQre6vc5IYj-327">
          <mxGeometry relative="1" as="geometry" />
        </mxCell>
        <mxCell id="OJ1lECs8hUQre6vc5IYj-317" value="Изменить тип коллизии объекта SM-button-in на &quot;BlockDoors&quot;" style="rounded=0;whiteSpace=wrap;html=1;" vertex="1" parent="1">
          <mxGeometry x="4240" y="961" width="120" height="60" as="geometry" />
        </mxCell>
        <mxCell id="OJ1lECs8hUQre6vc5IYj-318" style="edgeStyle=orthogonalEdgeStyle;rounded=0;orthogonalLoop=1;jettySize=auto;html=1;exitX=0.5;exitY=1;exitDx=0;exitDy=0;" edge="1" parent="1" source="OJ1lECs8hUQre6vc5IYj-319" target="OJ1lECs8hUQre6vc5IYj-321">
          <mxGeometry relative="1" as="geometry" />
        </mxCell>
        <mxCell id="OJ1lECs8hUQre6vc5IYj-319" value="Пока не закончится график кривой" style="shape=loopLimit;whiteSpace=wrap;html=1;" vertex="1" parent="1">
          <mxGeometry x="4000" y="1040" width="120" height="60" as="geometry" />
        </mxCell>
        <mxCell id="OJ1lECs8hUQre6vc5IYj-320" style="edgeStyle=orthogonalEdgeStyle;rounded=0;orthogonalLoop=1;jettySize=auto;html=1;exitX=0.5;exitY=1;exitDx=0;exitDy=0;" edge="1" parent="1" source="OJ1lECs8hUQre6vc5IYj-321" target="OJ1lECs8hUQre6vc5IYj-323">
          <mxGeometry relative="1" as="geometry" />
        </mxCell>
        <mxCell id="OJ1lECs8hUQre6vc5IYj-321" value="Изменять переменную Rotation Track по графику кривой" style="rounded=0;whiteSpace=wrap;html=1;" vertex="1" parent="1">
          <mxGeometry x="4000" y="1120" width="120" height="60" as="geometry" />
        </mxCell>
        <mxCell id="OJ1lECs8hUQre6vc5IYj-322" style="edgeStyle=orthogonalEdgeStyle;rounded=0;orthogonalLoop=1;jettySize=auto;html=1;exitX=0.5;exitY=1;exitDx=0;exitDy=0;" edge="1" parent="1" source="OJ1lECs8hUQre6vc5IYj-323" target="OJ1lECs8hUQre6vc5IYj-325">
          <mxGeometry relative="1" as="geometry" />
        </mxCell>
        <mxCell id="OJ1lECs8hUQre6vc5IYj-323" value="Установить относительное вращение компонента SM-door-in переменной Rotation Track" style="rounded=0;whiteSpace=wrap;html=1;" vertex="1" parent="1">
          <mxGeometry x="4000" y="1200" width="120" height="100" as="geometry" />
        </mxCell>
        <mxCell id="OJ1lECs8hUQre6vc5IYj-324" style="edgeStyle=orthogonalEdgeStyle;rounded=0;orthogonalLoop=1;jettySize=auto;html=1;exitX=0.5;exitY=0;exitDx=0;exitDy=0;entryX=0.5;entryY=0;entryDx=0;entryDy=0;" edge="1" parent="1" source="OJ1lECs8hUQre6vc5IYj-325" target="OJ1lECs8hUQre6vc5IYj-335">
          <mxGeometry relative="1" as="geometry" />
        </mxCell>
        <mxCell id="OJ1lECs8hUQre6vc5IYj-325" value="" style="shape=loopLimit;whiteSpace=wrap;html=1;rotation=-180;" vertex="1" parent="1">
          <mxGeometry x="4000" y="1320" width="120" height="60" as="geometry" />
        </mxCell>
        <mxCell id="OJ1lECs8hUQre6vc5IYj-326" style="edgeStyle=orthogonalEdgeStyle;rounded=0;orthogonalLoop=1;jettySize=auto;html=1;exitX=0.5;exitY=1;exitDx=0;exitDy=0;" edge="1" parent="1" source="OJ1lECs8hUQre6vc5IYj-327" target="OJ1lECs8hUQre6vc5IYj-329">
          <mxGeometry relative="1" as="geometry" />
        </mxCell>
        <mxCell id="OJ1lECs8hUQre6vc5IYj-327" value="Пока не закончится график кривой в обратном направлении" style="shape=loopLimit;whiteSpace=wrap;html=1;" vertex="1" parent="1">
          <mxGeometry x="4240" y="1040" width="120" height="60" as="geometry" />
        </mxCell>
        <mxCell id="OJ1lECs8hUQre6vc5IYj-328" style="edgeStyle=orthogonalEdgeStyle;rounded=0;orthogonalLoop=1;jettySize=auto;html=1;exitX=0.5;exitY=1;exitDx=0;exitDy=0;" edge="1" parent="1" source="OJ1lECs8hUQre6vc5IYj-329" target="OJ1lECs8hUQre6vc5IYj-331">
          <mxGeometry relative="1" as="geometry" />
        </mxCell>
        <mxCell id="OJ1lECs8hUQre6vc5IYj-329" value="Изменять переменную Rotation Track по графику кривой" style="rounded=0;whiteSpace=wrap;html=1;" vertex="1" parent="1">
          <mxGeometry x="4240" y="1120" width="120" height="60" as="geometry" />
        </mxCell>
        <mxCell id="OJ1lECs8hUQre6vc5IYj-330" style="edgeStyle=orthogonalEdgeStyle;rounded=0;orthogonalLoop=1;jettySize=auto;html=1;exitX=0.5;exitY=1;exitDx=0;exitDy=0;" edge="1" parent="1" source="OJ1lECs8hUQre6vc5IYj-331" target="OJ1lECs8hUQre6vc5IYj-333">
          <mxGeometry relative="1" as="geometry" />
        </mxCell>
        <mxCell id="OJ1lECs8hUQre6vc5IYj-331" value="Установить относительное вращение компонента SM-door-in переменной Rotation Track" style="rounded=0;whiteSpace=wrap;html=1;" vertex="1" parent="1">
          <mxGeometry x="4240" y="1200" width="120" height="100" as="geometry" />
        </mxCell>
        <mxCell id="OJ1lECs8hUQre6vc5IYj-332" style="edgeStyle=orthogonalEdgeStyle;rounded=0;orthogonalLoop=1;jettySize=auto;html=1;exitX=0.5;exitY=0;exitDx=0;exitDy=0;" edge="1" parent="1" source="OJ1lECs8hUQre6vc5IYj-333" target="OJ1lECs8hUQre6vc5IYj-335">
          <mxGeometry relative="1" as="geometry" />
        </mxCell>
        <mxCell id="OJ1lECs8hUQre6vc5IYj-333" value="" style="shape=loopLimit;whiteSpace=wrap;html=1;rotation=-180;" vertex="1" parent="1">
          <mxGeometry x="4240" y="1320" width="120" height="60" as="geometry" />
        </mxCell>
        <mxCell id="OJ1lECs8hUQre6vc5IYj-334" style="edgeStyle=orthogonalEdgeStyle;rounded=0;orthogonalLoop=1;jettySize=auto;html=1;exitX=0.5;exitY=1;exitDx=0;exitDy=0;" edge="1" parent="1" source="OJ1lECs8hUQre6vc5IYj-335" target="OJ1lECs8hUQre6vc5IYj-337">
          <mxGeometry relative="1" as="geometry" />
        </mxCell>
        <mxCell id="OJ1lECs8hUQre6vc5IYj-335" value="Изменить тип коллизии объекта SM-door-in на &quot;BlockAllDynamic&quot;" style="rounded=0;whiteSpace=wrap;html=1;" vertex="1" parent="1">
          <mxGeometry x="4120" y="1420" width="120" height="60" as="geometry" />
        </mxCell>
        <mxCell id="OJ1lECs8hUQre6vc5IYj-336" style="edgeStyle=orthogonalEdgeStyle;rounded=0;orthogonalLoop=1;jettySize=auto;html=1;exitX=0.5;exitY=1;exitDx=0;exitDy=0;" edge="1" parent="1" source="OJ1lECs8hUQre6vc5IYj-337" target="OJ1lECs8hUQre6vc5IYj-338">
          <mxGeometry relative="1" as="geometry" />
        </mxCell>
        <mxCell id="OJ1lECs8hUQre6vc5IYj-337" value="Изменить тип коллизии объекта SM-button-in на &quot;BlockAllDynamic&quot;" style="rounded=0;whiteSpace=wrap;html=1;" vertex="1" parent="1">
          <mxGeometry x="4120" y="1500" width="120" height="60" as="geometry" />
        </mxCell>
        <mxCell id="OJ1lECs8hUQre6vc5IYj-338" value="Конец" style="strokeWidth=2;html=1;shape=mxgraph.flowchart.terminator;whiteSpace=wrap;" vertex="1" parent="1">
          <mxGeometry x="4120" y="1580" width="120" height="60" as="geometry" />
        </mxCell>
        <mxCell id="OJ1lECs8hUQre6vc5IYj-357" value="да" style="edgeStyle=orthogonalEdgeStyle;rounded=0;orthogonalLoop=1;jettySize=auto;html=1;exitX=1;exitY=0.5;exitDx=0;exitDy=0;entryX=0.5;entryY=0;entryDx=0;entryDy=0;" edge="1" parent="1" source="OJ1lECs8hUQre6vc5IYj-340" target="OJ1lECs8hUQre6vc5IYj-347">
          <mxGeometry x="-0.5556" y="10" relative="1" as="geometry">
            <mxPoint as="offset" />
          </mxGeometry>
        </mxCell>
        <mxCell id="OJ1lECs8hUQre6vc5IYj-361" value="нет" style="edgeStyle=orthogonalEdgeStyle;rounded=0;orthogonalLoop=1;jettySize=auto;html=1;exitX=0;exitY=0.5;exitDx=0;exitDy=0;" edge="1" parent="1" source="OJ1lECs8hUQre6vc5IYj-340" target="OJ1lECs8hUQre6vc5IYj-359">
          <mxGeometry x="-0.5506" y="-10" relative="1" as="geometry">
            <mxPoint as="offset" />
          </mxGeometry>
        </mxCell>
        <mxCell id="OJ1lECs8hUQre6vc5IYj-340" value="Открыта ли любая из дверей?" style="rhombus;whiteSpace=wrap;html=1;" vertex="1" parent="1">
          <mxGeometry x="4510" y="540" width="120" height="60" as="geometry" />
        </mxCell>
        <mxCell id="OJ1lECs8hUQre6vc5IYj-358" value="да" style="edgeStyle=orthogonalEdgeStyle;rounded=0;orthogonalLoop=1;jettySize=auto;html=1;exitX=0;exitY=0.5;exitDx=0;exitDy=0;" edge="1" parent="1" source="OJ1lECs8hUQre6vc5IYj-344" target="OJ1lECs8hUQre6vc5IYj-347">
          <mxGeometry x="-0.5556" y="-10" relative="1" as="geometry">
            <mxPoint as="offset" />
          </mxGeometry>
        </mxCell>
        <mxCell id="OJ1lECs8hUQre6vc5IYj-390" value="нет" style="edgeStyle=orthogonalEdgeStyle;rounded=0;orthogonalLoop=1;jettySize=auto;html=1;exitX=1;exitY=0.5;exitDx=0;exitDy=0;" edge="1" parent="1" source="OJ1lECs8hUQre6vc5IYj-344" target="OJ1lECs8hUQre6vc5IYj-376">
          <mxGeometry x="-0.5556" y="10" relative="1" as="geometry">
            <mxPoint as="offset" />
          </mxGeometry>
        </mxCell>
        <mxCell id="OJ1lECs8hUQre6vc5IYj-344" value="Открыта ли любая из дверей?" style="rhombus;whiteSpace=wrap;html=1;" vertex="1" parent="1">
          <mxGeometry x="4750" y="540" width="120" height="60" as="geometry" />
        </mxCell>
        <mxCell id="OJ1lECs8hUQre6vc5IYj-346" style="edgeStyle=orthogonalEdgeStyle;rounded=0;orthogonalLoop=1;jettySize=auto;html=1;exitX=0.5;exitY=1;exitDx=0;exitDy=0;entryX=0.5;entryY=0;entryDx=0;entryDy=0;" edge="1" parent="1" source="OJ1lECs8hUQre6vc5IYj-347" target="OJ1lECs8hUQre6vc5IYj-349">
          <mxGeometry relative="1" as="geometry" />
        </mxCell>
        <mxCell id="OJ1lECs8hUQre6vc5IYj-347" value="Получить ссылку на объекты класса Hud" style="rounded=0;whiteSpace=wrap;html=1;" vertex="1" parent="1">
          <mxGeometry x="4630" y="600" width="120" height="60" as="geometry" />
        </mxCell>
        <mxCell id="OJ1lECs8hUQre6vc5IYj-348" style="edgeStyle=orthogonalEdgeStyle;rounded=0;orthogonalLoop=1;jettySize=auto;html=1;exitX=0.5;exitY=1;exitDx=0;exitDy=0;" edge="1" parent="1" target="OJ1lECs8hUQre6vc5IYj-351">
          <mxGeometry relative="1" as="geometry">
            <mxPoint x="4690" y="790" as="sourcePoint" />
          </mxGeometry>
        </mxCell>
        <mxCell id="OJ1lECs8hUQre6vc5IYj-349" value="Отобразить сообщение&lt;br&gt;&amp;nbsp;&quot;Включение&lt;br&gt;&amp;nbsp;УФ-лампы при открытом шлюзе запрещено&quot;" style="rounded=0;whiteSpace=wrap;html=1;" vertex="1" parent="1">
          <mxGeometry x="4630" y="680" width="120" height="90" as="geometry" />
        </mxCell>
        <mxCell id="OJ1lECs8hUQre6vc5IYj-350" style="edgeStyle=orthogonalEdgeStyle;rounded=0;orthogonalLoop=1;jettySize=auto;html=1;exitX=0.5;exitY=1;exitDx=0;exitDy=0;" edge="1" parent="1" source="OJ1lECs8hUQre6vc5IYj-351" target="OJ1lECs8hUQre6vc5IYj-355">
          <mxGeometry relative="1" as="geometry" />
        </mxCell>
        <mxCell id="OJ1lECs8hUQre6vc5IYj-351" value="Задержка 2 секунды" style="rounded=0;whiteSpace=wrap;html=1;" vertex="1" parent="1">
          <mxGeometry x="4630" y="790" width="120" height="60" as="geometry" />
        </mxCell>
        <mxCell id="OJ1lECs8hUQre6vc5IYj-352" style="edgeStyle=orthogonalEdgeStyle;rounded=0;orthogonalLoop=1;jettySize=auto;html=1;exitX=0.5;exitY=1;exitDx=0;exitDy=0;entryX=0.5;entryY=0;entryDx=0;entryDy=0;entryPerimeter=0;" edge="1" parent="1" source="OJ1lECs8hUQre6vc5IYj-353" target="OJ1lECs8hUQre6vc5IYj-356">
          <mxGeometry relative="1" as="geometry" />
        </mxCell>
        <mxCell id="OJ1lECs8hUQre6vc5IYj-353" value="Скрыть отображение сообщения на экране" style="rounded=0;whiteSpace=wrap;html=1;" vertex="1" parent="1">
          <mxGeometry x="4630" y="950" width="120" height="60" as="geometry" />
        </mxCell>
        <mxCell id="OJ1lECs8hUQre6vc5IYj-354" style="edgeStyle=orthogonalEdgeStyle;rounded=0;orthogonalLoop=1;jettySize=auto;html=1;exitX=0.5;exitY=1;exitDx=0;exitDy=0;" edge="1" parent="1" source="OJ1lECs8hUQre6vc5IYj-355" target="OJ1lECs8hUQre6vc5IYj-353">
          <mxGeometry relative="1" as="geometry" />
        </mxCell>
        <mxCell id="OJ1lECs8hUQre6vc5IYj-355" value="Получить ссылку на объекты класса Hud" style="rounded=0;whiteSpace=wrap;html=1;" vertex="1" parent="1">
          <mxGeometry x="4630" y="870" width="120" height="60" as="geometry" />
        </mxCell>
        <mxCell id="OJ1lECs8hUQre6vc5IYj-356" value="Конец" style="strokeWidth=2;html=1;shape=mxgraph.flowchart.terminator;whiteSpace=wrap;" vertex="1" parent="1">
          <mxGeometry x="4631.5" y="1029" width="120" height="60" as="geometry" />
        </mxCell>
        <mxCell id="OJ1lECs8hUQre6vc5IYj-362" style="edgeStyle=orthogonalEdgeStyle;rounded=0;orthogonalLoop=1;jettySize=auto;html=1;exitX=0.5;exitY=1;exitDx=0;exitDy=0;" edge="1" parent="1" source="OJ1lECs8hUQre6vc5IYj-359" target="OJ1lECs8hUQre6vc5IYj-360">
          <mxGeometry relative="1" as="geometry" />
        </mxCell>
        <mxCell id="OJ1lECs8hUQre6vc5IYj-359" value="Изменить тип коллизии объекта SM-button-out на &quot;BlockDoors&quot;" style="rounded=0;whiteSpace=wrap;html=1;" vertex="1" parent="1">
          <mxGeometry x="4390" y="599" width="120" height="60" as="geometry" />
        </mxCell>
        <mxCell id="OJ1lECs8hUQre6vc5IYj-370" style="edgeStyle=orthogonalEdgeStyle;rounded=0;orthogonalLoop=1;jettySize=auto;html=1;exitX=0.5;exitY=1;exitDx=0;exitDy=0;" edge="1" parent="1" source="OJ1lECs8hUQre6vc5IYj-360" target="OJ1lECs8hUQre6vc5IYj-364">
          <mxGeometry relative="1" as="geometry" />
        </mxCell>
        <mxCell id="OJ1lECs8hUQre6vc5IYj-360" value="Изменить тип коллизии объекта SM-door-out на &quot;BlockDoors&quot;" style="rounded=0;whiteSpace=wrap;html=1;" vertex="1" parent="1">
          <mxGeometry x="4390" y="679" width="120" height="60" as="geometry" />
        </mxCell>
        <mxCell id="OJ1lECs8hUQre6vc5IYj-363" style="edgeStyle=orthogonalEdgeStyle;rounded=0;orthogonalLoop=1;jettySize=auto;html=1;exitX=0.5;exitY=1;exitDx=0;exitDy=0;" edge="1" parent="1" source="OJ1lECs8hUQre6vc5IYj-364" target="OJ1lECs8hUQre6vc5IYj-366">
          <mxGeometry relative="1" as="geometry" />
        </mxCell>
        <mxCell id="OJ1lECs8hUQre6vc5IYj-364" value="Пока не закончится график кривой" style="shape=loopLimit;whiteSpace=wrap;html=1;" vertex="1" parent="1">
          <mxGeometry x="4390" y="759" width="120" height="60" as="geometry" />
        </mxCell>
        <mxCell id="OJ1lECs8hUQre6vc5IYj-365" style="edgeStyle=orthogonalEdgeStyle;rounded=0;orthogonalLoop=1;jettySize=auto;html=1;exitX=0.5;exitY=1;exitDx=0;exitDy=0;" edge="1" parent="1" source="OJ1lECs8hUQre6vc5IYj-366" target="OJ1lECs8hUQre6vc5IYj-368">
          <mxGeometry relative="1" as="geometry" />
        </mxCell>
        <mxCell id="OJ1lECs8hUQre6vc5IYj-366" value="Изменять переменную Ymovement по графику кривой" style="rounded=0;whiteSpace=wrap;html=1;" vertex="1" parent="1">
          <mxGeometry x="4390" y="839" width="120" height="60" as="geometry" />
        </mxCell>
        <mxCell id="OJ1lECs8hUQre6vc5IYj-367" style="edgeStyle=orthogonalEdgeStyle;rounded=0;orthogonalLoop=1;jettySize=auto;html=1;exitX=0.5;exitY=1;exitDx=0;exitDy=0;" edge="1" parent="1" target="OJ1lECs8hUQre6vc5IYj-369">
          <mxGeometry relative="1" as="geometry">
            <mxPoint x="4450" y="1059.97" as="sourcePoint" />
          </mxGeometry>
        </mxCell>
        <mxCell id="OJ1lECs8hUQre6vc5IYj-368" value="Установить относительное перемещение&lt;br&gt;компонента &lt;br&gt;SM-button-out переменной Ymovement в диапазоне&amp;nbsp;" style="rounded=0;whiteSpace=wrap;html=1;" vertex="1" parent="1">
          <mxGeometry x="4390" y="919" width="120" height="121" as="geometry" />
        </mxCell>
        <mxCell id="OJ1lECs8hUQre6vc5IYj-374" style="edgeStyle=orthogonalEdgeStyle;rounded=0;orthogonalLoop=1;jettySize=auto;html=1;exitX=0.5;exitY=0;exitDx=0;exitDy=0;entryX=0.5;entryY=0;entryDx=0;entryDy=0;" edge="1" parent="1" source="OJ1lECs8hUQre6vc5IYj-369" target="OJ1lECs8hUQre6vc5IYj-372">
          <mxGeometry relative="1" as="geometry" />
        </mxCell>
        <mxCell id="OJ1lECs8hUQre6vc5IYj-369" value="" style="shape=loopLimit;whiteSpace=wrap;html=1;rotation=-180;" vertex="1" parent="1">
          <mxGeometry x="4390" y="1058.97" width="120" height="60" as="geometry" />
        </mxCell>
        <mxCell id="OJ1lECs8hUQre6vc5IYj-371" style="edgeStyle=orthogonalEdgeStyle;rounded=0;orthogonalLoop=1;jettySize=auto;html=1;exitX=0.5;exitY=1;exitDx=0;exitDy=0;" edge="1" parent="1" source="OJ1lECs8hUQre6vc5IYj-372" target="OJ1lECs8hUQre6vc5IYj-373">
          <mxGeometry relative="1" as="geometry" />
        </mxCell>
        <mxCell id="OJ1lECs8hUQre6vc5IYj-372" value="Изменить тип коллизии объекта SM-button-out на &quot;BlockAllDynamic&quot;" style="rounded=0;whiteSpace=wrap;html=1;" vertex="1" parent="1">
          <mxGeometry x="4390" y="1138.97" width="120" height="60" as="geometry" />
        </mxCell>
        <mxCell id="OJ1lECs8hUQre6vc5IYj-392" style="edgeStyle=orthogonalEdgeStyle;rounded=0;orthogonalLoop=1;jettySize=auto;html=1;exitX=0.5;exitY=1;exitDx=0;exitDy=0;" edge="1" parent="1" source="OJ1lECs8hUQre6vc5IYj-373" target="OJ1lECs8hUQre6vc5IYj-391">
          <mxGeometry relative="1" as="geometry" />
        </mxCell>
        <mxCell id="OJ1lECs8hUQre6vc5IYj-373" value="Изменить тип коллизии объекта SM-door-out на &quot;BlockAllDynamic&quot;" style="rounded=0;whiteSpace=wrap;html=1;" vertex="1" parent="1">
          <mxGeometry x="4390" y="1218.97" width="120" height="60" as="geometry" />
        </mxCell>
        <mxCell id="OJ1lECs8hUQre6vc5IYj-375" style="edgeStyle=orthogonalEdgeStyle;rounded=0;orthogonalLoop=1;jettySize=auto;html=1;exitX=0.5;exitY=1;exitDx=0;exitDy=0;" edge="1" parent="1" source="OJ1lECs8hUQre6vc5IYj-376" target="OJ1lECs8hUQre6vc5IYj-378">
          <mxGeometry relative="1" as="geometry" />
        </mxCell>
        <mxCell id="OJ1lECs8hUQre6vc5IYj-376" value="Изменить тип коллизии объекта SM-button-in на &quot;BlockDoors&quot;" style="rounded=0;whiteSpace=wrap;html=1;" vertex="1" parent="1">
          <mxGeometry x="4870" y="600" width="120" height="60" as="geometry" />
        </mxCell>
        <mxCell id="OJ1lECs8hUQre6vc5IYj-377" style="edgeStyle=orthogonalEdgeStyle;rounded=0;orthogonalLoop=1;jettySize=auto;html=1;exitX=0.5;exitY=1;exitDx=0;exitDy=0;" edge="1" parent="1" source="OJ1lECs8hUQre6vc5IYj-378" target="OJ1lECs8hUQre6vc5IYj-380">
          <mxGeometry relative="1" as="geometry" />
        </mxCell>
        <mxCell id="OJ1lECs8hUQre6vc5IYj-378" value="Изменить тип коллизии объекта SM-door-in на &quot;BlockDoors&quot;" style="rounded=0;whiteSpace=wrap;html=1;" vertex="1" parent="1">
          <mxGeometry x="4870" y="680" width="120" height="60" as="geometry" />
        </mxCell>
        <mxCell id="OJ1lECs8hUQre6vc5IYj-379" style="edgeStyle=orthogonalEdgeStyle;rounded=0;orthogonalLoop=1;jettySize=auto;html=1;exitX=0.5;exitY=1;exitDx=0;exitDy=0;" edge="1" parent="1" source="OJ1lECs8hUQre6vc5IYj-380" target="OJ1lECs8hUQre6vc5IYj-382">
          <mxGeometry relative="1" as="geometry" />
        </mxCell>
        <mxCell id="OJ1lECs8hUQre6vc5IYj-380" value="Пока не закончится график кривой" style="shape=loopLimit;whiteSpace=wrap;html=1;" vertex="1" parent="1">
          <mxGeometry x="4870" y="760" width="120" height="60" as="geometry" />
        </mxCell>
        <mxCell id="OJ1lECs8hUQre6vc5IYj-381" style="edgeStyle=orthogonalEdgeStyle;rounded=0;orthogonalLoop=1;jettySize=auto;html=1;exitX=0.5;exitY=1;exitDx=0;exitDy=0;" edge="1" parent="1" source="OJ1lECs8hUQre6vc5IYj-382" target="OJ1lECs8hUQre6vc5IYj-384">
          <mxGeometry relative="1" as="geometry" />
        </mxCell>
        <mxCell id="OJ1lECs8hUQre6vc5IYj-382" value="Изменять переменную Ymovement по графику кривой" style="rounded=0;whiteSpace=wrap;html=1;" vertex="1" parent="1">
          <mxGeometry x="4870" y="840" width="120" height="60" as="geometry" />
        </mxCell>
        <mxCell id="OJ1lECs8hUQre6vc5IYj-383" style="edgeStyle=orthogonalEdgeStyle;rounded=0;orthogonalLoop=1;jettySize=auto;html=1;exitX=0.5;exitY=1;exitDx=0;exitDy=0;" edge="1" parent="1" target="OJ1lECs8hUQre6vc5IYj-386">
          <mxGeometry relative="1" as="geometry">
            <mxPoint x="4930" y="1059" as="sourcePoint" />
          </mxGeometry>
        </mxCell>
        <mxCell id="OJ1lECs8hUQre6vc5IYj-384" value="Установить относительное перемещение&lt;br&gt;компонента &lt;br&gt;SM-button-out переменной Ymovement в диапазоне" style="rounded=0;whiteSpace=wrap;html=1;" vertex="1" parent="1">
          <mxGeometry x="4870" y="920" width="120" height="120" as="geometry" />
        </mxCell>
        <mxCell id="OJ1lECs8hUQre6vc5IYj-385" style="edgeStyle=orthogonalEdgeStyle;rounded=0;orthogonalLoop=1;jettySize=auto;html=1;exitX=0.5;exitY=0;exitDx=0;exitDy=0;entryX=0.5;entryY=0;entryDx=0;entryDy=0;" edge="1" parent="1" source="OJ1lECs8hUQre6vc5IYj-386" target="OJ1lECs8hUQre6vc5IYj-388">
          <mxGeometry relative="1" as="geometry" />
        </mxCell>
        <mxCell id="OJ1lECs8hUQre6vc5IYj-386" value="" style="shape=loopLimit;whiteSpace=wrap;html=1;rotation=-180;" vertex="1" parent="1">
          <mxGeometry x="4870" y="1059" width="120" height="60" as="geometry" />
        </mxCell>
        <mxCell id="OJ1lECs8hUQre6vc5IYj-387" style="edgeStyle=orthogonalEdgeStyle;rounded=0;orthogonalLoop=1;jettySize=auto;html=1;exitX=0.5;exitY=1;exitDx=0;exitDy=0;" edge="1" parent="1" source="OJ1lECs8hUQre6vc5IYj-388" target="OJ1lECs8hUQre6vc5IYj-389">
          <mxGeometry relative="1" as="geometry" />
        </mxCell>
        <mxCell id="OJ1lECs8hUQre6vc5IYj-388" value="Изменить тип коллизии объекта SM-button-in на &quot;BlockAllDynamic&quot;" style="rounded=0;whiteSpace=wrap;html=1;" vertex="1" parent="1">
          <mxGeometry x="4870" y="1139" width="120" height="60" as="geometry" />
        </mxCell>
        <mxCell id="OJ1lECs8hUQre6vc5IYj-393" style="edgeStyle=orthogonalEdgeStyle;rounded=0;orthogonalLoop=1;jettySize=auto;html=1;exitX=0.5;exitY=1;exitDx=0;exitDy=0;" edge="1" parent="1" source="OJ1lECs8hUQre6vc5IYj-389" target="OJ1lECs8hUQre6vc5IYj-391">
          <mxGeometry relative="1" as="geometry" />
        </mxCell>
        <mxCell id="OJ1lECs8hUQre6vc5IYj-389" value="Изменить тип коллизии объекта SM-door-in на &quot;BlockAllDynamic&quot;" style="rounded=0;whiteSpace=wrap;html=1;" vertex="1" parent="1">
          <mxGeometry x="4870" y="1219" width="120" height="60" as="geometry" />
        </mxCell>
        <mxCell id="OJ1lECs8hUQre6vc5IYj-395" style="edgeStyle=orthogonalEdgeStyle;rounded=0;orthogonalLoop=1;jettySize=auto;html=1;exitX=0.5;exitY=1;exitDx=0;exitDy=0;entryX=0.5;entryY=0;entryDx=0;entryDy=0;" edge="1" parent="1" source="OJ1lECs8hUQre6vc5IYj-391" target="OJ1lECs8hUQre6vc5IYj-394">
          <mxGeometry relative="1" as="geometry" />
        </mxCell>
        <mxCell id="OJ1lECs8hUQre6vc5IYj-391" value="Установить булеву переменную uvLampIsOn в обратное состояние" style="rounded=0;whiteSpace=wrap;html=1;" vertex="1" parent="1">
          <mxGeometry x="4631.5" y="1319" width="120" height="60" as="geometry" />
        </mxCell>
        <mxCell id="OJ1lECs8hUQre6vc5IYj-397" value="да" style="edgeStyle=orthogonalEdgeStyle;rounded=0;orthogonalLoop=1;jettySize=auto;html=1;exitX=0;exitY=0.5;exitDx=0;exitDy=0;entryX=0.5;entryY=0;entryDx=0;entryDy=0;" edge="1" parent="1" source="OJ1lECs8hUQre6vc5IYj-394" target="OJ1lECs8hUQre6vc5IYj-399">
          <mxGeometry x="-0.1261" y="-9" relative="1" as="geometry">
            <mxPoint x="4571.5" y="1464" as="targetPoint" />
            <mxPoint as="offset" />
          </mxGeometry>
        </mxCell>
        <mxCell id="OJ1lECs8hUQre6vc5IYj-405" value="нет" style="edgeStyle=orthogonalEdgeStyle;rounded=0;orthogonalLoop=1;jettySize=auto;html=1;exitX=1;exitY=0.5;exitDx=0;exitDy=0;" edge="1" parent="1" source="OJ1lECs8hUQre6vc5IYj-394" target="OJ1lECs8hUQre6vc5IYj-403">
          <mxGeometry x="-0.5888" y="9" relative="1" as="geometry">
            <mxPoint as="offset" />
          </mxGeometry>
        </mxCell>
        <mxCell id="OJ1lECs8hUQre6vc5IYj-394" value="Включена ли&amp;nbsp;&lt;br&gt;УФ-лампа?" style="rhombus;whiteSpace=wrap;html=1;" vertex="1" parent="1">
          <mxGeometry x="4631.5" y="1399" width="120" height="60" as="geometry" />
        </mxCell>
        <mxCell id="OJ1lECs8hUQre6vc5IYj-401" style="edgeStyle=orthogonalEdgeStyle;rounded=0;orthogonalLoop=1;jettySize=auto;html=1;exitX=0.5;exitY=1;exitDx=0;exitDy=0;" edge="1" parent="1" source="OJ1lECs8hUQre6vc5IYj-399" target="OJ1lECs8hUQre6vc5IYj-400">
          <mxGeometry relative="1" as="geometry" />
        </mxCell>
        <mxCell id="OJ1lECs8hUQre6vc5IYj-399" value="Включить индикатор работы УФ-лампы&amp;nbsp;" style="rounded=0;whiteSpace=wrap;html=1;" vertex="1" parent="1">
          <mxGeometry x="4511.5" y="1459" width="120" height="60" as="geometry" />
        </mxCell>
        <mxCell id="OJ1lECs8hUQre6vc5IYj-407" style="edgeStyle=orthogonalEdgeStyle;rounded=0;orthogonalLoop=1;jettySize=auto;html=1;exitX=0.5;exitY=1;exitDx=0;exitDy=0;" edge="1" parent="1" source="OJ1lECs8hUQre6vc5IYj-400" target="OJ1lECs8hUQre6vc5IYj-406">
          <mxGeometry relative="1" as="geometry" />
        </mxCell>
        <mxCell id="OJ1lECs8hUQre6vc5IYj-400" value="Включить УФ-лампу" style="rounded=0;whiteSpace=wrap;html=1;" vertex="1" parent="1">
          <mxGeometry x="4511.5" y="1539" width="120" height="60" as="geometry" />
        </mxCell>
        <mxCell id="OJ1lECs8hUQre6vc5IYj-402" style="edgeStyle=orthogonalEdgeStyle;rounded=0;orthogonalLoop=1;jettySize=auto;html=1;exitX=0.5;exitY=1;exitDx=0;exitDy=0;" edge="1" parent="1" source="OJ1lECs8hUQre6vc5IYj-403" target="OJ1lECs8hUQre6vc5IYj-404">
          <mxGeometry relative="1" as="geometry" />
        </mxCell>
        <mxCell id="OJ1lECs8hUQre6vc5IYj-403" value="Выключить индикатор работы УФ-лампы&amp;nbsp;" style="rounded=0;whiteSpace=wrap;html=1;" vertex="1" parent="1">
          <mxGeometry x="4751.5" y="1459" width="120" height="60" as="geometry" />
        </mxCell>
        <mxCell id="OJ1lECs8hUQre6vc5IYj-408" style="edgeStyle=orthogonalEdgeStyle;rounded=0;orthogonalLoop=1;jettySize=auto;html=1;exitX=0.5;exitY=1;exitDx=0;exitDy=0;" edge="1" parent="1" source="OJ1lECs8hUQre6vc5IYj-404" target="OJ1lECs8hUQre6vc5IYj-406">
          <mxGeometry relative="1" as="geometry" />
        </mxCell>
        <mxCell id="OJ1lECs8hUQre6vc5IYj-404" value="Выключить УФ-лампу" style="rounded=0;whiteSpace=wrap;html=1;" vertex="1" parent="1">
          <mxGeometry x="4751.5" y="1539" width="120" height="60" as="geometry" />
        </mxCell>
        <mxCell id="OJ1lECs8hUQre6vc5IYj-406" value="Конец" style="strokeWidth=2;html=1;shape=mxgraph.flowchart.terminator;whiteSpace=wrap;" vertex="1" parent="1">
          <mxGeometry x="4631.5" y="1639" width="120" height="60" as="geometry" />
        </mxCell>
      </root>
    </mxGraphModel>
  </diagram>
</mxfile>
